<svg xmlns="http://www.w3.org/2000/svg" viewBox="54.9 63.7 100.15 169.65" role="img" aria-label="Fauconnier">
  <path fill="#2e3632" d="m 115.38974,219.5405 c 0,-0.57272 0.40482,-1.7266 0.89959,-2.56419 0.87918,-1.48833 0.86798,-1.55603 -0.49413,-2.98379 -2.02765,-2.12538 -2.41285,-3.54143 -3.3155,-12.18815 -1.08953,-10.43685 -1.71998,-12.88604 -3.41963,-13.28464 -1.76108,-0.413 -1.94954,-1.88599 -0.49333,-3.85563 1.12212,-1.51774 1.15562,-1.79529 0.54943,-4.55244 -0.35505,-1.61489 -0.86226,-4.47969 -1.12715,-6.36623 -1.85198,-13.19016 -2.20872,-14.7852 -3.35776,-15.01292 -4.09129,-0.81085 -4.48274,-0.79001 -4.814813,0.25632 -0.32964,1.03858 -1.31321,1.45652 -1.31321,0.55801 0,-0.26306 -0.47493,-0.3541 -1.0554,-0.2023 -1.27707,0.33395 -1.27244,0.67097 -0.0643,-4.68669 0.54512,-2.41737 1.41979,-6.76989 1.94372,-9.67225 0.52393,-2.90237 1.383993,-6.15807 1.911243,-7.2349 0.52726,-1.07683 0.95865,-2.21691 0.95865,-2.53352 0,-1.02671 -3.577693,-2.10491 -6.984543,-2.10491 -4.49413,0 -6.80667,-1.51867 -8.06041,-5.29334 -0.73943,-2.2262 -0.77998,-2.9462 -0.23944,-4.2512 0.85141,-2.05548 0.28903,-2.53828 -1.26074,-1.08235 -1.01227,0.95099 -1.48405,1.06893 -2.59153,0.64786 -1.45079,-0.55158 -2.22578,0.25904 -1.6592,1.7355 0.15352,0.40008 -0.54032,1.62191 -1.54189,2.71517 -1.34642,1.4697 -2.11114,1.91189 -2.93421,1.69665 -0.61226,-0.16011 -1.1132,-0.043 -1.1132,0.26038 0,1.04238 -4.34669,9.61504 -5.20738,10.27012 -0.47366,0.36053 -1.18871,0.66304 -1.589,0.67228 -1.26928,0.0293 -0.20486,-6.0816 1.8814,-10.80114 3.06383,-6.93098 3.39061,-8.04395 2.46595,-8.39877 -0.43427,-0.16665 -1.32217,0.0987 -1.9731,0.58973 -1.23729,0.93328 -2.69471,5.50564 -4.582162,7.89072 -0.447682,0.56571 -1.311198,1.64888 -1.571708,1.48788 -0.53326,-0.32958 1.13713,-4.89662 2.74575,-7.5072 0.58158,-0.94382 0.97298,-1.9693 0.8698,-2.27885 -0.25741,-0.77221 -4.279716,2.33398 -6.709435,5.92719 -2.087994,3.08785 -3.082487,1.99349 -3.216625,1.86836 0,0 2.28024,-4.06087 8.00425,-11.48234 5.06074,-6.56151 6.26784,-8.50955 6.60704,-10.66255 0.39968,-2.53686 1.13636,-3.59732 4.91374,-7.07333 3.65902,-3.367097 7.68684,-5.882934 13.12804,-8.199973 1.85103,-0.788231 3.75077,-1.757923 4.22163,-2.154866 1.35902,-1.145692 4.808143,-3.013825 5.564413,-3.013825 0.37963,0 1.26443,-0.451672 1.96624,-1.003713 0.70181,-0.552041 1.86172,-1.08634 2.57759,-1.187332 1.46107,-0.259104 2.8875,0.138306 4.29065,2.080845 0.82321,0.692684 1.49674,1.594519 1.49674,2.004069 0,0.409556 0.3308,0.744648 0.7351,0.744648 0.83847,0 1.53497,1.426208 1.0666,2.184058 -0.19317,0.312538 -0.58158,0.282432 -1.01685,-0.07881 -0.93729,-0.777882 -4.77864,0.233778 -5.21607,1.373707 -0.17496,0.455946 -0.31811,2.119921 -0.31811,3.697733 0,2.445045 -0.32451,3.393428 -2.19715,6.421209 -5.603273,9.05965 -7.412673,14.32308 -5.423763,15.7774 0.713423,0.52167 0.812773,0.86288 0.37787,1.29778 -0.32451,0.32451 -0.47451,0.89105 -0.33333,1.25897 0.36663,0.95543 2.299343,0.31149 2.299343,-0.7661 0,-0.49548 0.56351,-2.78356 1.25225,-5.08464 0.68874,-2.30107 1.42923,-5.72682 1.64554,-7.61276 0.7297,-6.36232 4.00871,-10.727269 9.68905,-12.897845 3.43421,-1.312287 3.57735,-1.43987 4.1915,-3.736118 0.34972,-1.307591 0.63587,-3.295085 0.63587,-4.416656 0,-1.774376 -0.20841,-2.125546 -1.60471,-2.703909 -3.32393,-1.376815 -4.20003,-2.485319 -4.20003,-5.314146 0,-2.369852 0.15464,-2.702018 1.69373,-3.63799 0.93155,-0.566509 2.33165,-1.170129 3.11134,-1.341377 0.95692,-0.210176 2.03743,-1.244856 3.32484,-3.183854 1.82467,-2.748145 2.00694,-2.872492 4.21054,-2.872492 5.58776,0 7.128,1.239909 8.2492,6.640694 0.47017,2.264815 0.88376,2.917119 2.51939,3.97353 2.76987,1.788989 2.83754,3.29764 0.20808,4.639088 -2.41892,1.23404 -2.87517,2.118777 -2.44354,4.738328 0.6547,3.973368 1.15254,4.563916 5.94246,7.049103 4.54553,2.358385 4.59729,2.408063 6.52914,6.266494 1.07101,2.13911 2.07766,4.95936 2.237,6.26723 2.5954,21.30355 2.53907,20.57575 1.69268,21.8675 -0.77922,1.18924 -6.72766,3.45373 -9.12465,3.47363 -1.83603,0.0152 -2.47332,0.7793 -1.76066,2.11092 0.35257,0.65879 0.84061,2.78714 1.08452,4.72966 0.55825,4.44591 3.77203,11.08069 6.86597,14.17463 l 2.2191,2.21909 -0.90621,4.1942 c -0.49842,2.30681 -0.76523,4.42232 -0.59291,4.70115 0.17233,0.27882 0.072,0.65611 -0.22299,0.83841 -0.31354,0.19378 -0.54298,-0.28427 -0.55236,-1.15087 -0.0223,-2.0591 -0.71043,-0.7472 -1.74436,3.32552 -0.45026,1.77361 -1.36855,4.38574 -2.04063,5.80473 -1.1946,2.52221 -1.28003,2.58369 -3.81379,2.74453 -1.97541,0.12539 -2.94407,-0.0959 -4.07296,-0.93054 l -1.48114,-1.09506 -0.32518,1.29557 c -0.22606,0.90071 0.20222,2.31014 1.4052,4.62446 l 1.73037,3.32889 0.15232,16.88651 c 0.10416,11.54696 -1.23975,16.77381 -1.08387,20.92914 0.11473,3.0583 -0.98075,5.98433 -0.98075,5.98433 0,0 -0.60052,1.62683 -0.96464,1.6902 -1.10489,0.1923 -2.49967,0.48242 -3.49757,0.22011 -0.51878,-0.0492 -0.68058,-1.53421 -3.80178,-0.77895 -1.32188,0.31986 -3.86372,-1.59926 -5.2387,-1.85232 -0.99273,-0.18271 0.64877,-4.97885 0.64877,-4.97885 2.88553,-1.14587 4.08784,0.0957 3.48901,-1.16091 -0.30131,-1.35897 -0.4064,-1.13186 -0.74221,1.60406 l -0.39119,3.18717 -0.81969,2.61989 c -0.3375,1.07874 -3.56389,1.48214 -5.65142,1.1599 -0.85517,-0.13201 -0.48117,-1.12135 -1.53205,-1.08614 -2.0619,0.49806 -3.71393,-0.60573 -7.35915,-2.26333 -0.55005,-0.4394 -0.64602,-2.26651 1.11228,-2.96287 2.66732,-1.05636 4.15544,0.35797 4.82928,-3.16538 z"/>
  <path fill="#a7c0a0" d="m 118.93791,82.489837 1.53153,3.478095 1.15201,-0.647148 1.36026,2.74015 -4.27495,2.006457 z"/>
  <path fill="#a7c0a0" d="m 118.41794,91.307218 10.52182,4.992098 8.77314,25.697574 -11.53459,-23.981704 -8.4697,-4.953254 z"/>
  <path fill="#a7c0a0" d="m 118.68548,73.275296 8.69922,3.620997 6.9968,-0.293203 -0.85171,-2.781753 -7.09704,-0.943438 z"/>
  <path fill="#a7c0a0" d="m 102.61895,86.224567 -0.12043,2.274136 0.94662,1.997746 -2.79645,-1.18917 -1.601841,-0.42696 -8.30802,4.135443 c -3.822682,1.594405 -6.248803,3.328452 -7.416276,5.188353 h -1.088874 l 0.963332,-1.237713 1.854589,-1.820797 c 2.691319,-1.663537 5.4433,-2.907909 8.117715,-4.042157 l 3.116021,-1.893354 3.281403,-1.962057 c 0.819331,-0.317374 1.639131,-0.68119 2.455451,-0.6971 z"/>
  <path fill="#a7c0a0" d="m 99.187184,121.40575 -6.565688,6.68462 1.96977,5.23404 2.95412,-0.109 -0.111945,-4.13375 z"/>
  <path fill="#a7c0a0" d="m 116.61695,188.49853 5.50627,1.82481 3.80345,11.07851 -0.92695,21.00935 -1.416,-10.00522 -4.98236,3.16705 4.17458,-5.74952 1.20188,-5.79246 -6.37848,-0.0272 6.97013,-2.19972 -1.93285,-4.71399 z"/>
  <path fill="#a7c0a0" d="m 135.35522,191.35444 -1.78919,13.14664 2.25733,6.24083 -4.50811,7.15717 4.5616,3.83584 0.882,-14.82061 z"/>
</svg>
