<svg xmlns="http://www.w3.org/2000/svg" viewBox="23.4 84.5 171.7 85.9">
<path fill="currentColor" d="m 75.662249,162.15085 c 0.0016,-0.69258 0.752171,-1.79321 3.022735,-4.43177 1.127028,-1.30969 2.231422,-2.72981 2.454207,-3.15582 0.373044,-0.71334 0.367236,-0.80224 -0.07346,-1.12448 -0.263192,-0.19245 -0.686869,-0.34991 -0.941509,-0.34991 -0.254641,0 -0.528231,-0.10557 -0.607976,-0.2346 -0.207018,-0.33496 0.379487,-0.75426 1.713304,-1.22486 0.636342,-0.22451 1.242833,-0.54711 1.347761,-0.71689 0.306703,-0.49626 -0.272362,-1.27807 -1.248807,-1.68606 -0.945157,-0.39491 -1.242083,-1.1715 -0.441724,-1.1553 0.254661,0.005 0.760677,0.17953 1.124479,0.3875 1.075942,0.61507 1.578007,0.48422 1.997877,-0.52067 0.210853,-0.50465 0.383373,-1.13381 0.383373,-1.39813 0,-0.77741 -2.133036,-1.43018 -5.159375,-1.57891 -2.474061,-0.12159 -2.774664,-0.0789 -4.630209,0.6576 -2.998203,1.19005 -6.214502,1.89781 -12.351462,2.71798 -2.715178,0.36287 -3.378444,0.25396 -3.134477,-0.51471 0.198946,-0.62682 -0.230893,-0.72701 -4.163465,-0.97042 -1.566598,-0.097 -2.907149,-0.27142 -2.978999,-0.38767 -0.389903,-0.63088 3.852318,-1.24866 10.528293,-1.53321 4.972952,-0.21195 6.144109,-0.4664 4.989904,-1.08411 -0.30384,-0.16261 -1.929106,-0.4762 -3.611703,-0.69687 -3.623048,-0.47514 -4.431771,-0.73268 -4.30947,-1.37238 0.07678,-0.40159 0.519134,-0.47961 3.371337,-0.59454 2.038993,-0.0822 3.319415,-0.24244 3.379163,-0.42298 0.113038,-0.34157 -2.226755,-1.42258 -4.726551,-2.18372 -1.944354,-0.59202 -3.887351,-0.88229 -10.011321,-1.49563 -5.113218,-0.51211 -8.288004,-1.07506 -9.657697,-1.71249 l -1.057928,-0.49234 1.804045,-0.0214 c 2.245665,-0.0267 7.966023,-1.2621 18.521557,-4.00016 8.340987,-2.16361 9.733116,-2.60476 10.548583,-3.34275 0.442992,-0.4009 0.431843,-0.4633 -0.221485,-1.23973 -0.629245,-0.74782 -0.674732,-0.95917 -0.533037,-2.47657 0.131064,-1.40353 0.05936,-1.85274 -0.465707,-2.91736 -0.341344,-0.69211 -0.765942,-1.73464 -0.943546,-2.31672 -0.177607,-0.58208 -0.682414,-1.9513 -1.121791,-3.04271 -0.439381,-1.09141 -1.095301,-2.87734 -1.457601,-3.96875 -0.798216,-2.40457 -1.312661,-3.7991 -1.854501,-5.02708 -0.224738,-0.50933 -0.466141,-1.84878 -0.536454,-2.97657 l -0.127844,-2.05052 h -2.566739 c -3.122356,0 -5.366994,0.58104 -17.341313,4.48889 -13.399662,4.37301 -14.284853,4.61752 -12.94527,3.57584 0.893001,-0.69441 7.815959,-3.99709 10.696311,-5.1028 11.332967,-4.3505 34.448686,-10.012107 47.374462,-11.603187 5.55118,-0.68331 19.230071,-0.68966 22.567481,-0.0105 4.34898,0.88505 6.58879,2.04462 6.58879,3.41109 0,0.37559 -0.48192,1.73815 -1.07093,3.02792 -0.99548,2.179797 -1.24725,3.236737 -1.15034,4.829167 0.037,0.60802 0.0963,0.62618 1.55981,0.47723 0.83675,-0.0852 3.1287,-0.39441 5.09323,-0.68722 12.90626,-1.92367 24.13354,-2.27492 26.94063,-0.84285 1.35371,0.69061 2.69271,1.82849 2.69271,2.28826 0,0.20087 -0.62508,0.76569 -1.38907,1.25516 -0.76398,0.48946 -1.85477,1.47539 -2.42397,2.19094 -0.56919,0.71555 -1.6252,1.91446 -2.34669,2.66423 -0.72148,0.74977 -1.23101,1.49391 -1.13229,1.65364 0.0987,0.15974 0.80545,0.29043 1.5705,0.29043 1.77684,0 4.076,0.40829 6.21589,1.10383 2.23941,0.72788 3.35188,1.89512 4.52927,4.75222 0.50174,1.21756 1.21232,2.74952 1.57907,3.40437 0.36674,0.65484 0.84687,1.54509 1.06694,1.97833 0.42992,0.84634 3.25066,2.88417 13.92524,10.06021 7.47841,5.0274 10.16095,6.96194 11.67646,8.42059 1.24455,1.19786 1.36992,1.50128 0.62032,1.50128 -0.27729,0 -6.77344,-3.11619 -14.43589,-6.92488 -15.77686,-7.84201 -15.28965,-7.67245 -18.52974,-6.44873 -2.29227,0.86574 -6.24686,2.9762 -8.8223,4.70823 -1.06873,0.71873 -3.50951,2.16097 -5.42396,3.20497 -4.82153,2.62931 -16.8436,8.44805 -19.11895,9.25366 -4.36043,1.54386 -12.43507,1.63608 -17.96396,0.20517 -2.928521,-0.75792 -3.638291,-0.83522 -9.142741,-0.99566 l -5.96774,-0.17395 -0.43806,1.16528 c -0.24093,0.64091 -0.67342,2.25682 -0.96109,3.59091 -0.63794,2.95857 -1.14736,3.99421 -2.976183,6.05057 -0.778949,0.87586 -1.847278,2.1139 -2.374064,2.75121 -1.067268,1.29118 -1.640829,1.31772 -2.104808,0.0974 l -0.276532,-0.72734 -1.031795,1.11743 c -1.106184,1.19799 -1.582791,1.39524 -1.581209,0.65441 z" />
</svg>
