<svg xmlns="http://www.w3.org/2000/svg" viewBox="37.0 58.0 131.5 148.7">
<path fill="currentColor" d="m 134.60468,199.60312 c -0.17951,-0.17951 -1.1841,-0.31832 -2.39357,-0.33073 -1.42566,-0.0146 -2.23341,-0.14521 -2.55638,-0.41329 -0.55486,-0.46057 -2.62005,-3.54647 -3.41802,-5.10737 -1.03131,-2.01738 -1.54016,-1.43574 -1.59258,1.82042 -0.0279,1.73495 -0.0901,1.93005 -0.82006,2.57133 -0.43441,0.38166 -0.87913,0.6977 -0.98827,0.70229 -0.32057,0.0135 -0.23228,-1.24087 0.32531,-4.62184 0.28799,-1.74625 0.52608,-3.59331 0.5291,-4.10458 0.0132,-2.24114 -3.73376,-6.23956 -12.33286,-13.16041 -2.96008,-2.38237 -4.59499,-4.12604 -4.59499,-4.90067 0,-0.27877 0.19508,-0.83711 0.43352,-1.24075 0.39918,-0.67576 0.39998,-0.8323 0.0101,-1.97652 -0.23288,-0.68345 -0.3605,-1.62172 -0.28362,-2.08506 0.20437,-1.23151 -0.30461,-0.31732 -0.56212,1.00966 -0.18868,0.9723 -0.22084,1.00456 -0.39555,0.39687 -0.18628,-0.6479 -0.19911,-0.64112 -0.62585,0.33073 -0.55116,1.25519 -0.76899,1.26859 -0.5372,0.033 0.15964,-0.8509 0.12914,-0.93071 -0.27019,-0.70724 -0.24757,0.13855 -0.69137,0.59993 -0.98623,1.02529 l -0.53611,0.77339 0.15747,-1.29836 c 0.15592,-1.28564 0.15228,-1.29366 -0.37234,-0.81888 -0.40927,0.37038 -0.53472,0.39489 -0.55139,0.10773 -0.0119,-0.20446 -0.1908,0.0152 -0.39763,0.48815 -0.55471,1.26844 -0.72344,1.05165 -0.51483,-0.66145 l 0.18525,-1.52136 -1.11968,1.05834 c -1.12213,1.06063 -1.15412,0.95125 -0.15479,-0.52917 l 0.53581,-0.79375 -0.62835,0.52917 -0.62834,0.52916 0.57832,-0.95727 c 0.70085,-1.16007 0.73766,-1.59777 0.1153,-1.37081 -0.41567,0.15159 -0.41148,0.11016 0.041,-0.40518 0.57343,-0.65307 0.25082,-0.76829 -0.5196,-0.18557 -0.95045,0.71889 -1.0218,0.41306 -0.12056,-0.51679 0.49154,-0.50714 0.82911,-0.98668 0.75016,-1.06563 -0.079,-0.079 -1.01996,0.27645 -2.09112,0.78978 -1.071159,0.51334 -2.132501,0.93335 -2.358539,0.93335 -0.226037,0 -1.896272,0.36688 -3.711631,0.81529 -2.363034,0.5837 -4.291947,0.86854 -6.790254,1.00273 -3.934166,0.21131 -4.376303,0.41096 -4.856088,2.19274 -0.390777,1.45123 -0.618779,1.25505 -0.433203,-0.37274 l 0.158359,-1.38906 -0.782963,0.86407 c -0.721889,0.79666 -0.782963,0.8186 -0.782963,0.28122 0,-0.56126 -0.02939,-0.55468 -0.79375,0.17762 -0.730361,0.69973 -0.795234,0.9097 -0.812348,2.62919 -0.0213,2.14004 -0.348821,1.76923 -0.659362,-0.7465 l -0.192183,-1.5569 -0.485087,0.63086 c -0.617855,0.80352 -0.614238,1.30008 0.03055,4.19479 0.682707,3.06496 1.509458,5.23082 3.266234,8.55665 1.380188,2.61289 3.046179,6.80719 3.620791,9.1157 0.423439,1.70117 1.616443,2.89414 3.395435,3.39533 0.821296,0.23139 2.519429,0.76682 3.773628,1.18985 2.053288,0.69257 2.622428,0.76916 5.715558,0.76916 3.125706,0 3.514356,0.0536 4.313826,0.59531 1.06865,0.72406 1.39253,1.4006 0.54115,1.13038 -0.31524,-0.10005 -0.71628,-0.0669 -0.8912,0.0736 -0.76886,0.61777 -3.143208,0.77714 -8.652404,0.58075 -3.886055,-0.13852 -6.023854,-0.3256 -6.746762,-0.59041 -0.755134,-0.27661 -1.306983,-0.31894 -1.926772,-0.14781 -0.477706,0.1319 -1.369698,0.2034 -1.982206,0.15888 -0.878364,-0.0638 -1.129842,-0.19275 -1.190268,-0.61011 -0.142721,-0.98575 -1.444447,-4.89479 -1.629987,-4.89479 -0.247284,0 -0.962832,1.52785 -1.181221,2.52217 -0.169371,0.77115 -1.429838,2.50491 -1.821096,2.50491 -0.460856,0 -0.109831,-1.92112 0.885333,-4.84531 0.835441,-2.45487 1.038146,-3.38377 0.907349,-4.15795 -0.281792,-1.6679 -2.88222,-7.75336 -4.728993,-11.06666 -2.101257,-3.76987 -2.845925,-5.39336 -4.142279,-9.03079 -0.819943,-2.30067 -1.095737,-2.80021 -1.614424,-2.92415 -0.589461,-0.14086 -0.596695,-0.16576 -0.125382,-0.43163 0.701312,-0.39563 0.295674,-0.88101 -0.736269,-0.88101 -1.02878,0 -1.320824,-0.22009 -0.92496,-0.69708 0.237001,-0.28557 -0.111578,-0.32684 -1.920525,-0.2274 -1.541232,0.0847 -1.945783,0.0521 -1.336758,-0.1078 1.179111,-0.30958 1.366157,-0.55431 0.427545,-0.5594 -0.424436,-0.002 -2.170725,-0.12012 -3.880642,-0.2618 -1.709918,-0.14169 -3.943498,-0.28004 -4.963511,-0.30744 -1.718724,-0.0462 -1.91515,0.007 -2.68162,0.72483 l -0.82705,0.77464 0.167037,-0.70303 c 0.09187,-0.38666 0.247598,-0.92244 0.346063,-1.19062 0.09846,-0.26818 -0.850734,0.49466 -2.109331,1.69521 -1.258598,1.20054 -2.391368,2.18281 -2.517269,2.18281 -0.345329,0 -0.841977,-1.89361 -0.840773,-3.2057 0.0014,-1.48717 0.684011,-5.76194 1.220401,-7.64222 0.228321,-0.80036 0.999396,-2.96951 1.713499,-4.82033 0.714103,-1.85081 1.298369,-3.68879 1.298369,-4.08439 v -0.71928 l -0.79375,0.76046 c -2.06198,1.97551 0.331871,-2.57012 3.297085,-6.26075 1.208616,-1.50429 4.547386,-5.17369 7.41949,-8.15422 2.872103,-2.98053 5.687164,-6.10412 6.25569,-6.94131 0.633542,-0.93294 1.814346,-2.11264 3.050361,-3.04753 1.109172,-0.83894 3.548496,-2.7472 5.420719,-4.24058 5.14925,-4.10727 5.441884,-4.28941 12.672098,-7.88709 8.228404,-4.09436 14.544563,-6.82121 20.484713,-8.843775 7.39476,-2.51784 8.39293,-2.96704 10.84123,-4.87881 2.72456,-2.12749 4.33781,-3.94115 6.14111,-6.90401 1.49267,-2.45249 2.08286,-3.90701 3.87918,-9.56023 0.73434,-2.31107 1.56196,-4.327758 2.15919,-5.26137 0.59819,-0.935133 0.80919,-1.449611 0.5519,-1.345752 -1.38173,0.557767 -1.36206,0.555784 -0.99149,0.09992 0.19308,-0.237535 0.94542,-0.81328 1.67186,-1.279435 0.72644,-0.466154 1.19574,-0.924847 1.04288,-1.019317 -0.29893,-0.18475 1.96792,-1.531321 4.71661,-2.801784 l 1.69699,-0.784367 -1.03554,-0.142167 c -1.01311,-0.139088 -0.99257,-0.152618 0.94884,-0.624845 4.31298,-1.049087 10.05253,-0.708636 12.96907,0.769283 0.71546,0.362553 1.46823,0.659188 1.67281,0.659188 0.70805,0 2.46978,2.280896 3.74284,4.845831 1.05241,2.120365 1.4574,2.676429 2.29016,3.144467 1.10834,0.622923 1.93818,1.745468 2.80504,3.794458 0.53311,1.26009 1.08448,4.09024 0.79687,4.09024 -0.0732,0 -0.65617,-0.29237 -1.29553,-0.64972 -1.08902,-0.60866 -1.30131,-0.63572 -3.35956,-0.42823 -1.89222,0.19076 -2.30594,0.32578 -2.98161,0.97312 -0.43149,0.41339 -0.85313,1.02495 -0.93697,1.35901 -0.0839,0.33406 -0.2948,0.57548 -0.46878,0.5365 -0.17398,-0.039 -0.70865,0.3756 -1.18816,0.9213 -0.47951,0.5457 -0.99487,0.99219 -1.14524,0.99219 -0.45082,0 -4.09555,3.38946 -4.70486,4.37533 -1.01016,1.63447 -1.38958,4.75298 -1.14161,9.383005 0.44286,8.26884 0.0281,12.33247 -1.83584,17.98753 -1.2642,3.83545 -4.37606,10.23059 -7.04741,14.48308 -1.026,1.63326 -2.89428,5.02655 -4.15175,7.54062 -1.25747,2.51408 -2.85263,5.52356 -3.54479,6.68772 -0.69216,1.16417 -1.57959,2.68906 -1.97205,3.38864 -0.42096,0.75036 -1.46267,1.88393 -2.54028,2.76429 -2.3359,1.90831 -2.73283,2.72463 -2.73317,5.62103 -1.4e-4,1.23693 0.0844,2.60615 0.18794,3.04271 l 0.18821,0.79375 -0.66621,-0.74236 -0.6662,-0.74236 -0.004,1.6684 c -0.003,1.24119 -0.0752,1.56678 -0.2817,1.27153 -0.20271,-0.28976 -0.25062,0.0495 -0.17751,1.25677 0.0551,0.9095 0.0652,1.65364 0.0225,1.65364 -0.0427,0 -0.33774,-0.50601 -0.65563,-1.12448 l -0.57798,-1.12447 -0.22183,0.79375 c -0.12201,0.43656 -0.14915,1.32953 -0.0603,1.98437 0.1518,1.11898 0.13643,1.15879 -0.25548,0.66146 -0.49326,-0.62594 -0.48196,-0.68397 -0.48929,2.51354 -0.003,1.38245 -0.0515,2.09682 -0.10729,1.5875 -0.0558,-0.50932 -0.16989,-1.55273 -0.25345,-2.31868 -0.17578,-1.6112 -0.64213,-1.61091 -0.64213,5.3e-4 0,0.59955 -0.1303,1.45572 -0.28956,1.90262 l -0.28956,0.81253 6.71827,6.74688 c 6.56811,6.59607 8.49039,8.80536 10.03391,11.53203 0.92415,1.63255 3.13639,3.25313 4.88735,3.58025 1.30315,0.24345 3.08275,-0.0426 4.35346,-0.69967 1.32372,-0.68452 3.69284,-0.31536 4.21295,0.65647 0.22238,0.41552 0.12122,0.44925 -1.01866,0.33973 -1.09047,-0.10478 -1.36867,-0.026 -2.01091,0.56916 -0.40994,0.3798 -0.90656,0.69065 -1.10359,0.69065 -0.19704,0 -0.35824,0.1021 -0.35824,0.22689 0,0.24869 2.52783,0.56686 4.50365,0.56686 1.97261,0 2.81586,0.2626 3.88929,1.21117 1.02006,0.9014 0.91584,1.11198 -0.31814,0.64282 -0.51781,-0.19686 -0.84142,-0.16406 -1.29171,0.13098 -0.51541,0.33771 -1.33155,0.35676 -5.74247,0.13398 -7.51703,-0.37964 -7.16355,-0.39997 -6.86146,0.39459 0.27562,0.72492 -0.15359,0.9312 -0.73268,0.35211 z" />
</svg>
