<svg xmlns="http://www.w3.org/2000/svg" viewBox="10.2 52.1 184.9 159.6">
<path fill="currentColor" d="m 116.78971,203.01127 c -2.28073,-0.1208 -4.71647,-0.41022 -5.41274,-0.64313 -0.69627,-0.23292 -1.59025,-0.33868 -1.98661,-0.23503 -0.39636,0.10365 -1.27801,0.0215 -1.95922,-0.18263 -0.96805,-0.29004 -1.31835,-0.61282 -1.60384,-1.47785 -0.49132,-1.48872 -0.79403,-1.6039 -1.737,-0.66093 -0.5787,0.5787 -1.04271,0.75301 -1.68014,0.63115 -1.0054,-0.19219 -1.04935,-0.33764 -0.37247,-1.23256 0.74109,-0.97981 0.63257,-1.08601 -1.36492,-1.33558 -1.87144,-0.23382 -5.230479,-1.25353 -5.907869,-1.79347 -0.20232,-0.16126 -1.382195,-0.39857 -2.621946,-0.52736 l -2.254092,-0.23416 0.04871,-2.54301 c 0.04403,-2.29838 -0.653577,-8.93671 -1.201099,-11.42956 l -0.216761,-0.9869 -2.037481,0.23574 c -1.120615,0.12966 -3.082472,0.29435 -4.359683,0.36597 -4.452443,0.24969 -6.262653,0.53102 -7.50948,1.16711 -0.690407,0.35222 -1.574559,0.6404 -1.964786,0.6404 -0.390226,0 -1.179917,0.2108 -1.754868,0.46845 -1.273911,0.57088 -3.462401,1.027 -4.362799,0.90929 -0.364917,-0.0477 -1.234718,0.0983 -1.932889,0.32446 -1.031986,0.33429 -1.319847,0.32958 -1.539102,-0.0252 -0.19629,-0.3176 -0.691658,-0.37311 -1.819934,-0.20391 -1.06048,0.15903 -1.708554,0.10107 -2.051381,-0.18345 -0.287322,-0.23845 -1.729347,-0.46586 -3.37966,-0.53296 -2.816985,-0.11454 -5.130646,-0.57419 -5.935525,-1.17919 -0.441849,-0.33212 -3.627561,1.29726 -5.070691,2.59348 -0.475638,0.42722 -2.032006,1.05768 -3.649176,1.47821 -4.897384,1.27355 -5.867017,1.42761 -6.86261,1.09038 -0.546374,-0.18507 -2.102491,-0.21097 -3.753174,-0.0625 -1.66861,0.15011 -2.948481,0.1275 -3.134973,-0.0554 -0.173336,-0.16998 -0.58912,-0.30906 -0.923966,-0.30906 -0.334845,0 -0.94748,-0.22191 -1.361411,-0.49313 -0.575196,-0.37688 -1.016912,-0.41732 -1.87388,-0.17154 -0.616703,0.17687 -1.149501,0.28681 -1.183996,0.24432 -0.03449,-0.0425 -0.308308,-0.56021 -0.608474,-1.15047 -0.398763,-0.78415 -0.745193,-1.0522 -1.286227,-0.99523 -0.576142,0.0607 -0.762759,-0.11404 -0.840899,-0.78724 -0.08315,-0.71639 0.273497,-1.1686 2.073395,-2.62894 1.195603,-0.97004 2.16895,-1.84961 2.162993,-1.9546 -0.006,-0.10498 -0.299651,-1.01195 -0.652656,-2.01547 -1.221905,-3.47364 -0.759764,-5.59182 1.499141,-6.87119 1.853975,-1.05003 2.482519,-0.98229 1.423277,0.15339 -1.85113,1.98472 -2.093812,3.75241 -0.736597,5.36537 1.150802,1.36765 1.997041,1.28622 3.667174,-0.35289 1.315802,-1.29136 1.370522,-1.41792 0.914191,-2.11438 -0.784565,-1.19739 -0.895551,-3.79488 -0.219093,-5.12758 0.646881,-1.27443 2.762424,-2.64977 4.08897,-2.65828 0.614656,-0.004 1.153003,-0.409 1.94056,-1.4601 0.599457,-0.80006 1.448266,-1.61792 1.886244,-1.81748 1.442825,-0.65739 0.872939,-1.04054 -1.54769,-1.04054 -2.596881,0 -3.02781,0.1662 -5.513942,2.12652 -3.23111,2.54775 -7.01806,5.0031 -7.292744,4.72842 -0.234331,-0.23433 1.514717,-1.8075 4.907766,-4.41425 4.940635,-3.7957 5.888486,-4.60097 5.801419,-4.92876 -0.04846,-0.18246 -0.524474,-0.37537 -1.057799,-0.42869 -1.005474,-0.10053 -7.114344,0.84191 -11.378747,1.75543 -1.345975,0.28834 -2.528035,0.44344 -2.6268,0.34468 -0.09877,-0.0988 0.0041,-0.51524 0.228565,-0.9255 0.835881,-1.52768 7.096503,-4.69578 12.641429,-6.39701 2.426021,-0.74433 5.228063,-1.69676 8.459453,-2.87541 1.45967,-0.53242 3.400368,-1.19531 4.312662,-1.4731 2.900928,-0.88332 5.543111,-2.59287 13.898658,-8.99273 4.543463,-3.48003 8.229223,-6.29269 10.318599,-7.87429 1.277211,-0.96681 3.239008,-2.55763 4.35955,-3.53516 1.12054,-0.97752 3.359806,-2.66606 4.976149,-3.75231 1.616339,-1.08625 3.722657,-2.68017 4.680708,-3.54204 0.958048,-0.86188 2.525535,-2.03357 3.483304,-2.60376 5.900674,-3.51287 7.494369,-4.38575 9.397838,-5.14726 1.167319,-0.467 2.982495,-0.92877 4.033715,-1.02617 1.05123,-0.0974 2.58309,-0.38701 3.40416,-0.6436 2.94398,-0.92 17.78098,-2.80904 22.07004,-2.80995 2.79187,-6.6e-4 3.80593,-0.54047 3.80593,-2.02623 0,-0.5461 -0.23473,-1.44681 -0.52162,-2.0016 -0.28689,-0.55478 -0.43331,-1.2388 -0.32539,-1.52005 0.10792,-0.28124 -0.25095,-1.42927 -0.7975,-2.55117 -0.80363,-1.649603 -1.05617,-2.735963 -1.32013,-5.678883 -0.17951,-2.00149 -0.48603,-5.13192 -0.68114,-6.95651 -0.41119,-3.84513 -0.21274,-6.342055 0.6757,-8.501958 0.34735,-0.844443 0.70537,-2.038719 0.7956,-2.653946 0.32194,-2.195006 0.76607,-3.474356 2.04194,-5.881948 1.14573,-2.162032 1.70293,-2.768928 4.87323,-5.307892 3.00202,-2.404193 4.01688,-3.014033 6.28979,-3.779599 4.47233,-1.506381 7.4368,-1.791447 11.53303,-1.109026 5.67334,0.945161 8.43617,2.246694 10.76916,5.073211 1.76444,2.137684 4.15076,6.495199 4.15914,7.594745 0.0181,2.37587 2.99254,6.642463 6.88639,9.878019 2.4771,2.058324 3.92074,3.065574 9.03246,6.302084 3.79125,2.40045 4.74261,3.39277 4.58276,4.78006 -0.1038,0.90095 -0.11359,0.90416 -2.42643,0.79534 -4.39391,-0.20674 -6.33217,-0.62389 -8.84212,-1.903 -4.61312,-2.35093 -5.43368,-2.70851 -9.07201,-3.9534 -2.00705,-0.68673 -4.22607,-1.54051 -4.93116,-1.8973 -1.17031,-0.59218 -1.5255,-0.61628 -4.07761,-0.27666 -2.44303,0.3251 -7.44392,1.80743 -9.15417,2.71341 -0.77306,0.40951 -0.73536,1.36824 0.0829,2.10878 0.36492,0.33024 0.66349,0.78407 0.66349,1.00849 0,0.22443 0.41053,0.67312 0.91229,0.9971 0.50176,0.32398 2.15548,1.79667 3.67494,3.27265 2.22251,2.15892 3.11401,3.338413 4.55985,6.032903 0.98847,1.84212 2.33901,4.97709 3.00119,6.96661 1.19898,3.60232 1.20311,3.63454 0.99894,7.77974 -0.23621,4.79559 -0.6954,6.58627 -2.76481,10.78167 -1.77581,3.60018 -5.15085,7.9634 -11.02731,14.25603 -1.1962,1.28092 -3.21525,3.66947 -4.48678,5.30789 -2.63856,3.39991 -8.36419,9.38563 -10.62406,11.10667 -0.83855,0.6386 -2.30168,1.80534 -3.25141,2.59276 -0.94974,0.78741 -3.21964,2.41175 -5.04423,3.60965 -1.82458,1.19789 -3.69064,2.42895 -4.14679,2.73569 -1.35003,0.90784 -4.58653,2.70613 -8.07786,4.48828 -2.99071,1.5266 -3.34208,1.80848 -4.14679,3.32665 -0.48356,0.9123 -1.09722,1.82897 -1.36369,2.03705 -0.41077,0.32078 -0.41778,0.52269 -0.0461,1.32698 0.24114,0.52175 0.56156,2.36684 0.71206,4.10019 0.1505,1.73336 0.65865,4.3721 1.12922,5.86386 0.96805,3.06881 0.7674,2.99973 4.27261,1.47074 1.90291,-0.83007 2.61099,-0.70405 4.37201,0.77812 1.44236,1.21396 1.43688,1.4497 -0.0376,1.62139 -1.11118,0.12937 -2.16769,0.6352 -2.72215,1.30328 -0.30389,0.36616 -0.13925,0.57262 0.82229,1.03115 0.66124,0.31532 1.96413,0.75191 2.89532,0.97019 2.22721,0.52209 9.02412,0.49687 9.55644,-0.0354 0.8966,-0.8966 3.91351,-0.13866 3.91351,0.98319 0,0.42248 -0.24425,0.61024 -0.79386,0.61024 -0.43663,0 -0.87814,0.21961 -0.98114,0.48801 -0.2058,0.53633 0.58899,1.50245 1.23601,1.50245 0.48821,0 2.72423,2.23801 2.48001,2.48222 -0.0935,0.0935 -0.98992,0.0184 -1.99208,-0.16687 -1.44501,-0.26713 -2.11752,-0.23262 -3.24944,0.16675 -1.51735,0.53535 -4.3949,0.57801 -11.95969,0.17731 z m -16.08967,-12.47768 c 1.33379,-0.6331 2.61005,-1.37397 2.83614,-1.64638 0.33278,-0.40099 0.21246,-1.18453 -0.63193,-4.11498 -0.57364,-1.99083 -1.04298,-4.29206 -1.04298,-5.11385 0,-0.82179 -0.12279,-1.57005 -0.27287,-1.66281 -0.15008,-0.0927 -1.30698,0.0477 -2.57089,0.31217 -1.2639,0.26444 -2.632932,0.48081 -3.042284,0.48081 -0.409347,0 -1.342578,0.2592 -2.073843,0.57601 -1.270533,0.55044 -1.320076,0.62777 -1.115738,1.74165 0.117609,0.6411 0.866848,3.07896 1.664969,5.41745 0.798125,2.3385 1.365014,4.39116 1.259755,4.56147 -0.105255,0.17031 -0.09083,0.47235 0.03205,0.6712 0.336311,0.54416 2.207391,0.0827 4.957611,-1.22274 z M 33.657349,171.19236 c 0.807205,-0.89195 0.603849,-3.28176 -0.331839,-3.89972 -0.613384,-0.4051 -0.801227,-0.37439 -1.61237,0.26366 -0.79597,0.62611 -0.895138,0.8934 -0.745464,2.00931 0.293652,2.18934 1.51308,2.92687 2.689673,1.62675 z" />
</svg>
