<svg xmlns="http://www.w3.org/2000/svg" viewBox="0 0 293.28 346.801">
<g fill="currentColor">
  <path d="m 114,0 c -0.559,0.958 -2.222,3.928 -2.64,5.76 -0.987,4.326 0.573,8.666 0.96,13.44 0.235,2.907 0.175,8.195 -0.48,11.04 -2.064,8.963 -7.883,15.413 -12.96,21.36 -0.982,1.149 -1.774,2.571 -2.88,2.64 -2.274,0.142 -4.993,-4.938 -6,-6.48 -1.89,-2.895 -2.741,-5.643 -5.04,-7.44 0.017,7.167 6.294,12.186 6.96,19.68 0.209,2.356 0.331,5.89 -0.479,8.16 -0.947,2.653 -4.279,4.648 -6.72,6.24 -2.775,1.81 -4.971,4.061 -8.88,4.08 -1.465,-1.621 -2.449,-4.115 -3.12,-6.72 -0.681,-2.644 -0.426,-5.65 -1.68,-7.92 -2.454,4.953 1.569,11.464 0,16.08 -0.596,1.754 -4.752,4.636 -7.2,4.56 -1.069,-0.033 -1.972,-0.854 -3.36,-1.68 -3.021,-1.797 -4.5,-2.741 -7.44,-5.04 -3.455,-2.702 -8.793,-7.711 -10.32,-11.52 -0.99,-2.471 -0.397,-5.972 -1.68,-7.68 -1.556,3.458 -0.815,8.693 0.48,12 1.061,2.708 3.152,5.654 5.04,7.92 3.679,4.415 9.195,7.466 14.4,9.36 -1.052,1.353 -2.639,2.904 -4.08,4.32 -1.553,1.525 -3.474,1.173 -6.48,1.68 -5.626,0.949 -11.786,4.864 -18.24,6.48 -4.823,1.207 -9.925,1.091 -14.4,2.4 -2.435,0.712 -4.733,2.114 -7.2,2.88 -4.258,1.323 -8.727,1.169 -10.56,4.8 C 0,73.601 0,36.799 0,0 38,0 76.001,0 114,0 z" />
  <path d="m 114,0 c 0.24,0 0.48,0 0.72,0 0.385,4.023 -1.275,7.659 -0.24,12 0.295,1.238 1.254,2.197 1.92,3.6 0.704,1.483 0.749,3.105 2.16,3.36 1.91,0.345 4.9,-2.442 6.72,-3.6 1.824,-1.16 4.922,-2.691 5.76,-4.32 0.945,-1.837 0.662,-4.775 1.44,-6.72 1.88,1.648 1.643,6.137 0.96,7.92 -0.737,1.922 -3.155,3.976 -5.04,5.52 -1.987,1.627 -4.614,2.797 -6,4.56 -1.86,2.366 -2.936,6.275 -4.08,9.6 -1.153,3.35 -2.492,6.735 -4.08,9.6 -2.539,4.58 -6.434,9.492 -10.08,14.16 -2.002,2.564 -3.533,4.763 -4.56,7.68 -1.015,2.883 -1.793,6.159 -3.36,8.64 -2.325,3.682 -6.952,7.174 -10.8,9.36 -2.136,1.213 -4.369,2.39 -6.72,3.36 -5.012,2.068 -10.333,3.009 -12.72,8.16 1.541,-0.261 1.203,1.357 2.4,1.44 1.754,-0.778 1.826,-2.96 2.88,-4.32 1.649,-2.13 3.652,-3.944 7.44,-3.84 0.784,2.274 1.267,4.088 1.2,6.24 -0.053,1.688 -0.899,3.254 -0.72,5.04 0.176,1.751 1.616,4.032 2.4,6.24 2.209,6.222 4.295,13.562 7.68,18.24 3.592,4.964 8.421,8.644 13.68,12.24 2.844,1.944 4.148,3.923 8.16,4.32 3.019,0.298 6.146,-0.299 9.12,-0.24 2.82,0.056 5.588,0.205 8.4,0.72 4.859,0.889 9.571,3.012 14.64,3.6 10.888,1.263 21.965,2.88 33.84,2.88 11.828,0 23.675,-0.976 35.28,-1.44 5.876,-0.235 11.961,-0.397 17.76,-0.72 6.47,-0.361 13.105,-1.826 18.96,-0.72 4.174,0.789 8.209,2.583 12.24,4.08 7.795,2.894 15.1,5.642 22.08,10.08 5.797,3.686 9.633,7.159 9.84,15.6 0,2.64 0,5.28 0,7.92 -1.093,3.547 -2.695,6.585 -6,7.92 -3.845,9.877 -8.282,17.256 -12,27.12 -1.205,3.199 -2.608,6.348 -2.88,10.08 -0.98,13.469 4.299,21.086 8.88,29.76 2.521,4.772 5.363,9.966 6,16.801 0.515,5.526 -0.444,10.972 -0.96,16.319 -0.984,10.217 -2.228,21.64 -1.439,32.641 0.183,2.557 0.604,5.273 0.72,7.92 0.105,2.389 0.571,5.323 -1.44,7.2 -1.353,0.659 -2.526,-0.211 -3.84,0.239 -3.671,1.26 -2.554,7.309 -6.24,9.12 -2.892,1.422 -5.251,0.088 -9.119,1.44 -1.28,0 -2.561,0 -3.841,0 0.871,-3.734 4.179,-5.763 6.24,-9.36 1.276,-2.228 2.024,-4.369 3.12,-7.2 2.569,-6.636 4.183,-18.825 3.12,-28.8 -1.358,-12.755 -2.432,-24.617 -10.8,-29.76 -0.989,11.21 -6.724,19.524 -11.04,28.32 -2.109,4.297 -4.234,8.785 -6.24,13.439 -1.979,4.593 -4.274,9.247 -5.04,14.4 -0.426,2.862 0.44,5.21 -1.68,6.96 -1.769,0.638 -2.925,-0.385 -4.32,0 -3.143,0.865 -3.786,7.592 -6.96,8.64 -1.556,0.514 -4.077,0.149 -6.24,0.24 -2.171,0.092 -4.541,0.06 -6.72,-0.24 0.708,-2.615 2.773,-3.735 4.32,-5.279 3.021,-3.019 5.293,-7.481 7.68,-12.001 4.356,-8.248 9.276,-16.771 12,-26.88 1.437,-5.331 3.214,-10.829 3.6,-15.84 0.62,-8.05 -2.455,-12.204 -5.04,-17.76 -4.665,-10.028 -7.34,-22.129 -11.52,-33.12 -4.483,1.638 -9.323,3.576 -14.641,5.04 -1.736,0.479 -3.668,1.209 -5.279,1.2 -2.157,-0.013 -4.251,-1.693 -6.48,-1.92 -3.146,-0.32 -7.077,0.604 -10.8,0.96 -10.34,0.988 -21.73,1.667 -33.12,1.92 -1.608,5.43 -1.983,10.694 -3.6,16.319 -0.683,2.373 -1.902,4.599 -2.641,7.2 -0.684,2.413 -1.554,5.188 -1.92,7.92 -0.643,4.805 -0.394,9.724 -0.96,14.641 -0.56,4.861 -0.502,9.714 -0.72,14.88 -0.232,5.511 -1.73,10.126 -2.4,15.84 -0.278,2.371 -0.386,5.844 -0.48,8.64 -0.105,3.142 0.073,6.842 -0.72,8.4 -0.752,1.479 -2.76,1.298 -3.84,2.64 -0.811,1.008 -0.875,3.072 -1.68,3.601 -1.153,0.756 -3.355,0.479 -5.28,0.479 -1.906,0 -4.106,0.373 -5.04,-0.72 -0.146,-1.997 1.455,-3.457 2.4,-5.04 2.433,-4.072 4.639,-10.214 5.04,-16.56 0.283,-4.484 0.266,-9.481 0.24,-14.4 -0.024,-4.565 0.1,-9.474 -0.48,-13.92 -0.377,-2.898 -1.283,-5.875 -1.92,-8.88 -1.799,-8.493 -3.125,-18.368 -6,-25.681 -4.359,10.553 -3.889,22.197 -6.48,33.601 -1.316,5.793 -2.573,11.217 -3.12,17.04 -0.865,9.203 0.754,21.635 -2.64,28.8 -2.027,0.87 -3.694,0.337 -5.28,0.96 -1.116,0.438 -2.607,1.847 -3.6,2.88 -1.63,1.697 -2.086,3.986 -3.84,4.561 -1.281,0.419 -3.511,-0.109 -6,0 -2.407,0.105 -4.549,0.699 -5.04,-0.96 -0.633,-2.136 3.553,-4.689 4.32,-5.521 7.374,-7.99 11.085,-23.036 10.08,-38.64 -0.395,-6.129 -1.902,-11.783 -1.44,-18 0.246,-3.306 0.654,-6.737 0.48,-10.561 -0.174,-3.826 0.233,-7.631 0.24,-11.279 0.006,-3.327 -0.148,-7.745 -0.96,-10.32 -0.964,-3.059 -5.456,-5.731 -7.68,-8.4 -3.141,-3.769 -5.154,-10.217 -8.4,-14.64 -1.345,-1.833 -2.424,-4.456 -3.6,-6.96 -0.832,-1.771 -1.581,-3.619 -2.4,-5.04 -0.884,-1.533 -2.932,-3.48 -4.56,-5.521 -2.423,-3.035 -4.445,-6.667 -7.44,-8.16 -1.568,-0.781 -3.203,-0.849 -4.56,-1.68 -7.466,-4.569 -11.438,-13.642 -14.88,-22.08 -0.941,-2.306 -1.979,-4.417 -2.64,-6.72 -1.385,-4.83 -2.091,-9.93 -3.12,-15.12 -0.488,-2.46 -0.559,-5.445 -1.44,-7.68 -1.483,-3.762 -9.11,-8.019 -12.72,-11.04 -2.847,-2.382 -4.911,-3.987 -8.88,-5.76 -1.606,-0.718 -3.444,-1.603 -4.8,-1.92 -2.166,-0.507 -4.801,-0.519 -6.48,-0.96 -1.711,-0.45 -5.764,-1.982 -6.48,-3.6 -0.703,-1.588 -0.002,-3.311 -0.24,-5.04 -0.25,-1.814 -1.196,-3.022 -1.68,-4.8 0,-0.72 0,-1.44 0,-2.16 1.833,-3.631 6.302,-3.478 10.56,-4.8 2.467,-0.766 4.765,-2.168 7.2,-2.88 4.475,-1.309 9.577,-1.193 14.4,-2.4 6.454,-1.616 12.613,-5.531 18.24,-6.48 3.006,-0.507 4.927,-0.155 6.48,-1.68 1.441,-1.416 3.028,-2.967 4.08,-4.32 -5.205,-1.894 -10.721,-4.945 -14.4,-9.36 -1.888,-2.266 -3.979,-5.211 -5.04,-7.92 -1.295,-3.307 -2.036,-8.542 -0.48,-12 1.283,1.708 0.69,5.209 1.68,7.68 1.526,3.809 6.865,8.818 10.32,11.52 2.94,2.299 4.418,3.243 7.44,5.04 1.388,0.826 2.292,1.647 3.36,1.68 2.448,0.076 6.604,-2.806 7.2,-4.56 1.569,-4.616 -2.454,-11.126 0,-16.08 1.254,2.27 0.999,5.276 1.68,7.92 0.671,2.604 1.655,5.099 3.12,6.72 3.909,-0.019 6.105,-2.27 8.88,-4.08 2.441,-1.592 5.773,-3.587 6.72,-6.24 0.81,-2.271 0.689,-5.804 0.479,-8.16 -0.666,-7.494 -6.943,-12.513 -6.96,-19.68 2.299,1.797 3.15,4.545 5.04,7.44 1.007,1.542 3.726,6.622 6,6.48 1.106,-0.069 1.898,-1.491 2.88,-2.64 5.077,-5.947 10.896,-12.396 12.96,-21.36 0.655,-2.845 0.715,-8.133 0.48,-11.04 -0.387,-4.775 -1.947,-9.115 -0.96,-13.44 0.419,-1.83 2.082,-4.8 2.641,-5.758 z" />
  <path d="m 114.72,0 c 59.52,0 119.041,0 178.56,0 0,57.441 0,114.878 0,172.32 -0.207,-8.441 -4.043,-11.914 -9.84,-15.6 -6.98,-4.438 -14.285,-7.187 -22.08,-10.08 -4.031,-1.497 -8.066,-3.292 -12.24,-4.08 -5.854,-1.105 -12.49,0.359 -18.96,0.72 -5.799,0.323 -11.884,0.485 -17.76,0.72 -11.605,0.464 -23.452,1.44 -35.28,1.44 -11.875,0 -22.952,-1.617 -33.84,-2.88 -5.069,-0.588 -9.781,-2.71 -14.64,-3.6 -2.812,-0.515 -5.58,-0.665 -8.4,-0.72 -2.974,-0.059 -6.102,0.539 -9.12,0.24 -4.012,-0.397 -5.316,-2.376 -8.16,-4.32 -5.259,-3.596 -10.088,-7.275 -13.68,-12.24 -3.385,-4.679 -5.471,-12.018 -7.68,-18.24 -0.784,-2.208 -2.224,-4.489 -2.4,-6.24 -0.179,-1.786 0.667,-3.352 0.72,-5.04 0.067,-2.152 -0.416,-3.966 -1.2,-6.24 -3.788,-0.104 -5.791,1.71 -7.44,3.84 -1.054,1.36 -1.126,3.542 -2.88,4.32 -1.198,-0.083 -0.859,-1.701 -2.4,-1.44 2.387,-5.151 7.708,-6.092 12.72,-8.16 2.351,-0.97 4.584,-2.146 6.72,-3.36 3.849,-2.187 8.476,-5.679 10.8,-9.36 1.566,-2.481 2.345,-5.757 3.36,-8.64 1.027,-2.917 2.558,-5.116 4.56,-7.68 3.646,-4.668 7.542,-9.581 10.08,-14.16 1.588,-2.865 2.927,-6.25 4.08,-9.6 1.144,-3.325 2.22,-7.234 4.08,-9.6 1.386,-1.763 4.013,-2.933 6,-4.56 1.885,-1.544 4.303,-3.598 5.04,-5.52 0.683,-1.783 0.92,-6.272 -0.96,-7.92 -0.779,1.945 -0.496,4.883 -1.44,6.72 -0.837,1.629 -3.936,3.16 -5.76,4.32 -1.82,1.158 -4.811,3.945 -6.72,3.6 -1.411,-0.255 -1.456,-1.876 -2.16,-3.36 -0.666,-1.403 -1.625,-2.362 -1.92,-3.6 -1.035,-4.341 0.625,-7.977 0.24,-12 z" />
  <path d="m 0,112.56 c 0.484,1.778 1.43,2.986 1.68,4.8 0.238,1.729 -0.463,3.452 0.24,5.04 0.716,1.618 4.769,3.15 6.48,3.6 1.679,0.441 4.314,0.454 6.48,0.96 1.356,0.317 3.194,1.202 4.8,1.92 3.969,1.773 6.033,3.378 8.88,5.76 3.61,3.021 11.237,7.278 12.72,11.04 0.881,2.235 0.952,5.22 1.44,7.68 1.029,5.19 1.734,10.29 3.12,15.12 0.661,2.302 1.699,4.414 2.64,6.72 3.443,8.438 7.415,17.511 14.88,22.08 1.357,0.831 2.991,0.898 4.56,1.68 2.996,1.493 5.018,5.125 7.44,8.16 1.628,2.04 3.676,3.987 4.56,5.521 0.819,1.421 1.569,3.269 2.4,5.04 1.176,2.504 2.255,5.127 3.6,6.96 3.247,4.423 5.26,10.871 8.4,14.64 2.224,2.669 6.716,5.342 7.68,8.4 0.812,2.575 0.966,6.993 0.96,10.32 -0.006,3.648 -0.414,7.453 -0.24,11.279 0.174,3.823 -0.234,7.255 -0.48,10.561 -0.462,6.217 1.045,11.871 1.44,18 1.005,15.604 -2.706,30.649 -10.08,38.64 -0.767,0.831 -4.953,3.385 -4.32,5.521 0.491,1.659 2.633,1.065 5.04,0.96 2.489,-0.109 4.719,0.419 6,0 1.753,-0.574 2.209,-2.863 3.84,-4.561 0.993,-1.033 2.484,-2.441 3.6,-2.88 1.586,-0.623 3.253,-0.09 5.28,-0.96 3.395,-7.165 1.775,-19.597 2.64,-28.8 0.547,-5.823 1.804,-11.247 3.12,-17.04 2.591,-11.403 2.121,-23.048 6.48,-33.601 2.875,7.313 4.201,17.188 6,25.681 0.637,3.005 1.542,5.981 1.92,8.88 0.58,4.446 0.456,9.354 0.48,13.92 0.026,4.919 0.043,9.916 -0.24,14.4 -0.401,6.346 -2.607,12.487 -5.04,16.56 -0.945,1.583 -2.546,3.043 -2.4,5.04 0.934,1.093 3.134,0.72 5.04,0.72 1.925,0 4.127,0.276 5.28,-0.479 0.805,-0.528 0.869,-2.593 1.68,-3.601 1.08,-1.342 3.087,-1.16 3.84,-2.64 0.793,-1.559 0.615,-5.259 0.72,-8.4 0.094,-2.796 0.202,-6.269 0.48,-8.64 0.67,-5.714 2.168,-10.329 2.4,-15.84 0.218,-5.166 0.16,-10.019 0.72,-14.88 0.566,-4.917 0.317,-9.836 0.96,-14.641 0.366,-2.732 1.236,-5.507 1.92,-7.92 0.738,-2.602 1.958,-4.827 2.641,-7.2 1.616,-5.625 1.991,-10.89 3.6,-16.319 11.39,-0.253 22.78,-0.932 33.12,-1.92 3.723,-0.356 7.653,-1.28 10.8,-0.96 2.229,0.227 4.323,1.907 6.48,1.92 1.611,0.009 3.543,-0.722 5.279,-1.2 5.317,-1.464 10.157,-3.402 14.641,-5.04 4.18,10.991 6.854,23.092 11.52,33.12 2.585,5.556 5.66,9.71 5.04,17.76 -0.386,5.011 -2.163,10.509 -3.6,15.84 -2.724,10.108 -7.644,18.632 -12,26.88 -2.387,4.52 -4.658,8.982 -7.68,12.001 -1.547,1.544 -3.612,2.664 -4.32,5.279 2.179,0.3 4.549,0.332 6.72,0.24 2.163,-0.091 4.685,0.273 6.24,-0.24 3.174,-1.048 3.817,-7.774 6.96,-8.64 1.396,-0.385 2.552,0.638 4.32,0 2.12,-1.75 1.254,-4.098 1.68,-6.96 0.766,-5.153 3.061,-9.808 5.04,-14.4 2.006,-4.654 4.131,-9.143 6.24,-13.439 4.316,-8.796 10.051,-17.11 11.04,-28.32 8.368,5.143 9.441,17.005 10.8,29.76 1.063,9.975 -0.551,22.164 -3.12,28.8 -1.096,2.831 -1.844,4.973 -3.12,7.2 -2.062,3.598 -5.369,5.626 -6.24,9.36 -87.037,0 -174.086,0 -261.12,0 C 0,268.719 0,190.645 0,112.56 z" />
  <path d="m 293.28,180.24 c 0,55.521 0,111.039 0,166.561 -9.439,0 -18.88,0 -28.319,0 3.868,-1.353 6.228,-0.019 9.119,-1.44 3.687,-1.812 2.569,-7.86 6.24,-9.12 1.313,-0.45 2.487,0.42 3.84,-0.239 2.012,-1.877 1.546,-4.812 1.44,-7.2 -0.116,-2.646 -0.537,-5.363 -0.72,-7.92 -0.788,-11.001 0.455,-22.424 1.439,-32.641 0.516,-5.348 1.475,-10.793 0.96,-16.319 -0.637,-6.835 -3.479,-12.028 -6,-16.801 -4.581,-8.674 -9.86,-16.291 -8.88,-29.76 0.271,-3.732 1.675,-6.881 2.88,-10.08 3.718,-9.864 8.155,-17.243 12,-27.12 3.306,-1.336 4.909,-4.374 6.001,-7.921 z" />
</g>
</svg>
