<svg xmlns="http://www.w3.org/2000/svg" viewBox="22.4 17.6 165.2 261.9">
<path fill="currentColor" d="m 127.33918,264.89367 c -0.38105,-1.45709 -0.28495,-4.17435 0.21348,-6.03828 1.35103,-5.05169 -0.55056,-22.71233 -3.17313,-29.46984 -1.41862,-3.65532 -2.60278,-11.54342 -3.09462,-20.61431 -0.43816,-8.08131 -1.20135,-15.09776 -1.69598,-15.59209 -1.90764,-1.90657 -3.55344,0.99898 -4.31003,7.60905 -0.43353,3.7879 -1.16044,10.14363 -1.61533,14.12383 -0.4549,3.98021 -0.92295,14.34194 -1.04011,23.02604 -0.11705,8.6841 -0.69157,18.3057 -1.27646,21.38131 -1.00086,5.26313 -1.32438,5.59206 -5.50045,5.59206 -4.78473,0 -5.63062,-1.89012 -3.02489,-6.75897 0.7767,-1.45125 2.30664,-6.0011 3.39988,-10.11073 2.35443,-8.85059 1.59516,-31.95586 -1.67237,-50.89265 -2.23576,-12.95717 -2.96422,-14.98707 -7.708302,-21.4799 -1.758114,-2.40614 -4.117387,-7.54224 -5.242794,-11.41357 -1.744428,-6.00063 -2.675734,-7.25531 -6.314643,-8.50704 -6.070404,-2.08812 -12.390352,-7.90488 -14.765801,-13.59009 -1.120793,-2.68241 -2.541492,-4.87713 -3.157132,-4.87713 -0.615665,0 -2.110927,-2.59634 -3.322795,-5.76959 l -2.20337,-5.76962 -10.999822,-0.91627 c -8.212632,-0.68412 -11.700383,-1.56895 -13.764627,-3.49208 -1.52062,-1.41668 -2.764781,-3.13223 -2.764781,-3.81234 0,-0.68011 4.045363,-3.90163 8.989666,-7.15896 4.944303,-3.25733 10.64972,-7.46091 12.678699,-9.3413 l 3.689055,-3.418912 -4.266388,-2.594554 C 53.049604,93.580735 48.501024,91.922088 45.288177,91.321863 38.007793,89.961742 36.422069,88.59774 42.121233,88.59774 c 3.58621,0 4.148682,-0.385523 3.359452,-2.302601 -2.572487,-6.248731 -2.351697,-7.569737 0.644065,-3.853482 4.173944,5.177804 6.105856,2.910543 4.14736,-4.86732 -1.929012,-7.660825 -1.815573,-20.181387 0.226215,-24.960386 1.394609,-3.264266 1.538358,-2.368092 1.115108,6.951999 -0.564856,12.438386 1.118102,17.760484 6.495635,20.541307 9.098906,4.705236 13.52355,0.883164 15.167186,-13.101657 0.63569,-5.408684 0.277803,-8.878332 -1.357364,-13.159983 -1.688924,-4.422397 -1.918112,-6.865242 -0.957157,-10.20205 1.102511,-3.828265 1.280936,-3.968172 1.400153,-1.097909 0.19791,4.763119 1.554305,9.210416 2.809222,9.210416 0.597218,0 1.946773,-2.812465 2.998993,-6.249925 l 1.913136,-6.249924 0.13705,9.539357 c 0.09742,6.792311 0.621042,9.53936 1.817887,9.53936 3.099994,0 7.541702,-4.075994 10.270486,-9.42487 1.488132,-2.917008 3.008442,-5.000934 3.378437,-4.630951 0.369961,0.369986 0.112567,1.759585 -0.571883,3.087997 -1.965054,3.813484 -0.445405,5.70473 4.583914,5.70473 4.216892,0 4.563422,-0.275171 3.728042,-2.960492 -0.50653,-1.62827 -1.17259,-6.21703 -1.48013,-10.197246 l -0.55915,-7.236753 2.03881,7.225232 c 3.78122,13.399894 6.08831,12.443928 7.27404,-3.014051 0.45521,-5.934528 0.91935,-8.939745 1.03139,-6.67826 0.44083,8.897135 1.73295,12.334547 4.64447,12.35553 1.53782,0.01109 2.19106,0.455154 1.45167,0.986829 -0.73938,0.531675 -1.03544,2.959001 -0.65788,5.39406 0.67819,4.374033 0.71506,4.395609 3.06077,1.790828 1.30587,-1.450102 3.55158,-5.514765 4.99044,-9.032586 l 2.61615,-6.396035 -0.67143,6.121675 c -0.36931,3.366921 -0.83869,6.884346 -1.04314,7.816498 -0.69631,3.17504 4.18386,2.859505 5.47214,-0.353809 1.20621,-3.008492 1.2275,-2.999392 1.30951,0.560202 0.046,1.990108 0.71046,3.618378 1.47683,3.618378 0.7664,0 1.02751,0.592099 0.58024,1.315774 -0.44723,0.723676 -3.25576,1.315773 -6.24109,1.315773 -9.17752,0 -15.98616,4.369111 -24.75056,15.882524 -4.328462,5.686094 -10.454426,12.116531 -13.613252,14.289869 -4.341731,2.987179 -5.95423,5.075596 -6.607446,8.557538 -0.475234,2.533303 -1.80267,5.544601 -2.949833,6.691764 -1.903842,1.90383 -1.831919,2.35596 0.824354,5.18346 5.579951,5.93956 23.481247,12.55198 33.981057,12.55198 10.361,0 18.5219,2.61688 24.61987,7.89465 4.00983,3.47046 7.94877,5.47811 12.76771,6.50758 9.65887,2.06339 15.91324,6.56318 19.63829,14.12904 2.82819,5.74427 3.11408,7.99755 3.05787,24.09967 -0.046,13.17251 -0.69105,19.97319 -2.49619,26.31549 -1.90875,6.70634 -2.40806,12.76131 -2.31311,28.04965 0.0665,10.72338 0.69216,21.38117 1.39018,23.68393 0.69801,2.30274 1.59088,7.29533 1.98418,11.09462 l 0.71509,6.90782 h -4.56828 c -4.3517,0 -4.52029,-0.17148 -3.55639,-3.61838 1.39614,-4.99237 0.84021,-22.23978 -1.01483,-31.48335 -0.84556,-4.21351 -1.47957,-8.84512 -1.40886,-10.29247 0.14319,-2.93368 -2.28798,-21.12816 -3.28549,-24.58719 -0.58369,-2.02389 -1.35294,-1.95099 -8.74891,0.82941 -4.45993,1.67662 -8.30776,3.64479 -8.55073,4.37367 -0.24296,0.72886 1.06565,5.63974 2.90802,10.91301 1.84237,5.27325 3.35455,10.81676 3.3604,12.31886 0.005,1.5021 -1.73326,7.17185 -3.86471,12.59942 -4.81901,12.27132 -7.98789,22.67852 -7.98789,26.23376 0,2.2747 -0.82589,2.71326 -5.10964,2.71326 -4.01449,0 -5.25812,-0.56785 -5.80243,-2.64931 z m 14.27091,-31.215 c 1.20472,-7.61319 0.34408,-10.18281 -6.72598,-20.08241 l -6.10805,-8.55255 0.61424,13.81562 c 0.33784,7.5986 1.70962,17.82797 3.04837,22.73194 l 2.43413,8.91628 2.92753,-5.62687 c 1.61013,-3.09475 3.32453,-8.13568 3.80976,-11.20201 z M 61.936354,88.183544 c 0,-0.951471 -2.072335,-2.718188 -4.605193,-3.926025 -3.807188,-1.81552 -4.605216,-1.874033 -4.605216,-0.337688 0,2.666837 3.703822,5.993675 6.672857,5.993675 1.395648,0 2.537552,-0.778479 2.537552,-1.729962 z m 16.38528,0.202986 c 2.691656,-1.226398 3.347796,-2.456654 3.333389,-6.249924 -0.02124,-5.526607 -1.224278,-10.643933 -2.502737,-10.643933 -0.493899,0 -1.68942,2.220369 -2.656698,4.934151 -0.967301,2.713788 -2.862533,6.505796 -4.211662,8.426708 -1.349107,1.9209 -2.452916,3.845223 -2.452916,4.276256 0,1.309442 4.933217,0.877595 8.490624,-0.743258 z M 93.945288,76.834367 c 4.96348,-5.493985 9.410652,-13.044363 8.323452,-14.131553 -2.01534,-2.015336 -10.890348,-2.744422 -14.588679,-1.198462 -6.567556,2.745349 -7.669878,4.889096 -5.3585,10.421019 1.090621,2.610231 1.982965,5.949091 1.982965,7.419678 0,4.353849 4.49713,3.182685 9.640762,-2.510682 z M 104.51694,57.67705 c 0.57824,-1.50684 -0.24433,-1.963765 -3.47759,-1.931815 -4.008612,0.0396 -4.098442,0.145093 -1.680892,1.973659 3.221342,2.436502 4.210532,2.428477 5.158482,-0.04184 z m 11.34602,-10.855134 c 0.0118,-0.904595 -0.57195,-1.644718 -1.29564,-1.644718 -0.72367,0 -1.30671,1.62827 -1.29562,3.618377 0.0165,2.81962 0.30172,3.182692 1.29562,1.644719 0.70152,-1.085514 1.28455,-2.713783 1.29564,-3.618378 z"
       id="path302"
       />
</svg>
