<svg xmlns="http://www.w3.org/2000/svg" viewBox="8.2 54.5 191.4 173.7">
<path fill="currentColor" d="m 129.08477,218.61507 c -1.62881,-0.76137 -2.14373,-0.84508 -3.99517,-0.64948 -1.53604,0.16227 -2.57405,0.0755 -3.74349,-0.31292 -1.79034,-0.59466 -3.46185,-1.94811 -3.5138,-2.8452 -0.0185,-0.31965 -0.089,-1.61262 -0.1566,-2.87328 -0.14862,-2.77089 -0.5125,-3.53359 -1.82321,-3.82147 -1.66924,-0.36663 -1.8775,-0.92116 -1.11395,-2.96618 2.87587,-7.70252 3.74458,-15.60407 2.46946,-22.46157 -0.37475,-2.01536 -0.91624,-7.06382 -1.20332,-11.21881 -0.28707,-4.15499 -0.60017,-8.02815 -0.69577,-8.60702 l -0.17382,-1.0525 -5.34885,1.35958 c -4.88797,1.24244 -5.74431,1.36158 -9.938369,1.38266 -2.942462,0.0148 -6.78557,-0.25963 -10.708858,-0.7647 -9.092067,-1.17046 -11.432092,-1.27247 -12.539854,-0.54664 -0.742617,0.48658 -1.319373,0.55389 -3.144305,0.36692 l -2.234872,-0.22897 -1.579363,1.62913 c -0.868648,0.89602 -2.503456,2.62298 -3.632904,3.83769 -1.129448,1.21471 -3.469365,3.48821 -5.199815,5.05222 -4.976101,4.49747 -5.430507,5.65374 -6.163891,15.68438 -0.490772,6.71236 -0.457527,7.95968 0.338791,12.71088 0.837953,4.99963 1.91419,7.39648 4.685844,10.43564 1.760489,1.93041 3.8031,4.898 3.8031,5.52531 0,0.40085 -8.082017,0.24566 -9.000515,-0.17284 -1.137253,-0.51816 -3.913954,-4.7469 -4.416253,-6.72567 -0.370483,-1.45949 -0.46359,-1.55143 -1.673487,-1.65257 -2.074608,-0.17342 -2.381567,-1.32037 -2.291452,-8.56198 0.07071,-5.68185 0.355422,-8.6839 1.579873,-16.65823 0.630488,-4.1061 0.540929,-7.05896 -0.309331,-10.19891 -0.329107,-1.21537 -0.746235,-2.7854 -0.926951,-3.48896 -0.280812,-1.09324 -0.418174,-1.23123 -0.944954,-0.94931 -0.339009,0.18143 -1.882355,0.7919 -3.429658,1.35659 -5.757241,2.10114 -10.180344,5.72758 -12.233896,10.03041 -0.565432,1.18476 -1.732551,4.81022 -2.593597,8.05657 -1.536577,5.79328 -1.562124,5.9748 -1.380932,9.81206 0.21463,4.54538 0.884856,7.36686 2.26038,9.51562 1.139178,1.77956 3.404174,6.28885 3.404174,6.77724 0,0.5416 -2.372415,1.04136 -4.953115,1.0434 -2.374297,0.002 -2.409271,-0.0112 -2.889692,-1.08195 -0.372565,-0.83034 -0.861528,-1.20803 -2.090571,-1.61482 -0.882344,-0.29205 -1.849749,-0.77719 -2.149787,-1.07809 -0.870769,-0.87329 -1.130176,-2.80146 -0.763408,-5.67444 0.328862,-2.57604 0.306985,-2.73295 -0.716325,-5.13769 -1.234885,-2.90194 -1.282232,-3.49211 -0.395288,-4.92721 0.363142,-0.58758 0.960847,-2.44144 1.328234,-4.11969 0.952946,-4.35314 2.89279,-10.17283 5.096557,-15.29008 1.822309,-4.23148 1.910965,-4.57391 2.083624,-8.04794 0.226218,-4.55169 0.364495,-4.72109 6.129698,-7.50951 7.126975,-3.44705 7.840761,-4.14145 8.526728,-8.29514 0.372244,-2.25402 0.33177,-2.6707 -0.658831,-6.78262 -0.580493,-2.40959 -1.228263,-5.5551 -1.43949,-6.99003 -0.364835,-2.47843 -0.332532,-2.7931 0.645661,-6.28933 0.566341,-2.0242 1.120707,-4.13932 1.231925,-4.70026 0.336992,-1.69966 -0.359638,-3.28089 -2.184587,-4.95866 -1.114583,-1.02469 -1.772916,-1.94084 -1.918799,-2.67026 -0.144257,-0.72128 -0.572009,-1.32319 -1.220696,-1.71768 -0.647133,-0.39354 -0.860231,-0.69282 -0.605442,-0.85029 0.263726,-0.16299 0.133111,-0.41612 -0.396708,-0.76883 -1.117397,-0.74385 -2.999652,-2.54444 -2.999652,-2.86951 0,-0.1503 0.240368,-0.27327 0.534152,-0.27327 0.350977,0 0.117812,-0.39266 -0.679928,-1.14503 -0.791659,-0.74662 -1.21408,-1.45483 -1.21408,-2.03544 v -0.89042 l 2.63472,0.21729 c 2.616741,0.21581 5.217382,0.78322 9.766603,2.1309 3.787645,1.12207 4.714216,0.99087 8.124987,-1.15048 1.623568,-1.01931 3.350775,-2.16701 3.838235,-2.55044 2.501648,-1.9678 7.432956,-2.22761 13.48301,-0.71038 2.204648,0.55288 6.63832,1.33795 9.8526,1.74458 5.525548,0.69904 6.335284,0.71856 14.85319,0.35809 4.954973,-0.20968 9.62098,-0.54845 10.3689,-0.75281 0.74792,-0.20436 3.1624,-1.27957 5.36553,-2.38935 5.82812,-2.93582 8.70213,-3.8346 11.46268,-3.58469 1.21537,0.11003 3.20415,0.52801 4.41952,0.92886 3.0463,1.00471 8.24026,1.23913 11.33689,0.51166 4.97712,-1.16923 9.69161,-4.27225 15.39083,-10.130059 2.59853,-2.67084 3.54041,-3.89071 3.96403,-5.13395 0.3056,-0.89689 1.01786,-2.214314 1.58281,-2.927615 0.56494,-0.7133 1.33996,-2.026631 1.72227,-2.918513 0.3823,-0.891881 1.21262,-2.480381 1.84514,-3.529998 0.63253,-1.049618 1.32632,-2.473059 1.54178,-3.163202 0.41842,-1.340307 4.52851,-6.054417 5.27866,-6.054417 0.31973,0 0.47663,0.797333 0.5631,2.861556 0.0659,1.573855 0.24609,2.987681 0.40035,3.141833 0.30713,0.306914 0.34143,0.261211 2.20916,-2.943714 1.02906,-1.765812 1.45474,-2.209766 2.11879,-2.209766 0.82324,0 0.83016,-0.027 0.74108,-2.889692 -0.11351,-3.647619 -0.26765,-4.31406 -1.10089,-4.76 -0.50342,-0.269421 -0.92618,-0.22909 -1.67893,0.160169 -0.55334,0.286145 -1.16666,0.520264 -1.36292,0.520264 -0.68155,0 -0.35158,-0.974695 0.57805,-1.707515 1.13641,-0.895821 3.08019,-0.759152 4.53862,0.319114 0.56262,0.415958 1.03444,0.564837 1.15775,0.365314 0.11447,-0.185223 0.74632,-0.336768 1.4041,-0.336768 0.86856,0 1.46799,0.272036 2.1897,0.99374 1.71378,1.713781 1.34802,3.751354 -1.83549,10.225067 -2.00043,4.067918 -2.0895,4.358527 -2.08383,6.799278 0.005,2.238202 0.14785,2.819719 1.16766,4.759494 1.6421,3.123421 7.96397,9.311841 11.30754,11.068841 2.8906,1.51897 3.99663,2.612849 3.99663,3.952759 0,1.20357 -1.01553,3.25549 -2.09169,4.22636 -1.84948,1.66852 -2.46433,1.84473 -8.15206,2.33625 -8.31695,0.71873 -11.75688,1.82654 -13.60843,4.38252 -0.55742,0.7695 -1.97551,3.38817 -3.15131,5.81926 -1.1758,2.43109 -3.55718,6.55868 -5.29194,9.17243 -1.86893,2.81588 -4.32593,7.17937 -6.02996,10.70886 -3.49321,7.23535 -4.30678,9.33013 -4.82208,12.41591 -0.21857,1.30886 -0.47741,2.64699 -0.5752,2.97361 -0.24388,0.81457 -3.81105,3.2912 -7.13564,4.95416 -3.12685,1.56405 -5.54212,3.9384 -6.38345,6.27528 -0.53355,1.48198 -1.22979,11.40008 -1.23446,17.58513 -10e-4,1.77545 -0.3073,5.50125 -0.67992,8.27954 -1.23381,9.19936 -0.8207,16.27857 1.18199,20.25538 0.66085,1.31229 1.66825,3.5608 2.23865,4.99671 1.2235,3.07998 1.16407,3.17163 -2.05835,3.17438 -1.66466,0.001 -2.67101,-0.21371 -4.07957,-0.87213 z M 177.27338,68.075071 c 0.21137,-1.478437 -0.41587,-2.243011 -1.84011,-2.243011 -0.69307,0 -0.74088,0.09372 -0.44497,0.872041 0.18236,0.479623 0.34036,2.124198 0.35114,3.654612 l 0.0196,2.78257 0.86235,-1.869801 c 0.4743,-1.028391 0.9477,-2.466776 1.05201,-3.196411 z" />
</svg>
