<svg xmlns="http://www.w3.org/2000/svg" viewBox="12.5 24.4 184.4 190.7">
<path fill="currentColor" d="m 26.663596,206.01879 c -1.339023,-0.46679 -2.790364,-1.83596 -3.586309,-3.38327 -0.773701,-1.50406 -1.293503,-1.8792 -1.736401,-1.25314 -0.233098,0.32949 -0.263657,0.21734 -0.103646,-0.38038 0.124803,-0.46622 0.35674,-2.90743 0.515409,-5.42493 0.330832,-5.24903 1.455039,-14.43583 2.199799,-17.97629 0.640158,-3.04321 0.635527,-3.70116 -0.03552,-5.04632 -0.620857,-1.24453 -0.464674,-2.62508 0.549837,-4.86019 0.482541,-1.06311 0.65815,-2.21444 0.663625,-4.35088 0.01256,-4.8742 0.473033,-5.85506 4.92471,-10.48852 4.29757,-4.47306 5.115182,-5.78042 5.556204,-8.88434 0.166771,-1.17373 0.644677,-3.25664 1.062013,-4.6287 0.573074,-1.88406 0.768746,-3.4193 0.799455,-6.27256 0.03683,-3.42215 -0.05232,-4.01566 -0.946708,-6.30235 -0.920535,-2.35355 -2.731692,-4.76531 -3.578604,-4.76531 -0.192697,0 -0.350358,-0.16529 -0.350358,-0.36731 0,-0.20203 -0.183386,-0.30619 -0.407525,-0.23148 -0.224138,0.0747 -0.67294,-0.0914 -0.997335,-0.36917 -0.533678,-0.45694 -0.543295,-0.61633 -0.101058,-1.67474 0.572139,-1.36933 0.644928,-3.12127 0.129681,-3.12127 -0.197486,0 -0.26477,-0.15259 -0.149518,-0.33907 0.115256,-0.18648 0.05044,-0.33905 -0.144033,-0.33905 -0.410325,0 0.389833,-1.84858 1.752667,-4.04914 0.534793,-0.86352 0.791889,-1.59331 0.602539,-1.71032 -0.196879,-0.12174 -0.04442,-0.78191 0.377499,-1.63466 0.471936,-0.95387 0.723457,-2.16125 0.754839,-3.62347 l 0.04707,-2.19293 1.525759,-0.65647 c 0.839167,-0.36106 3.280381,-1.05007 5.42492,-1.53114 4.825819,-1.082546 8.171376,-2.145496 11.728859,-3.726476 1.864727,-0.82871 3.820106,-1.38161 6.103034,-1.7257 4.345751,-0.65502 11.18773,-0.65303 13.974827,0.004 2.659248,0.62693 6.697087,1.06442 14.135567,1.53153 3.665876,0.23022 7.059868,0.6583 9.324084,1.17604 3.338592,0.7634 4.235142,0.81605 14.409942,0.84615 5.96741,0.0177 12.22302,0.0563 13.90135,0.0857 2.62425,0.0461 3.31447,-0.0675 4.92949,-0.81183 2.2096,-1.01829 7.52976,-5.91628 9.12293,-8.39902 1.42656,-2.22309 5.18337,-11.02029 4.76596,-11.16027 -0.54127,-0.1815 0.27942,-1.40565 2.48212,-3.70227 1.11783,-1.16552 1.84666,-2.11912 1.61962,-2.11912 -0.22705,0 -0.31851,-0.15257 -0.20327,-0.33905 0.11623,-0.18808 -0.13389,-0.33905 -0.56175,-0.33905 -0.67208,0 -0.53289,-0.24148 1.08193,-1.87693 1.48823,-1.50726 1.75493,-1.93772 1.35415,-2.18564 -0.43035,-0.26619 -0.42224,-0.33819 0.0588,-0.5228 0.36611,-0.14049 0.52361,-0.52557 0.45811,-1.12018 -0.0549,-0.49834 0.0545,-1.00456 0.24288,-1.12492 0.21358,-0.1364 0.0418,-0.8389 -0.45596,-1.86482 -0.68591,-1.41364 -0.79748,-2.148469 -0.79046,-5.206073 0.006,-2.924971 0.14102,-3.855695 0.75267,-5.21697 0.68642,-1.527661 0.70066,-1.688884 0.18265,-2.067663 -0.75116,-0.549254 -0.27325,-1.243391 0.68966,-1.001717 0.46934,0.117767 0.93117,-0.0051 1.18944,-0.316141 0.59165,-0.712885 0.11918,-1.496099 -2.94308,-4.878634 -2.27053,-2.507991 -2.73473,-2.855502 -4.44026,-3.323985 -2.71274,-0.74514 -3.50045,-1.116371 -3.24522,-1.529353 0.13573,-0.219594 0.73233,-0.275569 1.5195,-0.142577 0.77072,0.130211 1.59775,0.05754 2.04038,-0.179394 0.70207,-0.375729 0.73123,-0.548613 0.51352,-3.044379 -0.12802,-1.468073 -0.0962,-2.729226 0.0716,-2.832923 0.16632,-0.102774 0.57536,0.68354 0.90897,1.747409 0.73892,2.35638 1.98076,4.873662 2.69793,5.468857 0.29189,0.242263 0.78219,0.343961 1.08956,0.226014 0.48906,-0.187685 0.52907,-0.619953 0.32041,-3.462717 -0.28075,-3.824389 0.0203,-3.908466 1.362,-0.380407 0.73573,1.934569 1.39961,2.939901 3.12726,4.735583 1.20628,1.25381 2.32212,2.199989 2.47965,2.102635 0.15752,-0.09739 0.19214,-1.292203 0.0769,-2.65522 -0.13591,-1.607818 -0.0827,-2.556637 0.15182,-2.701508 0.56286,-0.347882 0.70705,0.14901 0.9317,3.210831 0.26422,3.601616 0.68251,4.784035 1.64385,4.646802 0.6855,-0.0979 0.71632,-0.29524 0.75703,-4.848827 0.051,-5.711415 0.0169,-5.4299 0.60022,-4.945771 0.71653,0.594657 0.92578,2.285604 1.19949,9.692579 0.23752,6.42771 0.29961,6.88717 1.19112,8.815486 l 0.94051,2.034344 0.38652,-1.017172 c 0.60085,-1.581189 0.93144,-1.963005 2.92946,-3.383061 1.02564,-0.728981 2.50985,-1.906197 3.29821,-2.616045 2.26067,-2.035473 3.0559,-1.617865 1.92123,1.008906 -2.01172,4.657042 -3.52296,8.887479 -3.52351,9.863478 -3.3e-4,0.809833 0.43575,1.755213 1.49447,3.238873 0.82231,1.15236 1.75586,2.3116 2.07453,2.57608 0.31868,0.26449 1.32905,1.59178 2.24525,2.94954 2.36716,3.50797 5.80139,6.0648 9.72002,7.23664 1.9535,0.5842 2.77418,1.67889 2.77418,3.70043 0,1.53157 -0.67894,2.71929 -1.55444,2.71929 -0.1729,0 -0.52426,0.47417 -0.78078,1.05372 -0.71134,1.60701 -2.62011,2.32037 -6.23298,2.3294 -2.08878,0.005 -4.57945,0.3535 -8.36926,1.17022 -5.31559,1.14556 -6.79656,1.6266 -6.79656,2.20765 0,0.16229 -0.54688,0.94963 -1.21529,1.74965 -1.40581,1.68266 -2.83725,4.42016 -3.70527,7.08599 -0.33397,1.02566 -1.34222,3.161716 -2.24057,4.746806 -0.89837,1.5851 -1.93436,3.75729 -2.30219,4.8271 -0.99125,2.88288 -5.29269,10.2031 -7.50193,12.76681 -3.21253,3.72797 -6.66926,9.70585 -9.82451,16.98995 -0.60583,1.39862 -1.714,3.42024 -2.46259,4.49252 -1.2314,1.76382 -1.47804,1.94957 -2.5887,1.94957 -1.89937,0 -3.47021,1.03258 -4.4381,2.91731 l -0.84764,1.65059 v 13.90604 c 0,7.64833 0.10713,15.27923 0.23802,16.95757 0.33075,4.24043 2.4615,13.14126 3.65248,15.25758 0.52472,0.9324 1.34983,2.80554 1.83356,4.16252 0.48374,1.35698 1.11019,2.9133 1.39213,3.4585 0.85002,1.64375 0.7077,1.81806 -1.31406,1.6094 -2.58509,-0.26681 -3.71685,-0.97512 -5.31256,-3.32491 -1.29257,-1.9034 -1.43096,-2.00987 -1.86873,-1.43764 -0.77822,1.01726 -1.12615,-0.0357 -0.91858,-2.78016 0.29249,-3.86756 -0.95669,-15.97228 -2.14943,-20.82799 -0.29996,-1.22118 -0.97143,-3.28837 -1.49215,-4.59374 -0.53195,-1.33354 -1.02764,-3.35529 -1.13139,-4.61447 -0.17132,-2.07944 -1.06001,-4.7096 -1.59131,-4.7096 -0.12623,0 -0.30586,2.1742 -0.39919,4.83156 -0.11918,3.39202 -0.3351,5.22274 -0.72486,6.14444 -0.30535,0.72208 -0.55519,1.75733 -0.55519,2.30057 0,0.54323 -0.24922,1.36804 -0.5538,1.83291 -0.43778,0.66813 -0.62617,2.39777 -0.89919,8.25549 -0.32987,7.07796 -0.31275,7.54032 0.38187,10.30987 0.39999,1.59477 1.3193,4.24447 2.04292,5.88822 l 1.31568,2.98864 -1.47761,0.10316 c -2.12542,0.14834 -3.58299,-0.67609 -5.01891,-2.83875 -1.27982,-1.92753 -1.51341,-2.08661 -2.14158,-1.45844 -0.28492,0.28492 -0.44754,0.0457 -0.63395,-0.93241 -0.1727,-0.90624 -0.0102,-2.47618 0.52283,-5.04526 0.64075,-3.08928 0.80457,-5.18853 0.95415,-12.22677 0.17351,-8.16349 0.15062,-8.58719 -0.58266,-10.79072 -0.72091,-2.16633 -0.73858,-2.44557 -0.31845,-5.03263 0.42711,-2.63003 0.4081,-2.88202 -0.47778,-6.33168 -0.84073,-3.27383 -1.16158,-5.26197 -1.76991,-10.96713 -0.17525,-1.64337 -0.31281,-1.94958 -0.87591,-1.94958 -0.36741,0 -1.81796,-0.23753 -3.22346,-0.52784 -1.79986,-0.37177 -2.68207,-0.42277 -2.98365,-0.17247 -0.23551,0.19545 -0.49045,0.29635 -0.56654,0.22422 -0.0761,-0.0721 -0.722706,-0.20827 -1.436937,-0.30251 -0.714231,-0.0943 -1.639124,-0.49125 -2.05531,-0.88225 -0.616505,-0.57917 -1.349638,-0.74826 -3.95679,-0.91257 -1.760045,-0.11098 -4.062801,-0.48749 -5.117243,-0.83679 -1.054442,-0.34931 -2.961639,-0.79783 -4.238219,-0.99671 -1.276578,-0.19887 -3.007643,-0.57694 -3.84681,-0.84013 -0.839167,-0.26319 -2.743721,-0.65557 -4.232342,-0.87195 l -2.706584,-0.39341 -1.429989,1.64568 c -0.786491,0.90512 -1.521402,2.00741 -1.633135,2.44952 -0.227636,0.90071 -0.951571,1.73909 -1.501685,1.73909 -0.199804,0 -0.363277,0.22887 -0.363277,0.50859 0,0.27972 -0.223553,0.50858 -0.496786,0.50858 -0.788397,0 -2.709172,1.86867 -4.638235,4.5124 -0.978527,1.34106 -2.875781,3.81146 -4.216119,5.4898 -2.615083,3.27455 -3.982948,5.69482 -4.345036,7.68806 -0.564647,3.10829 1.342238,9.56677 5.388316,18.24983 1.433776,3.07695 3.137638,6.95204 3.78636,8.61131 0.648726,1.65927 1.605641,3.56646 2.12648,4.23821 1.205533,1.55483 4.086856,7.04531 3.831356,7.30081 -0.402102,0.4021 -4.222896,0.17222 -5.155796,-0.31021 -0.535328,-0.27682 -1.537873,-1.19227 -2.227878,-2.03434 -1.302436,-1.58945 -1.850983,-1.89245 -1.850983,-1.02243 0,0.27972 -0.133894,0.50858 -0.297544,0.50858 -0.631152,0 -1.015945,-0.93766 -1.253641,-3.05488 -0.276168,-2.45985 -3.038151,-10.48386 -6.11723,-17.77152 -1.726611,-4.08659 -2.236293,-4.95826 -3.791983,-6.48517 l -1.797258,-1.764 0.230795,-1.73983 c 0.222571,-1.67781 0.16579,-1.84544 -1.593316,-4.70371 -1.635431,-2.65733 -1.82411,-3.16007 -1.82411,-4.86037 0,-1.85684 0.05391,-1.96315 2.578961,-5.08586 3.726005,-4.60795 4.999896,-6.68808 5.917837,-9.66325 0.447596,-1.45071 0.76143,-2.69004 0.697407,-2.75406 -0.427342,-0.42735 -7.072183,5.5272 -12.034552,10.78436 -8.057234,8.53588 -10.002218,11.17982 -11.564313,15.72012 -0.746781,2.17055 -1.984071,10.81189 -2.92919,20.45768 l -0.607679,6.20191 1.047323,1.93547 c 0.576028,1.06451 1.15236,2.52722 1.28074,3.25048 0.128378,0.72325 0.604266,2.15357 1.057527,3.17847 0.453261,1.0249 0.824111,1.92077 0.824111,1.9908 0,0.26347 -2.583327,0.0597 -3.560104,-0.28078 z M 161.09989,52.791536 c 0,-0.649734 -1.77098,-4.36539 -2.08066,-4.36539 -0.71974,0 -0.009,3.947757 0.80299,4.463487 0.62174,0.394631 1.27767,0.344256 1.27767,-0.09803 z m -4.40776,-6.879506 c 0,-0.716961 -2.94743,-3.173117 -4.11576,-3.42972 -1.52331,-0.334581 -1.56469,0.05126 -0.13729,1.280209 0.70492,0.606946 1.59632,1.446826 1.98088,1.866407 0.77912,0.850106 2.27217,1.036138 2.27217,0.283104 z" />
</svg>
