<svg xmlns="http://www.w3.org/2000/svg" viewBox="-5.3 78.1 218.2 125.5">
<path fill="currentColor" d="m 129.75059,193.37109 c 0,-0.67185 1.71473,-2.53463 2.66618,-2.89637 0.69702,-0.265 0.95235,-0.67204 0.95235,-1.51821 0,-1.60853 -0.777,-3.77403 -1.61198,-4.4926 -0.38543,-0.33169 -0.82181,-1.41725 -0.96972,-2.41235 -0.30954,-2.08243 -2.91324,-7.61298 -3.732,-7.92717 -0.30319,-0.11634 -0.87538,0.0818 -1.27154,0.44032 -0.88128,0.79754 -1.26006,0.827 -1.26006,0.098 0,-0.30462 -0.27139,-0.77909 -0.60309,-1.05438 -0.3317,-0.27528 -0.60309,-1.02311 -0.60309,-1.66184 0,-2.36853 -2.60982,-6.39001 -3.13142,-4.82522 -0.20808,0.62424 -2.36442,-1.574 -2.56669,-2.61656 -0.0797,-0.41075 -0.48342,-0.74778 -0.89717,-0.74896 -0.41375,-0.001 -0.90251,-0.40827 -1.08613,-0.90463 -0.18362,-0.49637 -0.60208,-0.90249 -0.92992,-0.90249 -0.32783,0 -0.74075,-0.24498 -0.91759,-0.5444 -0.42884,-0.7261 -1.95676,-1.5059 -2.2926,-1.17006 -0.32392,0.32391 -8.27202,0.41629 -8.07273,0.0938 0.40241,-0.65111 -0.69095,-1.35273 -1.97341,-1.26636 -0.81632,0.055 -2.054767,-0.24905 -2.933937,-0.72026 -0.836741,-0.44847 -1.303548,-0.81539 -1.037348,-0.81539 0.85926,0 0.08493,-1.11784 -1.12008,-1.61697 -0.69748,-0.28891 -1.618878,-0.36144 -2.282951,-0.17971 -0.612404,0.16758 -1.384856,0.33982 -1.716554,0.38275 -0.331699,0.0429 -1.960038,0.6349 -3.618531,1.3155 -1.658493,0.68061 -4.096385,1.36113 -5.417538,1.51227 -1.663318,0.19029 -2.754795,0.57158 -3.548866,1.23975 -0.630722,0.53071 -1.432314,0.96494 -1.781318,0.96494 -0.537669,0 -0.51761,-0.13319 0.131361,-0.8723 0.554254,-0.63123 0.599253,-0.81216 0.16283,-0.65471 -5.251726,1.89474 -11.98996,3.56713 -14.940051,3.70803 -1.444304,0.069 -2.810878,0.42473 -3.742026,0.97412 -0.80676,0.47599 -1.954039,0.86477 -2.549512,0.86394 l -1.08268,-0.002 1.241839,-0.75727 c 0.68301,-0.41649 1.587642,-1.18476 2.010294,-1.70725 0.422649,-0.52249 1.905812,-1.92343 3.295915,-3.11321 2.806335,-2.40192 3.087498,-3.25901 0.427348,-1.30271 -1.814854,1.33466 -2.841785,1.68725 -1.758204,0.60366 0.358026,-0.35802 0.563711,-0.73819 0.457081,-0.84482 -0.330183,-0.33018 -7.186461,3.22812 -10.046194,5.21381 -0.719826,0.49983 -1.060985,0.59441 -0.904889,0.25089 0.137805,-0.30328 0.362239,-0.86804 0.498738,-1.25502 0.136499,-0.38699 0.408005,-0.70361 0.603345,-0.70361 0.195341,0 0.355167,-0.20173 0.355167,-0.4483 0,-0.27532 -0.382382,-0.19775 -0.991003,0.20103 -1.107946,0.72596 -2.002486,0.86229 -1.62238,0.24727 0.493234,-0.79806 -0.991779,-0.37372 -3.676567,1.05059 -1.506012,0.79896 -3.125373,1.49514 -3.598584,1.54709 -0.473211,0.052 -1.489473,0.57428 -2.258362,1.16074 -0.768888,0.58656 -1.617472,1.06639 -1.885743,1.06639 -0.26827,0 -1.31317,0.46082 -2.322001,1.02405 -2.234666,1.2476 -2.559871,1.14159 -0.674675,-0.21993 0.765465,-0.55283 2.210265,-1.66052 3.210666,-2.46152 1.000401,-0.80101 2.302502,-1.70536 2.893558,-2.00966 0.591057,-0.3043 1.165111,-0.64403 1.275677,-0.75495 0.110566,-0.11091 0.901903,-0.52604 1.75853,-0.9225 0.856622,-0.39646 1.453069,-0.82526 1.325435,-0.95289 -0.395035,-0.39504 -2.975964,0.25502 -3.494854,0.88025 -0.270429,0.32585 -0.794641,0.59245 -1.164916,0.59245 -0.370274,0 -1.920919,0.81949 -3.445876,1.82108 -1.524957,1.0016 -3.232499,1.9365 -3.794536,2.07756 -0.562038,0.14106 -2.143574,1.02442 -3.514525,1.963 -1.37095,0.93859 -2.886371,1.8315 -3.367601,1.98423 -0.48123,0.15274 -1.607693,0.93764 -2.503253,1.74422 -1.028504,0.92633 -1.690274,1.28335 -1.796564,0.96924 -0.09801,-0.28966 -1.904079,1.0533 -4.32562,3.21647 -2.28654,2.04257 -4.940921,4.3061 -5.898624,5.03007 -0.957703,0.72397 -3.0432266,2.61839 -4.6344965,4.20982 -5.8840128,5.88461 -2.5007868,1.13481 4.0793935,-5.72716 8.354359,-8.71213 17.084958,-14.86278 31.380596,-22.10743 5.334284,-2.70328 6.04662,-3.0241 11.659708,-5.25131 3.3095,-1.31317 18.288851,-6.46661 21.510151,-7.40027 0.995096,-0.28841 2.765828,-0.90825 3.934959,-1.3774 1.169131,-0.46916 2.707006,-0.85578 3.417501,-0.85917 0.981944,-0.005 1.147146,-0.0996 0.688718,-0.3959 -0.503574,-0.32543 -0.470404,-0.40076 0.20103,-0.45653 0.442265,-0.0367 1.296274,-0.0287 1.897794,0.018 2.61241,0.20242 10.546412,-4.66012 12.195713,-7.47444 1.609472,-2.74636 3.564772,-4.72866 5.492722,-5.56857 0.94759,-0.41281 2.53706,-1.49024 3.53216,-2.39429 0.99509,-0.90405 3.07575,-2.34275 4.62367,-3.19712 1.54793,-0.85438 3.6416,-2.29503 4.6526,-3.20146 2.82698,-2.53458 3.31557,-2.86589 4.33821,-2.94168 0.52229,-0.0387 1.26024,-0.35149 1.63989,-0.69507 0.37965,-0.34359 0.9951,-0.6247 1.36767,-0.6247 0.37257,0 0.99157,-0.17211 1.37555,-0.38248 1.13875,-0.62385 7.34513,-2.72677 9.9455,-3.36984 5.46077,-1.35044 8.68048,-1.87129 13.06692,-2.11381 2.829,-0.15641 4.96931,-0.47209 5.51416,-0.81328 1.14098,-0.71452 2.25429,-0.70257 5.54,0.0594 4.75502,1.10276 7.44055,-0.2091 7.44055,-3.63466 0,-2.38208 0.60507,-3.25235 6.66255,-9.582694 5.72275,-5.98054 7.04595,-6.7441 12.17013,-7.02286 4.30049,-0.23395 6.16105,0.34712 8.60784,2.68832 1.05037,1.00505 1.90978,1.96624 1.90978,2.13598 0,0.16975 1.08531,1.44303 2.41181,2.82953 2.73276,2.85636 4.88129,6.749594 3.71958,6.740054 -0.16585,-0.001 -0.84432,-0.29024 -1.50772,-0.64195 -0.66339,-0.3517 -2.20369,-0.73369 -3.42287,-0.84885 -2.00466,-0.18936 -2.35046,-0.0991 -3.61523,0.94349 -2.75557,2.27153 -4.81954,4.69592 -5.2175,6.1286 -0.22262,0.80147 -0.40578,4.00477 -0.40701,7.11844 -0.002,6.4801 -0.94136,12.62531 -2.5213,16.50419 -1.34443,3.30067 -3.39951,6.23834 -8.40146,12.00959 -2.29986,2.65359 -5.07501,6.0912 -6.167,7.63912 -4.67457,6.62633 -10.18959,10.48066 -16.68543,11.66108 -0.55283,0.10047 -1.90978,0.36966 -3.01544,0.59821 -1.10566,0.22855 -3.09586,0.61277 -4.42265,0.85383 -1.3268,0.24105 -3.35307,0.61159 -4.50284,0.82341 -1.63922,0.302 -2.36448,0.69721 -3.35982,1.83084 -1.1818,1.34599 -1.25853,1.61469 -1.11248,3.89579 0.16055,2.50761 1.69149,6.33942 4.65138,11.64202 0.7236,1.29632 1.42585,2.79607 1.56056,3.3328 0.13471,0.53672 0.82862,1.42106 1.54201,1.96519 1.5322,1.16867 4.64971,1.35504 6.50251,0.38873 2.67281,-1.39397 5.38717,-0.18619 5.36045,2.38518 -0.0119,1.15002 -0.0503,1.18134 -0.58377,0.47684 -0.69283,-0.91494 -1.81579,-0.59542 -1.81579,0.51666 0,0.43615 -0.18093,0.90482 -0.40206,1.04149 -0.22113,0.13667 -0.40206,-0.0214 -0.40206,-0.35124 0,-0.95603 -1.5558,-1.22804 -2.44117,-0.4268 -0.42642,0.3859 -0.7753,0.94499 -0.7753,1.24242 0,0.67334 -0.48916,0.69491 -1.13406,0.05 -0.77212,-0.77212 -3.40767,-0.80403 -3.97545,-0.0481 -0.43484,0.57892 -0.9506,0.59547 -4.91495,0.15769 -3.92679,-0.43363 -8.08081,-0.35333 -10.78209,0.20842 -0.49755,0.10347 -0.90463,0.0281 -0.90463,-0.16738 z m 8.83914,-9.3329 c 0.003,-0.78699 -0.22736,-1.75023 -0.51276,-2.14054 -0.44606,-0.61002 -0.67189,-0.63997 -1.60824,-0.21334 -0.59912,0.27298 -1.08932,0.65457 -1.08932,0.84799 0,0.40798 1.0867,2.21278 1.95556,3.24781 0.7701,0.91737 1.24616,0.25647 1.25476,-1.74192 z m -2.71759,-4.81151 0.64622,-2.02076 -1.44183,-3.20601 c -1.39386,-3.09932 -2.17338,-3.86301 -2.65693,-2.60291 -0.12728,0.3317 -0.50849,0.60309 -0.84713,0.60309 -0.33864,0 -0.61571,0.0677 -0.61571,0.15048 0,0.95684 3.58228,9.09687 4.00337,9.09687 0.14619,0 0.55659,-0.90934 0.91201,-2.02076 z" />
</svg>
