<svg xmlns="http://www.w3.org/2000/svg" viewBox="31.8 85.1 137.1 110.1">
<path fill="currentColor" d="m 123.87609,188.22539 -0.24026,-0.6304 -4.44454,0.21078 -4.44454,0.21078 -1.06601,-0.4678 c -0.58631,-0.25729 -1.42062,-0.41063 -1.85401,-0.34075 l -0.78798,0.12706 v -1.25708 -1.25708 l 1.05747,-0.59179 1.05746,-0.59179 3.67043,0.33282 3.67044,0.33283 v -0.52581 c 0,-0.28919 -2.69891,-4.82559 -5.99758,-10.08088 0,0 -5.03656,-5.91948 -5.99756,-9.55509 -0.32475,-1.22858 0.11099,-2.53913 0.16649,-3.80869 0.0555,-1.26956 0.59732,-2.61317 0.1665,-3.80869 -0.18576,-0.51547 -0.73522,-0.8126 -1.10283,-1.2189 -0.36761,-0.4063 -0.63038,-0.94139 -1.10282,-1.2189 -0.9308,-0.54675 -2.10369,-0.48559 -3.15553,-0.72838 -1.05184,-0.2428 -3.15553,-0.72839 -3.15553,-0.72839 l -4.567061,3.05997 c -5.16612,3.46133 -12.65346,7.00551 -13.37449,7.00551 -0.72103,0 -0.74229,0.22127 -0.96356,0 -0.22127,-0.22127 0,-0.43072 0,-0.91398 0,-0.48327 3.77518,-6.57183 4.44625,-6.98658 0.67107,-0.41475 0.59685,-1.18513 0.59685,-1.49474 0,-0.30962 -0.199603,-0.68025 0,-1.12586 0.199603,-0.44561 0.97576,-0.87064 1.34588,-1.20088 0.37012,-0.33025 2.6246,-3.24155 3.10963,-4.01559 l 1.76374,-2.81472 -3.12488,-1.70885 c -1.71867,-0.93987 -4.45499,-2.00099 -4.95952,-2.11181 -0.50453,-0.11082 -1.159385,-0.4248 -1.83464,-0.40295 -0.675255,0.0219 -1.515265,0.4372 -2.09002,0.60304 -0.574755,0.16584 -2.83382,0.90854 -3.11595,1.02441 -0.28213,0.11587 -0.541994,0.68437 -1.02593,0.42136 -0.483936,-0.26301 -0.269892,-1.43867 -0.40484,-2.158 -0.134948,-0.71933 0.799946,-1.01199 -0.40485,-2.158 -1.204796,-1.14601 -5.589625,-0.76175 -7.70983,-1.05069 -2.120205,-0.28894 -15.559975,-1.83023 -18.53761,-2.12592 -2.977635,-0.29569 -9.438939,0.50284 -10.82778,-1.07523 -1.388841,-1.57807 0.0328,-1.15425 0.0492,-1.73138 0.0164,-0.57713 -0.170009,-1.25569 0.0492,-1.73138 0.219209,-0.47569 0.697222,-0.63097 1.04583,-0.94646 0.348608,-0.31549 -0.15859,-0.40576 1.04582,-0.94646 1.20441,-0.5407 4.315047,-0.46943 6.47257,-0.70414 2.157523,-0.23471 4.108871,-0.62484 6.47257,-0.70414 2.363699,-0.0793 5.562835,0.22982 7.67287,0.31699 2.110035,0.0872 10.9351,0.65635 14.9223,1.07114 l 7.24944,0.75414 c 0,0 7.354508,-0.26538 8.82541,-0.31845 1.470903,-0.0531 7.05574,0.0459 8.825421,-0.31846 1.76968,-0.36438 1.24909,-0.48459 1.87364,-0.72688 0.62455,-0.24229 0.89846,-0.1074 1.87364,-0.72687 0.97518,-0.61947 2.37443,-2.26482 3.56164,-3.39723 1.18721,-1.13241 2.56817,-2.85605 3.56164,-3.39723 0.99347,-0.54118 0.92886,-0.16883 1.81416,-0.4359 0.8853,-0.26707 2.61395,-0.8979 3.45893,-1.26328 0.84498,-0.36538 1.22618,-0.36703 1.64477,-0.82739 0.41859,-0.46036 0.18937,-0.29425 0.68618,-1.76329 0.49681,-1.46904 1.48988,-5.04008 2.0564,-7.12157 0.56652,-2.08149 0.83038,-4.02276 1.37021,-5.35829 0.53983,-1.33553 0.71423,-1.40856 1.54077,-2.70419 0.82654,-1.295625 2.98907,-4.353716 3.53843,-4.979401 0.54936,-0.625685 1.28882,-1.765923 1.99765,-2.2752 0.70883,-0.509277 1.35891,-0.567787 2.03836,-0.85168 0.67945,-0.283893 1.02984,-0.651326 2.03835,-0.85168 1.00851,-0.200354 2.64011,0.0094 3.96017,0.0141 1.32005,0.0047 2.63479,-0.294483 3.96016,0.0141 1.32537,0.308583 2.51928,1.229227 3.77892,1.84384 1.25964,0.614613 2.66111,1.664753 3.77891,1.84384 1.1178,0.179087 1.04823,0.04508 2.56361,-0.35138 1.51538,-0.39646 4.07105,-0.04917 6.14968,0.39308 1.19535,0.248155 3.58606,0.74446 3.58606,0.74446 0.73697,0.531192 0.73622,1.161129 0,2.19369 -0.81145,1.095938 -4.51777,1.378319 -6.77666,2.067481 -2.25889,0.68916 -6.77665,2.06749 -6.77665,2.06749 l -1.76567,2.51795 c -0.58856,0.83932 -1.81692,1.38832 -1.76566,2.51796 0.0513,1.12964 1.38229,1.56484 2.39605,2.83182 1.01376,1.26698 2.84378,3.6602 3.63461,4.80686 0.79083,1.14666 0.99215,1.09058 1.23857,1.97503 0.24642,0.88445 -0.0353,2.11805 -0.053,3.17707 -0.0177,1.05902 0.16946,1.58653 -0.053,3.17707 -0.22246,1.59054 -1.11215,4.15963 -1.66823,6.23944 -0.55608,2.07981 -1.04768,4.67652 -1.66823,6.23944 -0.62055,1.56292 -1.14915,2.13053 -1.72372,3.1958 -0.57457,1.06527 -0.76862,2.02506 -1.72371,3.19579 -0.95509,1.17073 -2.1343,1.93027 -4.16746,3.48769 -2.03316,1.55742 -6.0927,4.41493 -8.13816,5.69404 -2.04546,1.27911 -3.16215,1.48854 -3.97067,2.20635 -0.80852,0.71781 -0.61613,0.63333 -1.13921,1.57596 -0.52308,0.94263 -1.35295,3.04289 -1.70851,4.18858 -0.35556,1.14569 -1.06081,0.68507 -0.56928,2.61259 0.49153,1.92752 4.04286,4.66649 6.0643,6.99973 2.02144,2.33324 4.46464,5.51147 6.06432,6.99973 1.59968,1.48826 2.05503,1.53577 3.08255,2.30366 1.02752,0.76789 3.08256,2.30365 3.08256,2.30365 l 2.59092,-1.4079 2.59092,-1.40789 1.73357,0.66567 1.73356,0.66567 v 0.91109 0.91109 l 2.04875,0.43808 c 2.3514,0.50278 3.62473,1.3717 3.62473,2.47352 v 0.76588 l -8.7894,0.0529 -8.78939,0.0529 -0.74359,-0.89597 c -1.05988,-1.27707 -2.02666,-1.11753 -4.11589,0.67922 l -1.83161,1.5752 1.45981,6.3e-4 c 0.8029,4.2e-4 2.00851,0.29442 2.67914,0.65333 l 1.21933,0.65257 v 0.83882 0.83882 l -7.64489,-0.073 -7.64489,-0.073 -0.24027,-0.6304 z m 6.60656,-5.24334 -1.86537,-0.20023 -0.31976,-0.83329 -0.31976,-0.83327 -1.22006,0.31905 -1.22006,0.31905 v -0.94191 c 0,-0.51806 0.41898,-1.28965 0.93108,-1.71465 0,0 0.1714,-0.56977 0.93108,-0.77272 0.75968,-0.20295 3.45707,0.5956 3.45707,0.5956 l 3.45707,0.59561 c 0,0 -0.29743,-0.49884 -0.41024,-0.68805 -0.11282,-0.18922 -3.12224,-3.91544 -6.4369,-7.86005 -3.31467,-3.94461 -5.04575,-6.01033 -7.4087,-9.14061 -0.48305,-0.63991 -1.13159,-1.20696 -1.38204,-1.9686 -0.16234,-0.49368 -0.0242,-1.03909 -0.0363,-1.55863 -0.0121,-0.51954 0.46101,-1.40812 -0.0364,-1.55863 -0.57104,-0.17279 -0.73395,0.94621 -1.02682,1.46599 -0.74861,1.32861 -1.31717,2.7557 -1.8455,4.18626 -0.32806,0.88829 -0.92608,1.77944 -0.81869,2.72026 0.24247,2.12423 3.18505,5.5674 3.18505,5.5674 1.75177,3.06207 4.19335,7.09181 5.42573,8.95498 l 2.24068,3.38757 1.87411,1.13971 1.8741,1.13971 1.41798,-1.06016 1.41799,-1.06016 -1.86537,-0.20023 z" />
</svg>
