<svg xmlns="http://www.w3.org/2000/svg" viewBox="42.9 68.6 147.5 128.3">
<path fill="currentColor" d="m 128.20784,189.66482 c -1.35147,-0.27832 -3.4087,-1.14445 -4.57163,-1.92471 l -2.1144,-1.41867 -4.19066,-0.18757 c -2.30487,-0.10315 -5.30499,-0.28129 -6.66696,-0.39582 l -2.47629,-0.20827 0.25065,-0.76194 c 0.13786,-0.41906 1.58804,-1.44431 2.09533,-1.70313 0.50729,-0.25882 1.10432,-0.76143 1.84467,-0.94119 0.74035,-0.17976 1.66681,-0.008 2.50021,-0.0115 0.8334,-0.004 1.98793,0.34236 2.50021,-0.0115 0.51228,-0.35386 0.29509,-0.76895 0.44262,-1.15342 0.14753,-0.38447 0.5668,-0.10893 0.44259,-1.15341 -0.12421,-1.04448 -2.08726,-3.03056 -2.87898,-4.18014 -0.79172,-1.14958 -3.15833,-4.18022 -3.49975,-4.18022 -0.34143,0 -0.83591,-0.85717 -1.09886,-1.90484 -0.26295,-1.04767 -0.91888,-1.90485 -1.08608,-1.90485 -0.1672,0 -0.37311,0.30424 -0.60802,0 -0.23491,-0.30424 0.28644,-1.09534 0.42966,-1.64301 0.14322,-0.54767 0.79626,-1.37208 0.42967,-1.64303 -0.36659,-0.27095 -0.58797,0.3634 -0.88196,0.54509 -0.29399,0.18169 -0.55811,0.72563 -0.88196,0.54507 -0.32385,-0.18056 0,-0.79191 0,-1.18787 0,-0.39596 0.37547,-0.8124 0,-1.18787 -0.37547,-0.37547 -1.33209,0 -1.99814,0 -0.66605,0 -1.75498,0.51781 -1.99814,0 -0.24316,-0.51781 0.61064,-0.73577 0.91596,-1.10366 0.30532,-0.36789 1.45308,-0.0741 0.91597,-1.10367 -0.53711,-1.02954 -3.67583,0.30817 -5.51375,0.46225 -1.837917,0.15408 -4.940963,1.3956 -5.513753,0.46226 -0.57279,-0.93334 0.363598,-0.58832 0.545395,-0.88247 0.181797,-0.29415 0.744033,-0.52615 0.545386,-0.88245 -0.198647,-0.3563 -0.940135,0 -1.410201,0 -0.470066,0 -0.445744,-0.40728 -1.410197,0 -0.964453,0.40728 -2.264583,2.32772 -3.396875,3.49158 -1.132292,1.16386 -2.302913,2.68052 -3.396875,3.4916 -1.093962,0.81108 -1.954426,1.00962 -2.931639,1.51443 -0.977213,0.50481 -1.108529,0.90699 -2.931639,1.51442 -1.82311,0.60743 -5.410969,0.90884 -8.116454,1.36326 -2.705485,0.45442 -5.647158,1.17293 -8.116454,1.36325 -2.469296,0.19032 -4.419365,-0.0555 -6.629047,-0.0833 -2.209682,-0.0278 -5.452243,0.42433 -6.629045,-0.0833 -1.176802,-0.50763 -0.491431,-0.50796 -0.737146,-0.76194 -0.245715,-0.25398 -0.983052,1.98635 -0.737146,-0.76194 0.245906,-2.74829 8.386797,-6.03131 12.580196,-9.04697 4.193399,-3.01566 10.114573,-6.58235 12.580198,-9.04698 2.465625,-2.46463 2.296298,-3.19039 3.167307,-4.40053 0.871009,-1.21015 5.100722,-7.60205 5.834087,-8.81642 0.733365,-1.21437 1.363387,-2.69883 2.666782,-4.41589 1.303395,-1.71706 3.553493,-3.77415 5.330238,-5.66123 1.776745,-1.88708 3.64814,-4.19357 5.330234,-5.66124 1.682094,-1.46767 0.105693,-0.0754 4.574958,-3.26161 4.46926,-3.18626 25.50856,-12.17907 33.00752,-14.10837 7.49895,-1.92931 6.84419,-1.39144 8.62218,-2.21829 1.77799,-0.82685 1.55432,-1.10677 2.33147,-1.66015 0.77715,-0.55338 1.67687,-0.8487 2.33145,-1.66015 0.65458,-0.81145 0.97062,-2.260514 1.3388,-3.117952 0.36817,-0.857439 1.70921,-6.098227 1.84971,-7.228668 0.1405,-1.130442 0.15755,-2.959368 0.51091,-4.110718 0.35336,-1.15135 0.51294,-1.005012 1.40188,-2.74672 0.88894,-1.741708 5.53984,-5.91106 7.67324,-6.87876 2.13339,-0.967701 2.45734,-1.338052 3.41502,-1.549037 0.95768,-0.210985 1.42259,-0.01117 2.13389,-0.01675 0.7113,-0.0056 0.68567,-0.281435 2.13389,-0.01675 1.44822,0.264685 4.52936,1.753596 6.24741,2.41876 1.71805,0.665163 6.84747,2.926391 7.58083,3.546816 1.31687,1.114061 1.86957,3.313869 0.76194,3.032525 -3.30525,-0.83953 -9.23882,4.440699 -10.6263,6.808252 -1.38748,2.367553 -1.61002,1.973644 -1.89655,3.23624 -0.28653,1.262596 0.2241,2.668724 0.33615,4.003089 0.11205,1.334365 -0.11094,1.963673 0.33617,4.003103 0.44711,2.03943 1.93393,5.33355 2.90089,8.00033 0.96696,2.66678 2.49555,5.70442 2.90089,8.00035 0.40534,2.29593 0.006,3.65237 0.009,5.47856 0.003,1.82619 0.423,3.69363 0.009,5.47856 -0.414,1.78493 -1.62401,3.2988 -2.43601,4.9482 -0.812,1.6494 -1.18081,3.26487 -2.43599,4.94822 -1.25518,1.68335 -3.46537,3.20799 -5.19806,4.81198 -1.73269,1.60399 -3.15471,3.28865 -5.19806,4.81198 -2.04335,1.52333 -4.70947,2.7872 -7.06421,4.1808 -2.35474,1.3936 -5.34025,2.6545 -7.0642,4.18081 -1.72395,1.52631 -2.27936,2.96219 -3.41904,4.44329 -1.13968,1.4811 -3.11518,3.14102 -3.41904,4.44331 -0.30386,1.30229 0.31603,1.58013 0.47404,2.3702 0.15801,0.79007 0.05,1.3207 0.47404,2.37021 0.42401,1.04951 1.57498,2.45439 2.36247,3.68159 0.78749,1.2272 1.56134,2.84083 2.36248,3.6816 0.80114,0.84077 1.4085,1.00294 2.11275,1.50441 0.70425,0.50147 1.09664,1.05672 2.11276,1.50443 1.01612,0.44771 2.65212,0.56876 3.97817,0.85315 1.32605,0.28439 3.08366,0.36644 3.97815,0.85316 0.89449,0.48672 1.44352,1.44351 1.44352,1.44351 0.79392,0.79392 1.44349,1.75374 1.44349,2.13293 v 0.68943 l -3.17427,-0.42576 -3.17428,-0.42576 0.51613,1.34504 0.51615,1.34503 -1.21387,-0.46579 c -0.66766,-0.2562 -2.33429,-0.46581 -3.7037,-0.46581 h -2.4898 l -3.35289,-2.27194 c -4.39948,-2.98113 -7.76953,-3.17876 -4.87677,-0.286 0.6286,0.62861 1.1429,1.37805 1.1429,1.66542 v 0.52253 l -3.37635,-0.26852 -3.37637,-0.26855 0.37763,1.44405 0.37762,1.44404 -2.5253,-0.003 c -1.38892,-0.001 -3.63107,-0.2311 -4.98252,-0.50942 z m 9.12416,-9.96411 c 1.48285,-0.7796 -1.73475,-5.2085 -4.99331,-8.09476 -3.25856,-2.88627 -2.47916,-1.74522 -2.81655,-2.49478 -0.33739,-0.74956 0,-0.77959 0,-1.16939 0,-0.3898 0.30062,-1.00179 0,-1.1694 -0.30062,-0.16761 -0.50796,0.31392 -0.76194,0.47089 -0.25398,0.15697 -0.46517,0.63636 -0.76193,0.47091 -0.29676,-0.16545 0,-0.82861 0,-1.14291 0,-0.3143 -0.5973,-1.51204 -0.82386,-1.65206 -0.22656,-0.14002 -0.15486,-0.57981 -0.82384,-0.50918 -0.66898,0.0706 -1.60599,1.53861 -2.21514,2.12223 -0.60916,0.58362 -2.54596,3.16456 -2.67144,3.55993 -0.12549,0.39537 -0.53759,0.43046 -0.4563,1.43769 0.0813,1.00723 1.37083,2.7094 2.05625,4.0641 0.68542,1.3547 1.30274,3.31484 2.05625,4.0641 0.75351,0.74926 1.08634,0.54195 1.62952,0.81292 0.54318,0.27097 0.70103,0.64996 1.62953,0.81291 0.9285,0.16295 2.76201,-0.31981 3.80968,-0.4411 1.04767,-0.12129 3.66023,-0.3625 5.14308,-1.1421 z" />
</svg>
