<svg xmlns="http://www.w3.org/2000/svg" viewBox="17.7 78.8 164.7 91.5">
<path fill="currentColor" d="m 39.097958,160.99818 c 3.870082,-2.0077 11.395559,-7.45663 13.724229,-9.94118 0.527321,-0.56262 0.863532,-1.40773 1.581954,-1.68787 1.503042,-0.5861 3.21767,0.2391 4.826505,0.35865 1.608826,0.11954 3.220582,0.5126 4.826478,0.35862 0.941951,-0.0903 1.826304,-0.49631 2.739456,-0.74447 0.913152,-0.24816 1.90298,-0.30205 2.739457,-0.74447 1.945863,-1.02919 3.345422,-2.86192 5.018129,-4.29288 2.759955,-2.36108 5.989616,-4.79329 7.176973,-5.4049 0.719621,-0.37068 1.372042,-0.92187 2.15887,-1.11202 1.158321,-0.27993 2.383333,0.003 3.574999,0.005 1.191666,0.002 2.391668,-0.13571 3.574999,0.005 1.868107,0.22214 3.658848,0.87721 5.48827,1.31583 3.018557,0.72372 8.061013,2.38083 11.205493,3.68249 3.14448,1.30165 7.01163,2.57363 8.59369,2.8266 0.95882,0.15331 1.90569,0.43868 2.87646,0.45999 2.55061,0.056 5.06893,-0.58387 7.60339,-0.8758 2.53446,-0.29193 5.05441,-0.98291 7.60337,-0.87578 1.45595,0.0612 2.85713,0.57527 4.28569,0.8629 1.42857,0.28763 2.83686,0.70672 4.28571,0.8629 2.12412,0.22897 4.27229,0.0687 6.40844,0.10301 2.13614,0.0343 4.3367,-0.41873 6.40843,0.103 1.53748,0.38719 2.81652,1.45679 4.22478,2.18518 1.40825,0.72839 2.71331,1.70638 4.22476,2.18518 0.97085,0.30754 2.01793,0.27659 3.02689,0.41489 1.00896,0.1383 2.25942,1.08432 3.02687,0.41489 0.32423,-0.28282 0,-0.86049 0,-1.29074 0,-0.70993 -0.43975,-1.91857 -0.97722,-2.68594 -0.32573,-0.46506 -0.53775,-1.03566 -0.97723,-1.39517 -2.13398,-1.74566 -5.05374,-2.20553 -7.58062,-3.30829 -2.52688,-1.10276 -8.08865,-0.59845 -7.58064,-3.30827 0.29826,-1.59099 3.23471,-0.13223 4.85207,-0.19835 1.61735,-0.0661 3.26182,-0.50058 4.85206,-0.19836 1.12341,0.2135 2.09154,0.92519 3.13731,1.38778 1.7255,0.76326 4.25915,1.56716 5.63033,1.78643 0.83101,0.13289 1.76393,0.81893 2.49304,0.39865 0.29352,-0.16919 0.24275,-0.6326 0.36413,-0.9489 0.12138,-0.3163 0.36949,-0.61015 0.36413,-0.9489 -0.0122,-0.77139 -0.59806,-1.42234 -0.89709,-2.13352 -0.29902,-0.71117 -0.30634,-1.63731 -0.89706,-2.13353 -0.40848,-0.34313 -1.04017,-0.23757 -1.56024,-0.3564 -0.85813,-0.19607 -4.44404,-0.96884 -7.96869,-1.71734 -3.52464,-0.74853 -7.72569,-1.84843 -9.33566,-2.44424 -0.97573,-0.36109 -2.41277,-0.17894 -2.92721,-1.08326 -0.41072,-0.722 0.45087,-2.45082 0.45087,-2.45082 0.24798,-1.34797 1.02221,-3.51579 1.66849,-5.22661 0.35704,-0.94517 0.42543,-2.14861 1.21757,-2.77578 1.23073,-0.97443 3.08774,-0.56808 4.63161,-0.85212 1.54387,-0.28404 3.21824,-0.16905 4.63162,-0.85212 5.78625,-3.73282 4.71847,-9.60788 1.41067,-14.06653 -0.86287,-1.15655 -2.10762,-1.97144 -3.16143,-2.95716 -1.05382,-0.98572 -1.90584,-2.2461 -3.16146,-2.957165 -1.49759,-0.848096 -3.35369,-0.812675 -4.96418,-1.41959 -4.43431,-1.671072 -5.84679,-1.7397 -12.84846,-6.08418 l -4.89218,-3.03559 c 0,0 -3.84031,-0.244965 -5.75409,-0.43919 -2.43086,-0.246703 -4.88579,-0.395843 -7.27184,-0.9219 -0.51845,-0.114304 -1.08928,-0.79608 -1.51781,-0.48268 -0.28754,0.210286 0,0.712453 0,1.06868 0,0.356223 -0.15881,0.749807 0,1.06867 0.65941,1.32397 3.54153,2.6734 3.54153,2.6734 1.94781,1.47038 4.63538,3.007647 7.0695,4.30759 1.14323,0.610542 3.76584,0.360182 3.52802,1.63422 -0.37027,1.983555 -4.02719,0.260907 -6.04079,0.39136 -2.0136,0.130453 -4.09033,-0.125643 -6.04079,0.39136 -0.65312,0.173121 -1.25395,0.522431 -1.82212,0.88811 -0.76219,0.490548 -1.58671,0.982084 -2.09681,1.731325 -0.16636,0.24435 -0.44834,0.604 -0.27467,0.84322 0.32513,0.44785 1.11088,-0.0668 1.66026,0 1.38164,0.16791 2.70113,0.67271 4.05388,1.00012 1.99727,0.4834 3.97461,1.06592 5.99816,1.42375 1.19129,0.21066 2.39825,0.51574 3.60452,0.42364 0.84693,-0.0647 1.63752,-0.45214 2.45628,-0.67821 0.81876,-0.22607 1.72034,-1.10233 2.45627,-0.67821 0.41551,0.23946 0.24265,0.92794 0.36398,1.39191 0.12133,0.46398 0.46258,0.92259 0.364,1.39193 -0.22591,1.07552 -1.36467,1.72301 -2.047,2.58452 -0.68233,0.86151 -1.05824,2.1048 -2.04699,2.58455 -0.94394,0.45801 -2.09836,0.005 -3.14754,0.008 -1.04917,0.003 -2.10997,-0.1478 -3.14751,0.008 -1.16222,0.17452 -2.24858,0.68465 -3.37287,1.02697 -1.12429,0.34232 -2.20706,0.87831 -3.37287,1.02696 -3.34872,0.42698 -6.74573,-0.28291 -10.11859,-0.42437 -3.37286,-0.14146 -6.78415,0.10265 -10.11858,-0.42438 -2.51025,-0.39676 -4.896508,-1.36359 -7.344761,-2.04539 -2.448255,-0.6818 -4.812247,-1.83286 -7.344761,-2.04541 -1.320645,-0.11084 -2.636215,0.27554 -3.954323,0.41331 -1.318108,0.13777 -2.969699,1.30039 -3.954324,0.41331 -0.318283,-0.28675 0,-0.85681 0,-1.28521 0,-0.42839 -0.271684,-0.55466 -0.540152,-0.8885 -0.417875,-0.51962 -0.762403,-0.68278 -1.413681,-0.82583 -0.651277,-0.14305 -1.289717,-0.48893 -1.953833,-0.42914 -0.842649,0.0759 -1.5613,0.65237 -2.341954,0.97855 -0.780657,0.32618 -1.672296,0.46147 -2.341979,0.97852 -0.772376,0.59634 -1.183554,1.55176 -1.775338,2.32763 -0.591783,0.77587 -1.46304,1.40313 -1.775364,2.3276 -0.271099,0.80244 0,1.69399 0,2.54099 0,0.847 0.289259,1.74492 0,2.541 -0.464795,1.27918 -1.747403,2.08707 -2.621105,3.13061 -0.87371,1.04355 -1.975718,1.93239 -2.621131,3.13064 -0.487948,0.9059 -0.590636,1.97134 -0.885948,2.95701 -0.295311,0.98567 -0.257379,2.14234 -0.885923,2.95701 -0.490856,0.63621 -1.372101,0.83674 -2.058162,1.2551 -1.132006,0.69029 -2.665288,1.25816 -3.407314,1.2614 -0.742025,0.003 -2.500817,0.32609 -3.908432,0.71696 -0.853105,0.23689 -1.786965,0.27782 -2.559304,0.71072 -1.799171,1.00843 -3.015813,2.81437 -4.523718,4.22156 -1.507907,1.40719 -2.782802,3.1156 -4.523718,4.22157 -0.634691,0.40321 -1.396003,0.5593 -2.094008,0.83894 -2.492352,0.99851 -5.87101,1.17354 -8.81257,0.45652 -2.907774,-0.93267 -2.894402,1.98685 -3.204216,1.54257 -0.586884,1.13491 -1.067069,2.52322 -1.067069,3.08512 0,0.34054 -0.174993,0.72948 0,1.02161 0.281219,0.46947 0.964992,0.51646 1.44749,0.77469 0.482503,0.25823 0.910927,0.66714 1.447515,0.77468 1.059527,0.21235 2.151289,-0.2067 3.226933,-0.31005 1.075653,-0.10336 2.2006,0.028 3.226958,-0.31008 2.321666,-0.76476 4.19157,-2.51609 6.287354,-3.77414 2.095785,-1.25805 3.998437,-2.91632 6.287353,-3.77415 0.77755,-0.29141 1.634917,-0.29163 2.452375,-0.43745 0.817468,-0.14582 1.694316,-0.77634 2.452401,-0.43748 0.227009,0.10147 0.261446,0.42304 0.392174,0.63456 0.13073,0.21152 0.476984,0.4008 0.3922,0.63456 -0.300336,0.82806 -1.671529,0.55637 -2.507293,0.83455 -0.835764,0.27818 -1.815874,0.28881 -2.507293,0.83455 -0.836378,0.66015 -1.124291,1.81033 -1.686435,2.71549 -0.927531,1.49351 -3.163398,4.04904 -4.968591,5.67897 -1.094056,0.98784 -1.952648,2.327 -3.282182,2.96349 -0.811757,0.38861 -1.777388,0.2842 -2.66608,0.42631 -0.888686,0.14211 -1.910637,-0.0628 -2.666054,0.42634 -0.519777,0.33659 -0.678761,1.03592 -1.018143,1.55388 -0.339389,0.51797 -0.883284,0.94952 -1.018169,1.55391 -0.114164,0.51154 0.147196,1.03786 0.220793,1.55679 0.0736,0.51894 -0.16252,1.19935 0.220792,1.55682 0.577013,0.53812 1.573999,0.11218 2.360999,0.16827 0.787,0.0561 1.588316,0.32788 2.360999,0.16827 1.240303,-0.25621 3.37264,-1.74964 3.37264,-1.74964 z" />
</svg>
