<svg xmlns="http://www.w3.org/2000/svg" viewBox="31.5 47.5 153.1 230.1">
<path fill="currentColor" d="m 135.17426,266.30296 3.06278,-0.82456 3.17405,-0.0325 3.17404,-0.0325 0.20965,-0.33922 0.20966,-0.33923 -1.02203,-2.01688 -1.02203,-2.01688 -1.08954,-0.85703 c -0.59924,-0.47136 -1.3263,-0.85702 -1.61568,-0.85702 -0.77077,0 -2.86858,-1.87383 -3.81845,-3.41074 l -0.8247,-1.33439 -0.32097,-14.8811 c -0.17653,-8.18461 -0.30845,-16.81066 -0.29316,-19.169 l 0.0278,-4.28789 0.72876,-2.95223 0.72875,-2.95223 1.34039,-2.22593 c 0.73722,-1.22426 3.53649,-5.04123 6.2206,-8.48215 2.68412,-3.44092 5.44307,-7.0891 6.131,-8.10706 1.55285,-2.29782 5.1832,-10.2854 6.08703,-13.39281 l 0.67372,-2.3163 -0.26294,-6.08244 c -0.14462,-3.34535 -0.49181,-8.21517 -0.77155,-10.82183 -0.27973,-2.60665 -0.49799,-5.84198 -0.48501,-7.1896 l 0.0236,-2.45022 0.8939,-1.99343 0.8939,-1.99343 1.7348,0.26541 c 0.95414,0.14597 2.66464,0.37599 3.80111,0.51116 l 2.06631,0.24574 1.0722,-1.27423 1.0722,-1.27423 0.53682,-0.009 c 0.29526,-0.005 1.30706,-0.35866 2.24845,-0.78605 l 1.71162,-0.77708 0.85888,-1.68354 0.85887,-1.68353 0.47651,-3.26932 0.47651,-3.26931 -0.47429,-0.69294 c -0.81782,-1.19487 -4.86396,-8.35365 -5.98113,-10.58235 l -1.06789,-2.13036 v -1.92125 -1.92124 l -1.75898,-1.68541 -1.75898,-1.68541 -3.65193,-1.55627 -3.65193,-1.55627 -0.97431,-0.87412 c -0.53587,-0.48077 -1.32247,-1.64833 -1.748,-2.59459 l -0.77369,-1.72046 0.59517,-2.56744 c 0.32735,-1.412088 1.0803,-5.32393 1.67321,-8.692989 0.59292,-3.369059 1.45917,-7.595696 1.925,-9.392528 l 0.84696,-3.266966 0.34991,-3.675337 c 0.19246,-2.021435 0.45629,-5.329238 0.5863,-7.350673 l 0.23639,-3.675337 -0.9501,-1.835445 -0.9501,-1.835444 -2.27978,-1.154935 -2.27978,-1.154935 -1.71806,-0.23044 -1.71805,-0.230439 -1.02033,0.958549 -1.02033,0.95855 -2.05951,6.550162 c -1.13273,3.60259 -2.15273,6.825813 -2.26666,7.162719 l -0.20716,0.612556 -0.90816,-3.062781 c -0.49949,-1.684529 -1.41496,-4.046993 -2.03438,-5.249919 l -1.12621,-2.187137 -1.82075,-1.769571 -1.82075,-1.76957 -2.30041,-0.860693 -2.30041,-0.860693 -2.03638,0.121138 -2.03638,0.121137 -0.75067,1.020927 -0.75066,1.020927 -0.8451,6.533932 -0.8451,6.533932 -0.0227,4.900449 -0.0228,4.90045 0.47758,3.669429 0.47759,3.669429 0.81253,1.836869 0.81253,1.836869 2.27195,2.097622 2.27194,2.097618 0.34546,1.788608 c 0.18999,0.98374 0.35783,3.25875 0.37297,5.05558 l 0.0275,3.26697 0.44652,1.63348 c 0.24559,0.89842 0.53181,2.46515 0.63605,3.48162 l 0.18952,1.84814 -1.7084,4.27742 -1.70839,4.27743 -0.3269,2.28604 -0.32689,2.28604 -1.83804,2.68473 -1.83804,2.68472 -0.26946,1.22686 -0.26946,1.22686 -0.98071,0.64259 -0.98071,0.64258 -1.74994,0.002 c -0.96247,0.001 -2.79873,0.17415 -4.08057,0.38411 l -2.33063,0.38175 -3.06532,2.06846 -3.06532,2.06845 -10.734697,5.12712 c -12.36548,5.90602 -22.69926,11.2056 -27.68209,14.19653 l -3.47116,2.08354 -3.52614,3.55535 -3.526139,3.55535 -3.21198,4.27829 c -6.968003,9.28124 -9.013018,14.09426 -11.764996,27.68932 -1.1564,5.71271 -1.266415,7.68667 -0.580275,10.41158 l 0.46342,1.8404 -0.529723,0.98979 -0.529722,0.9898 0.521514,2.96574 c 0.286836,1.63115 0.78506,3.60891 1.107171,4.39503 l 0.585653,1.4293 1.389208,1.42929 1.389204,1.4293 0.813279,1.84317 c 0.4473,1.01375 1.279372,3.81577 1.849046,6.22672 l 1.035767,4.38355 0.826555,1.53232 c 0.454606,0.84278 1.102099,1.91259 1.43887,2.37735 l 0.612319,0.84501 -1.214699,1.60521 -1.214699,1.60521 -0.26034,1.32452 -0.260345,1.32452 0.244336,0.9735 0.244333,0.9735 1.038401,0.68039 1.038401,0.68039 4.581496,1.21315 c 5.160685,1.36644 14.820285,3.2434 16.692245,3.2434 h 1.23456 l 0.75699,-0.91884 0.75698,-0.91883 0.4723,1.32967 0.4723,1.32966 0.87803,0.1795 c 1.16881,0.23895 15.72415,0.5048 16.94773,0.30955 l 0.95998,-0.15319 -0.21236,-0.88504 c -0.1168,-0.48677 -0.33561,-1.27974 -0.48624,-1.76216 l -0.27387,-0.87712 2.09867,-0.45008 c 1.15427,-0.24755 2.830597,-0.45009 3.725177,-0.45009 h 1.6265 l 1.41618,0.59172 1.41618,0.59172 v 0.48617 0.48617 l 4.71041,-0.20787 4.71041,-0.20787 0.39423,0.73662 0.39422,0.73662 v 2.20959 2.20959 l 0.71465,0.63526 c 0.39306,0.3494 1.44972,0.84617 2.34813,1.10396 l 1.63349,0.46869 5.513,0.17094 5.51301,0.17093 z m -24.36105,-16.09581 -1.46606,-0.61255 -2.70663,-0.0366 -2.70663,-0.0366 -3.26697,-1.0864 -3.266957,-1.08641 -0.12448,-1.49328 -0.12447,-1.49328 1.2981,-3.91473 1.2981,-3.91472 1.276597,-2.00926 c 0.70213,-1.10509 2.82006,-3.87226 4.70652,-6.14928 l 3.42992,-4.14003 0.27583,0.3271 c 0.44644,0.5294 1.54699,5.91755 2.86111,14.00751 0.67496,4.15517 1.4286,8.41903 1.67476,9.47523 l 0.44756,1.92038 -0.26437,0.42776 c -0.37161,0.60129 -1.62666,0.53188 -3.34193,-0.1848 z" />
</svg>
