<svg xmlns="http://www.w3.org/2000/svg" viewBox="2.2 98.6 208.8 161.7">
<path fill="currentColor" d="m 18.561569,250.55206 c 0.905792,-0.23671 0.82734,-0.51565 -0.620886,-2.20758 l -1.270141,-1.48387 -0.471872,-2.28458 -0.471869,-2.28458 0.636645,-3.2546 c 0.350155,-1.79003 0.805433,-5.17453 1.011724,-7.52112 0.206295,-2.34658 0.545854,-5.35169 0.754572,-6.67802 0.723515,-4.59761 3.735106,-12.24304 4.822622,-12.24304 0.204192,0 1.157119,-0.72932 2.117619,-1.62072 l 1.746362,-1.62072 6.863522,-3.91751 c 3.774937,-2.15463 7.78175,-4.27019 8.904029,-4.70125 1.122278,-0.43105 2.624833,-1.06978 3.339011,-1.4194 l 1.298504,-0.63565 1.298504,-2.41893 c 0.714177,-1.33041 1.837921,-3.24973 2.497209,-4.26516 0.659288,-1.01543 1.201877,-2.1384 1.205754,-2.49549 l 0.007,-0.64925 h 0.362449 c 0.199347,0 0.618441,0.3907 0.931325,0.86822 l 0.568878,0.86822 0.627805,4.17885 0.627808,4.17885 -0.666496,3.93938 -0.666497,3.93938 -1.263526,3.53484 c -0.694941,1.94417 -1.263578,3.95986 -1.263637,4.47932 l -1.12e-4,0.94447 5.890219,8.19229 c 7.345223,10.21595 12.430963,17.01697 13.874755,18.55432 l 1.109561,1.18146 1.456406,0.24606 1.456406,0.24606 2.321577,1.96953 c 1.276867,1.08325 2.560999,2.31252 2.853626,2.73172 l 0.532045,0.76218 2.124182,-0.5064 2.124186,-0.5064 0.637332,-0.63733 0.637332,-0.63734 -0.699167,-0.51124 c -0.384542,-0.28118 -0.902382,-0.51125 -1.150753,-0.51125 -0.24837,0 -1.346185,-0.72874 -2.439588,-1.61941 -1.0934,-0.89068 -2.843161,-2.05276 -3.888349,-2.5824 l -1.900346,-0.96298 -1.798491,-2.14787 c -0.989171,-1.18132 -2.978031,-3.48347 -4.419682,-5.11588 -3.978561,-4.50498 -4.846481,-5.73834 -7.091647,-10.07761 l -2.069174,-3.99913 0.182637,-4.27716 0.182636,-4.27717 2.057109,-7.60553 c 1.62493,-6.00768 3.676711,-12.55901 4.153614,-13.26248 0.03428,-0.0506 1.467859,0.33085 3.185736,0.84758 1.717876,0.51673 5.196647,1.35402 7.7306,1.86065 l 4.607189,0.92114 5.595344,0.4063 5.595343,0.40631 6.861107,-0.23464 c 3.77361,-0.12905 7.74937,-0.33904 8.83501,-0.46664 l 1.97389,-0.23199 -0.2406,3.30013 c -0.13233,1.81507 -0.64349,6.13829 -1.13592,9.60715 -1.97579,13.91847 -4.25778,29.49152 -4.5534,31.0739 l -0.31313,1.6761 0.35463,1.98956 c 0.19505,1.09426 0.66233,3.07474 1.03839,4.40107 0.37606,1.32633 0.78698,2.78715 0.91316,3.24626 l 0.22941,0.83476 h 2.04201 2.042 l 0.5673,-0.5673 0.5673,-0.5673 -1.49795,-1.62509 -1.49794,-1.62508 -0.39852,-1.47997 -0.39851,-1.47998 0.35016,-1.79991 c 0.1926,-0.98995 0.45266,-3.55289 0.57792,-5.69542 0.12527,-2.14254 0.40361,-5.06417 0.61855,-6.49253 l 0.39079,-2.597 1.24341,-3.23676 1.2434,-3.23676 0.41645,-2.32826 0.41646,-2.32826 1.6273,-3.89551 c 2.23335,-5.34633 3.69483,-9.44791 4.23025,-11.87204 0.24788,-1.12228 0.62855,-2.5075 0.84594,-3.07826 l 0.39524,-1.03775 1.04232,-0.53901 c 1.4025,-0.72526 1.48982,-0.69158 1.06999,0.41265 -0.199,0.52341 -0.36182,1.17381 -0.36182,1.44533 v 0.49368 l 1.94776,1.24298 c 2.38226,1.52027 4.93575,3.83958 9.55669,8.68024 l 3.52793,3.69567 1.49591,2.24509 1.49591,2.24508 4.02736,11.48196 4.02737,11.48197 0.82598,0.742 c 0.45428,0.4081 1.24184,1.41226 1.75012,2.23145 0.50828,0.8192 1.19728,1.71613 1.53111,1.99318 l 0.60696,0.50374 v 0.66623 c 0,0.36643 0.10133,0.93031 0.22519,1.25308 l 0.2252,0.58684 h 2.28257 2.28257 l 0.44851,-0.71817 0.4485,-0.71818 -1.9359,-1.74054 c -2.79483,-2.51279 -4.25715,-5.12629 -7.66755,-13.70366 -2.08825,-5.25208 -2.10708,-5.32307 -2.61196,-9.84664 -0.21542,-1.93018 -0.57975,-4.09374 -0.80961,-4.80791 -0.59866,-1.86003 -7.98996,-15.81303 -9.45977,-17.85777 -1.56847,-2.182 -1.56762,-2.19075 0.48037,-4.90789 0.9439,-1.25231 1.87327,-2.61083 2.06526,-3.01893 l 0.34908,-0.742 2.29401,-1.48401 2.294,-1.484 0.73865,-1.48401 0.73865,-1.484 0.13026,-3.33901 0.13026,-3.33901 0.8006,-0.87331 0.80059,-0.87331 3.40322,-1.62747 c 4.2353,-2.02537 7.85195,-4.45082 10.52513,-7.05851 l 2.0563,-2.00593 1.9826,0.37599 c 1.09042,0.2068 2.92643,0.376 4.08001,0.376 h 2.09742 l 2.11983,-0.55215 c 1.16591,-0.30368 3.35729,-1.13937 4.86974,-1.85709 l 2.74991,-1.30494 0.95873,-1.13939 0.95873,-1.13938 v -1.03912 -1.03911 l -0.57571,-0.47779 -0.57571,-0.47779 -2.48505,0.79427 c -1.36678,0.43686 -3.27704,0.98488 -4.24502,1.21784 l -1.75996,0.42356 -2.4138,-0.2585 c -2.76845,-0.29648 -2.73729,-0.24927 -1.41959,-2.15071 l 0.99422,-1.43465 1.54264,-0.90405 1.54264,-0.90405 1.2659,0.005 1.26591,0.005 2.41151,0.76451 2.41151,0.76451 3.52451,0.18827 3.52451,0.18827 1.64285,0.52644 1.64284,0.52643 h 2.12957 c 1.17127,0 2.39366,-0.10133 2.71642,-0.22519 l 0.58685,-0.22519 v -0.51681 -0.51681 h 0.5565 0.5565 v -0.7208 c 0,-0.39643 0.33307,-1.2853 0.74016,-1.97527 l 0.74016,-1.25447 0.24157,-1.76246 0.24157,-1.76246 -2.03338,-1.92004 c -2.30141,-2.17312 -8.61993,-6.96253 -12.05379,-9.13671 l -2.29218,-1.45132 -0.38916,-0.72715 -0.38916,-0.72715 0.59064,-1.18396 0.59064,-1.18396 -0.26972,-4.32843 -0.26972,-4.32843 -0.86529,-1.70937 c -0.47591,-0.94015 -1.29191,-2.21638 -1.81334,-2.83606 -0.52143,-0.61969 -0.94806,-1.3198 -0.94806,-1.55581 0,-0.23601 -0.62606,-1.00649 -1.39125,-1.71218 l -1.39125,-1.28308 -2.93589,-1.13751 -2.93589,-1.13752 -2.99323,-0.52626 c -1.64627,-0.28944 -3.24675,-0.45248 -3.55663,-0.3623 -0.30987,0.0902 -1.56511,0.26488 -2.78941,0.38823 -2.6816,0.27017 -4.68901,0.91897 -7.73165,2.49889 l -2.28539,1.1867 -3.61826,3.65417 -3.61827,3.65417 -1.42131,3.03597 c -0.78171,1.66979 -1.88581,4.35409 -2.45354,5.96512 l -1.03223,2.92913 -0.0497,3.56339 c -0.0274,1.95986 0.0684,4.09108 0.21264,4.73605 l 0.26236,1.17266 -2.30286,0.91738 -2.30287,0.91738 -3.28708,0.43346 -3.28708,0.43347 -6.72995,-0.25313 -6.72995,-0.25313 -7.79103,1.62149 -7.79102,1.62149 -8.718532,-0.0386 -8.718528,-0.0386 -4.499651,-0.39777 -4.499655,-0.39777 -3.662371,0.34526 c -4.123486,0.38874 -13.206081,2.14002 -19.058925,3.67488 l -3.895513,1.02157 -3.524511,1.92035 -3.524511,1.92034 -3.640527,3.77494 -3.640524,3.77494 -1.612286,2.42641 c -0.886756,1.33452 -2.280236,3.67854 -3.096624,5.20892 l -1.484343,2.78251 -1.146623,3.62169 c -0.630643,1.99194 -1.146624,4.03708 -1.146624,4.54477 v 0.92307 h 0.325991 c 0.179294,0 0.518404,-0.46453 0.753574,-1.03228 0.235171,-0.56775 0.83975,-1.51195 1.343514,-2.09821 0.503764,-0.58627 0.915932,-1.22037 0.915932,-1.40913 0,-0.18875 0.87649,-1.67569 1.947756,-3.3043 l 1.947756,-2.96112 1.205754,1.38331 1.205754,1.38332 v 2.09606 c 0,1.15283 0.166984,3.00321 0.371079,4.11195 0.204092,1.10874 0.527486,3.26708 0.718648,4.79629 l 0.347569,2.78041 -0.388758,1.85711 -0.388757,1.85712 -0.838118,1.113 c -0.460965,0.61215 -1.971615,2.33524 -3.356993,3.82907 l -2.518875,2.71606 -2.164525,1.4699 -2.164525,1.4699 -3.248649,1.23512 -3.24865,1.23511 -0.666381,3.11195 c -0.366509,1.71157 -1.661414,8.7048 -2.877567,15.54049 -1.21615,6.8357 -2.403235,13.2004 -2.637964,14.14378 l -0.426781,1.71523 0.603663,1.84559 0.603664,1.84559 -0.448633,1.18857 -0.448634,1.18856 0.64506,1.12395 0.645056,1.12395 v 1.29283 c 0,0.71105 0.172824,1.61575 0.384054,2.01044 l 0.384057,0.71761 1.9347,-0.043 c 1.064087,-0.0237 2.226868,-0.11939 2.583957,-0.2127 z M 155.5732,133.10765 c 0.14022,-0.45911 0.48121,-1.38776 0.75775,-2.06365 l 0.5028,-1.22891 2.03323,-1.95361 2.03324,-1.95361 2.20909,-0.66886 2.2091,-0.66886 1.0099,0.25347 1.0099,0.25347 0.6807,0.81539 0.68071,0.8154 0.0123,0.83958 0.0123,0.83957 -1.57675,0.74355 c -1.96425,0.92627 -11.11414,4.71278 -11.52604,4.76982 l -0.30325,0.042 z" />
</svg>
