<svg xmlns="http://www.w3.org/2000/svg" viewBox="1.9 38.4 198.1 231.4">
<path fill="currentColor" d="m 107.75677,258.53495 c -0.11701,-0.44192 -0.42338,-1.0264 -0.68084,-1.29885 -0.40445,-0.42801 -0.58164,-0.48255 -1.30331,-0.40122 -0.95278,0.10741 -1.56162,-0.19558 -2.40444,-1.19653 -0.2871,-0.34094 -1.21333,-1.02815 -2.05829,-1.52711 -0.8771,-0.51793 -1.869927,-1.29462 -2.313867,-1.81012 -0.43883,-0.50957 -0.94231,-0.90478 -1.1557,-0.90718 -0.68263,-0.008 -1.91971,-0.69649 -2.35914,-1.31359 -0.35689,-0.50121 -0.43672,-0.87646 -0.46348,-2.17865 -0.0478,-2.32352 -0.56531,-2.76029 -1.6586,-1.39967 -0.75824,0.94366 -1.51774,1.36507 -2.19687,1.21897 -0.4455,-0.0958 -0.596,0.0159 -1.25663,0.9333 -0.41279,0.57321 -0.80419,1.04219 -0.86979,1.04219 -0.0656,0 -0.0501,-0.43743 0.0344,-0.97207 0.14246,-0.90122 0.96989,-2.43098 1.31489,-2.43098 0.0826,0 0.17739,-0.18772 0.21061,-0.41714 0.0354,-0.24413 0.50571,-0.75511 1.134,-1.23199 2.03971,-1.54811 2.31097,-2.64296 1.76949,-7.14207 -0.61471,-5.10761 -2.30876,-12.64377 -3.42112,-15.21918 -0.44582,-1.03219 -0.53282,-1.50121 -0.54354,-2.9304 -0.007,-0.93583 0.056,-2.04814 0.14004,-2.47179 l 0.1528,-0.77028 -0.81451,-0.24027 c -0.44797,-0.13214 -2.60248,-0.9447 -4.78779,-1.80568 -3.47947,-1.37086 -4.17263,-1.58132 -5.57721,-1.69335 -6.4786,-0.51676 -11.8573,-1.21873 -15.52681,-2.0264 -1.7557,-0.38643 -1.88865,-0.39018 -3.59211,-0.10121 -6.12072,1.0383 -13.03671,4.20775 -24.361371,11.16427 -2.027648,1.24554 -4.425472,2.65723 -5.328498,3.13708 -1.62748,0.86481 -1.659059,0.89559 -3.603892,3.51179 -2.711406,3.6474 -4.151555,5.26667 -5.104734,5.73963 -0.758403,0.37631 -0.817656,0.38029 -1.046182,0.0703 -0.219918,-0.29834 -0.31404,-0.24179 -1.021172,0.61362 -1.983673,2.39964 -5.872286,5.7164 -6.468836,5.51755 -0.287032,-0.0957 -0.150488,-1.34029 0.294532,-2.6847 1.332617,-4.02586 4.190459,-8.82504 9.963421,-16.73164 10.981085,-15.03958 11.815176,-16.34854 13.553026,-21.26903 4.737465,-13.41352 9.845413,-22.29914 18.530126,-32.23441 11.87533,-13.5853 23.87979,-25.33899 36.57152,-35.80754 2.60256,-2.14667 5.688,-5.01614 10.492717,-9.75826 3.74335,-3.69458 7.69939,-7.56168 8.7912,-8.59356 4.24644,-4.01334 13.92645,-13.718413 15.6004,-15.640793 3.32962,-3.82377 5.38613,-6.77597 7.15127,-10.26595 1.45947,-2.88558 1.91487,-4.17655 2.96786,-8.413077 1.61569,-6.500528 3.62259,-12.050382 5.67969,-15.706568 2.7107,-4.817847 7.2226,-9.429546 11.51696,-11.771711 6.09138,-3.322257 13.99648,-2.764406 20.35731,1.436584 1.87018,1.235156 5.6433,4.605443 5.89725,5.267642 0.16586,0.432508 1.58893,1.53294 3.04945,2.358093 3.09032,1.745944 3.79207,2.201296 4.59488,2.981529 0.94333,0.916809 1.54385,1.952054 1.804,3.109859 0.2167,0.964426 0.0571,1.2433 -0.57427,1.003267 -0.2626,-0.09984 -1.95705,-0.181523 -3.76547,-0.181515 -3.16913,1.3e-5 -3.3138,0.01677 -4.00103,0.463149 -0.39216,0.254725 -1.54069,0.729045 -2.55229,1.054048 -1.0116,0.325002 -2.16067,0.79307 -2.5535,1.04015 -1.71873,1.081059 -7.63892,6.677063 -9.42882,8.912493 -1.2628,1.577137 -2.43937,3.903397 -2.88531,5.704717 -0.16732,0.67588 -0.39914,2.28174 -0.51514,3.56857 -0.25184,2.79358 -0.0843,5.6281 0.87803,14.851493 1.3879,13.30273 1.69538,19.48839 1.54967,31.17465 -0.15686,12.58058 -0.86503,19.18405 -2.97382,27.73005 -3.33004,13.49519 -8.82602,23.47032 -17.86429,32.42346 -7.15962,7.09219 -14.73023,12.32829 -25.99674,17.98027 l -4.63628,2.32584 -1.31905,1.51822 c -1.38015,1.58853 -1.76826,2.24911 -1.78423,3.03681 -0.0174,0.86046 -0.38727,1.85059 -1.05235,2.81745 -0.77985,1.13369 -0.8092,1.58739 -0.23821,3.68231 0.50107,1.83842 3.0178,6.962 4.81774,9.80803 1.54928,2.44968 5.38444,7.88119 5.88424,8.33351 0.55679,0.50388 2.30379,1.04489 4.69332,1.4534 2.52572,0.43179 3.99231,0.45972 5.79759,0.11037 2.28233,-0.44164 4.29031,0.30928 5.0559,1.89077 0.22823,0.47148 0.59584,0.93599 0.81691,1.03224 0.22106,0.0963 0.52955,0.25205 0.68552,0.34622 0.15597,0.0942 0.85263,0.43743 1.54813,0.76282 0.95907,0.44871 1.42107,0.80708 1.91247,1.48352 0.64714,0.8908 1.2071,2.24253 1.01044,2.43919 -0.0572,0.0572 -0.52241,-0.32547 -1.03374,-0.85044 -0.66035,-0.67797 -1.19708,-1.03461 -1.85265,-1.23106 -0.86408,-0.25891 -0.94108,-0.25373 -1.20723,0.0814 -0.66435,0.83651 -2.30287,0.86589 -4.06405,0.0729 -0.96424,-0.43419 -4.98309,-1.1197 -8.36904,-1.42754 -0.9636,-0.0876 -1.84475,-0.21663 -1.9581,-0.28667 -0.14268,-0.0882 -0.15623,0.0108 -0.0441,0.32168 0.2428,0.67282 0.17227,2.46407 -0.11814,3.00048 -0.25454,0.47013 -0.25614,0.46881 -0.46027,-0.37811 l -0.20483,-0.84991 -0.81521,0.0613 c -0.9759,0.0734 -1.55579,-0.25733 -2.18757,-1.24773 -0.4815,-0.75481 -1.24668,-1.22615 -2.51724,-1.5506 -1.13604,-0.29009 -1.87068,-1.10444 -2.15915,-2.39343 -0.2007,-0.89684 -0.35508,-1.14802 -0.98693,-1.60573 -0.41195,-0.29841 -0.85302,-0.54258 -0.98015,-0.54258 -0.12713,0 -0.57909,0.40411 -1.00436,0.89803 -1.66573,1.93459 -1.70645,1.96809 -2.34956,1.93296 -0.98777,-0.0539 -1.0225,-0.0352 -1.6299,0.88185 -0.46457,0.70136 -0.60576,0.81208 -0.70519,0.55297 -0.31228,-0.8138 0.50015,-2.27151 2.42015,-4.34236 1.892,-2.04065 1.92234,-2.65468 0.28828,-5.83426 -0.84871,-1.65144 -1.47197,-2.59586 -2.17855,-3.30116 -1.10655,-1.10453 -1.4035,-1.67804 -1.13448,-2.19103 0.14106,-0.26897 -0.21313,-1.08224 -1.63952,-3.7646 -1.79427,-3.37416 -3.82641,-6.70559 -4.36096,-7.14923 -0.22259,-0.18473 -0.27476,-0.16098 -0.27813,0.12662 -0.008,0.68478 -0.781087,2.06505 -1.656017,2.9568 l -0.88429,0.90126 0.0482,1.74556 c 0.0614,2.22228 0.29296,4.01858 1.00512,7.79539 0.7246,3.84279 1.536497,7.26303 2.261347,9.52622 0.63492,1.98239 0.90938,2.29713 2.62381,3.00899 1.89012,0.7848 3.34741,1.0378 5.86983,1.01904 1.57561,-0.0117 2.58376,0.0678 3.02493,0.23861 0.36394,0.14091 0.94595,0.36285 1.29336,0.4932 0.35539,0.13336 0.83416,0.54303 1.09467,0.93669 0.45646,0.68974 0.48435,0.70112 1.96698,0.80276 1.05115,0.072 1.68922,0.21955 2.11931,0.48994 0.33845,0.21277 1.02009,0.57188 1.51476,0.79804 1.47731,0.67539 2.77353,2.49568 2.78308,3.90828 0.006,0.81771 -0.17983,0.76678 -0.77354,-0.21252 -0.35221,-0.58098 -0.78285,-0.95892 -1.49965,-1.31611 -0.99428,-0.49546 -1.00939,-0.49696 -1.34847,-0.133 -0.7008,0.75222 -2.16163,0.71362 -3.74745,-0.099 -0.64767,-0.33189 -1.86622,-0.57721 -5.10457,-1.02765 -2.3396,-0.32544 -4.58143,-0.67692 -4.98186,-0.78107 -0.99582,-0.25905 -1.07107,-0.0812 -0.1619,0.38265 0.49418,0.25211 0.82259,0.58213 0.95378,0.95847 0.11005,0.31569 0.28838,0.57398 0.3963,0.57398 0.29044,0 1.09265,1.32295 1.24296,2.04981 0.15314,0.74056 -0.0431,2.29853 -0.28945,2.29853 -0.0936,0 -0.26592,-0.36158 -0.38292,-0.8035 z m 6.81519,-7.51506 c 0,-0.10398 -0.0781,-0.18906 -0.17359,-0.18906 -0.0955,0 -0.30817,-0.0516 -0.47265,-0.11475 -0.16448,-0.0631 -0.29905,-0.0268 -0.29905,0.0807 0,0.16892 0.29321,0.31134 0.8035,0.39027 0.078,0.0121 0.14179,-0.0632 0.14179,-0.16713 z m 21.17451,-3.40582 c 0,-0.28092 -1.15937,-0.94098 -1.65426,-0.94181 -0.23396,0 -0.42538,0.0774 -0.42538,0.17289 0,0.0955 -0.0499,0.3037 -0.11095,0.46272 -0.0901,0.23487 0.0962,0.30202 0.99256,0.35783 0.60692,0.0378 1.12477,0.0848 1.15076,0.10445 0.026,0.0197 0.0473,-0.0506 0.0473,-0.15608 z" />
</svg>
