<svg xmlns="http://www.w3.org/2000/svg" viewBox="-3.1 93.2 209.3 189.1">
<path fill="currentColor" d="m 142.43906,272.20166 -0.72033,-0.54483 -1.13994,-0.0118 -1.13993,-0.0118 -1.45769,-1.10308 -1.45769,-1.10308 -1.29881,-0.23794 c -0.71434,-0.13087 -2.30075,-0.71064 -3.52534,-1.28838 -1.22459,-0.57773 -2.87633,-1.21975 -3.67054,-1.4267 l -1.444,-0.37628 -0.79294,-0.74492 c -0.85689,-0.80502 -3.51628,-2.38171 -5.08496,-3.01477 l -0.97304,-0.39268 -0.57262,-1.37182 c -0.31494,-0.7545 -0.66503,-1.66406 -0.77798,-2.02123 -0.30747,-0.97232 -0.72423,-0.8017 -2.03948,0.83495 l -1.19286,1.48435 h -0.591 -0.59101 l -0.46462,0.6354 -0.46461,0.6354 -0.55524,-0.46081 -0.55524,-0.46081 0.28059,-1.24408 c 0.32593,-1.44514 0.51101,-1.78525 1.97134,-3.62265 l 1.08353,-1.3633 -0.24683,-0.39937 -0.24682,-0.39937 -0.9986,-0.0131 c -0.54922,-0.007 -1.41606,-0.25181 -1.92631,-0.54349 l -0.92772,-0.53034 -1.86975,-0.0131 -1.86976,-0.0131 -1.2845,-0.66734 c -2.0333,-1.05638 -3.00674,-1.6596 -4.76169,-2.95078 -0.90158,-0.66332 -1.843179,-1.20603 -2.092459,-1.20603 -0.24927,0 -0.86368,-0.32287 -1.36535,-0.71749 l -0.912127,-0.71747 -1.612176,0.36223 -1.612173,0.36223 -0.494453,-0.18974 -0.49445,-0.18974 v -1.35317 -1.35319 l 1.298811,-1.18966 c 1.716489,-1.57224 1.698253,-1.60021 -1.206039,-1.84972 -7.052064,-0.60587 -11.624882,-1.32284 -19.018292,-2.98189 -3.540059,-0.79438 -16.140199,-5.16893 -17.070077,-5.92644 -0.905842,-0.73793 -5.639772,-2.65828 -13.915824,-5.64504 l -2.59762,-0.93746 -12.617014,-1.06272 -12.617013,-1.06273 -2.330986,-0.57498 c -2.5746797,-0.63511 -4.8823317,-1.69728 -5.6209108,-2.58721 l -0.4804743,-0.57894 0.2263599,-0.90189 0.2263599,-0.90189 1.2066606,-0.72091 c 1.292483,-0.77219 10.8797887,-5.64559 18.4453707,-9.37612 5.215129,-2.57154 6.536276,-3.42334 11.520659,-7.42787 l 3.525342,-2.83231 8.731794,-8.6848 8.731797,-8.68479 2.77195,-2.14707 c 1.524577,-1.18089 4.692338,-3.65132 7.039474,-5.48985 2.347135,-1.83852 5.352953,-4.0855 6.679595,-4.99328 1.326642,-0.90779 4.081975,-2.82097 6.122963,-4.25153 l 3.710886,-2.60101 3.710886,-1.90489 c 2.040988,-1.04769 5.046806,-2.78208 6.679596,-3.85419 1.63279,-1.07211 3.834655,-2.36539 4.893044,-2.87394 1.05839,-0.50856 2.49613,-1.27804 3.19498,-1.70995 1.37015,-0.8468 1.68383,-0.96853 10.18354,-3.95213 3.11001,-1.09168 6.11582,-2.22491 6.6796,-2.51828 1.4301,-0.74417 4.75097,-2.16574 9.69105,-4.14847 l 4.21294,-1.69088 1.61277,-1.10961 c 1.95284,-1.34359 1.98836,-1.3975 2.37597,-3.60586 0.17006,-0.96892 0.84711,-3.84904 1.50457,-6.40028 l 1.19536,-4.63861 1.22802,-2.68193 1.22803,-2.68194 1.23409,-1.54303 c 1.90368,-2.38025 3.16031,-3.52837 7.12385,-6.50869 4.08652,-3.07279 4.84973,-3.46022 9.88151,-5.01625 l 3.52534,-1.09017 2.49298,-0.21844 2.49298,-0.21844 2.85483,0.46053 2.85482,0.46053 2.6306,1.20976 2.6306,1.20976 1.35126,1.32994 c 0.74319,0.73147 1.88714,2.15697 2.54211,3.16776 l 1.19087,1.83781 1.11916,0.22384 c 0.61555,0.12311 2.08736,0.81198 3.2707,1.53082 l 2.15154,1.30699 1.05232,1.2084 c 0.57878,0.66462 1.37897,1.82356 1.77822,2.57543 l 0.7259,1.36704 -0.26047,0.26047 -0.26047,0.26047 -0.83652,-0.37874 -0.83652,-0.37875 -2.04099,0.67911 -2.04098,0.6791 -2.80063,0.0105 -2.80062,0.0105 -1.31386,1.39158 c -0.72262,0.76537 -2.09243,2.40392 -3.04402,3.64121 l -1.73017,2.24963 v 2.29898 2.29897 l 2.05748,4.17198 c 1.1316,2.29459 2.72275,5.42441 3.53587,6.95515 2.0027,3.77017 3.9216,8.27694 4.83753,11.36153 l 0.75847,2.55429 -0.0208,7.01458 -0.0208,7.01458 -0.36572,2.07709 c -0.20115,1.14241 -0.63576,3.65104 -0.96579,5.57474 -0.33004,1.92371 -0.92821,4.51205 -1.32928,5.75188 -0.40107,1.23982 -0.96459,3.08917 -1.25227,4.10967 -0.97744,3.4673 -4.09422,9.93732 -7.42019,15.40331 -1.8542,3.04724 -6.755,8.84315 -11.30376,13.36834 l -4.30209,4.2798 -4.25746,2.81468 c -8.93242,5.90539 -18.19018,9.80513 -29.49148,12.42298 l -2.22653,0.51576 -5.33337,0.33887 -5.33337,0.33887 -0.30709,0.30718 -0.3071,0.30717 2.41035,0.0272 2.41035,0.0272 0.81804,0.82694 0.81804,0.82693 -1.29881,1.08408 -1.29881,1.08408 -0.64941,0.01 -0.6494,0.01 v 0.33138 c 0,0.61417 1.15551,0.78188 5.38698,0.78188 h 4.21301 l 1.00529,0.38222 c 0.55291,0.21021 1.64922,0.8922 2.43623,1.51553 l 1.43094,1.13333 v 0.66169 0.6617 l -2.69039,-0.0844 c -1.47971,-0.0464 -3.98456,-0.21571 -5.56633,-0.37624 l -2.87594,-0.29186 v 0.25975 c 0,0.14286 0.74991,1.40852 1.66645,2.81258 0.91655,1.40406 1.85679,2.97058 2.08942,3.48116 l 0.42297,0.92832 1.4134,0.23879 1.41339,0.23879 2.89847,-0.43271 c 1.59415,-0.23798 3.82836,-0.64655 4.96491,-0.90791 l 2.06644,-0.47522 1.76012,0.26713 1.76012,0.26711 0.97419,0.72734 c 0.53581,0.40004 1.04038,0.92592 1.12128,1.16863 l 0.1471,0.44128 -1.05142,0.0118 -1.05142,0.0118 -0.72033,0.54483 -0.72033,0.54483 -1.5062,0.0647 c -0.82841,0.0356 1.58311,0.17572 5.35894,0.31135 l 6.86514,0.2466 2.04099,0.80196 2.04098,0.80197 1.57713,1.46942 1.57713,1.46942 v 0.57152 0.57152 h -0.47406 c -0.26074,0 -0.84106,-0.25705 -1.2896,-0.57122 l -0.81554,-0.57122 -0.93626,0.61346 -0.93625,0.61346 -1.75846,-0.2637 c -0.96715,-0.14503 -2.18108,-0.48224 -2.69761,-0.74935 l -0.93916,-0.48566 -6.30196,-0.0734 c -3.46608,-0.0404 -6.68755,-0.0562 -7.15882,-0.0351 l -0.85684,0.0384 0.20113,0.32545 c 0.11063,0.179 0.97933,0.5214 1.93046,0.7609 l 1.72933,0.43544 1.58868,1.09305 1.58869,1.09305 1.14136,1.99489 c 1.58954,2.77822 1.51137,3.93728 -0.17929,2.65852 z" />
</svg>
