<svg xmlns="http://www.w3.org/2000/svg" viewBox="31.9 80.2 146.2 136.7">
<path fill="currentColor" d="m 140.5522,209.61521 c -0.36114,-0.593 -1.19081,-1.18346 -1.98159,-1.41026 -0.41568,-0.11921 -0.43964,-0.10457 -0.43964,0.26871 0,0.28474 -0.10121,0.44092 -0.36306,0.56022 -0.5092,0.23201 -0.89535,0.2026 -1.61245,-0.12279 -0.35803,-0.16246 -0.93193,-0.28267 -1.35415,-0.28365 -0.40303,-9.9e-4 -1.08557,-0.0964 -1.51676,-0.21212 -0.43119,-0.11573 -1.10049,-0.21119 -1.48734,-0.21212 -0.38685,-0.001 -1.06036,-0.095 -1.49669,-0.20901 -0.43633,-0.11403 -1.16568,-0.24737 -1.62078,-0.29632 -0.61334,-0.066 -0.9453,-0.19015 -1.28288,-0.4799 -0.85414,-0.73312 -1.14526,-0.8695 -1.85598,-0.8695 -0.76989,0 -1.0257,-0.20694 -2.29072,-1.85305 l -0.60248,-0.78398 h -1.8703 c -1.54287,0 -1.81584,0.0303 -1.55921,0.17313 0.1711,0.0952 0.42547,0.1754 0.56528,0.17817 0.45577,0.009 1.63781,0.69965 1.95144,1.1401 0.16849,0.23661 0.33699,0.67136 0.37445,0.96609 0.0603,0.4748 0.0472,0.50435 -0.11565,0.25918 -0.57048,-0.85904 -1.25282,-1.21569 -1.25282,-0.65483 0,0.65819 -1.12636,0.75518 -2.36984,0.20407 -0.69287,-0.30708 -0.9667,-0.35603 -1.58695,-0.28369 -0.49796,0.0581 -0.90806,0.0212 -1.22167,-0.10983 -0.48039,-0.20072 -2.62752,-2.21089 -2.91032,-2.72467 -0.15162,-0.27548 -0.16217,-0.27588 -0.44841,-0.0168 -0.16122,0.1459 -0.3296,0.3802 -0.37418,0.52065 -0.0446,0.14045 -0.39306,0.45558 -0.7744,0.70029 -1.10188,0.70707 -1.55519,2.09644 -1.10604,3.3899 0.26007,0.74895 0.0778,0.78269 -0.38508,0.0713 -0.77677,-1.19398 -0.80344,-2.33949 -0.0896,-3.84887 l 0.41224,-0.87168 -0.32128,-0.2105 c -0.29012,-0.1901 -0.36859,-0.18203 -0.80908,0.0831 -1.16542,0.7016 -1.53446,1.00541 -1.78393,1.46865 -0.30578,0.5678 -0.487,0.63242 -0.48251,0.17206 0.005,-0.4953 0.47609,-1.41448 0.9729,-1.89762 0.43426,-0.42233 1.95555,-1.1119 2.84577,-1.28995 0.23897,-0.0478 0.57777,-0.23941 0.7529,-0.42583 0.3002,-0.31955 0.30718,-0.37366 0.12201,-0.94634 -0.10803,-0.33407 -0.84015,-1.89029 -1.62694,-3.45826 -1.05966,-2.11174 -1.64783,-3.10646 -2.26867,-3.83675 -1.39411,-1.63986 -1.70129,-2.66782 -1.29578,-4.33623 0.13612,-0.56005 0.21475,-1.26239 0.17473,-1.56074 -0.0733,-0.54671 -0.74575,-2.1685 -0.89909,-2.1685 -0.17839,0 -0.74211,0.36264 -1.60646,1.03344 -0.70571,0.54769 -0.9803,0.68294 -1.24937,0.61541 -0.30002,-0.0753 -0.38558,-0.003 -0.65788,0.55771 -0.20557,0.42312 -0.40462,0.64428 -0.57988,0.64428 -0.14677,0 -0.36594,0.0991 -0.48704,0.22017 -0.12109,0.1211 -0.29014,0.19686 -0.37565,0.16835 -0.21651,-0.0722 -0.642765,-0.82854 -0.660769,-1.17251 -0.01309,-0.25004 -0.0572,-0.23252 -0.358848,0.14255 -0.189157,0.23519 -0.491813,0.5858 -0.672569,0.77913 -0.523652,0.56009 -0.674444,0.89231 -0.681517,1.50154 -0.01048,0.90221 -0.168482,1.63923 -0.351427,1.63923 -0.196197,0 -1.077474,0.82994 -1.077474,1.01471 0,0.2832 -0.292952,0.0962 -0.511531,-0.32644 -0.204632,-0.39571 -0.250938,-0.42138 -0.371521,-0.2059 -0.100961,0.1804 -0.186405,0.20577 -0.319908,0.095 -0.13305,-0.11042 -0.284462,-0.0707 -0.561651,0.14733 l -0.379495,0.29852 -0.153496,-0.44033 c -0.180369,-0.5174 -0.275998,-0.54033 -0.628599,-0.15071 -0.14415,0.15928 -0.368742,0.27154 -0.499091,0.24945 -0.13035,-0.0221 -0.338779,0.0443 -0.463174,0.14756 -0.192658,0.15989 -0.255812,0.13877 -0.426174,-0.14255 -0.11,-0.18164 -0.306851,-0.50459 -0.437445,-0.71766 -0.160084,-0.26119 -0.312766,-0.35851 -0.468621,-0.2987 -0.141657,0.0544 -0.285363,-0.008 -0.371115,-0.16135 -0.124733,-0.22289 -0.185909,-0.1943 -0.5629,0.26306 -0.468493,0.56836 -0.908557,0.70064 -0.758551,0.22802 0.07439,-0.2344 0.03173,-0.27877 -0.239843,-0.24945 -0.303377,0.0327 -0.333847,-0.0254 -0.373416,-0.71269 -0.04702,-0.81665 -0.09155,-0.86418 -0.480224,-0.51244 -0.24708,0.22361 -0.260672,0.21341 -0.260672,-0.19559 0,-0.39195 -0.05137,-0.43972 -0.560479,-0.52113 -0.472319,-0.0755 -0.676211,-0.0177 -1.296264,0.36777 -0.677635,0.42124 -0.746911,0.43751 -0.87654,0.20587 -0.130183,-0.23262 -0.178509,-0.22271 -0.643505,0.13196 -0.374784,0.28586 -0.530868,0.33797 -0.613216,0.20473 -0.08584,-0.1389 -0.323503,-0.10784 -1.06628,0.13934 -0.678189,0.22568 -1.000062,0.27382 -1.108153,0.16573 -0.10809,-0.10809 -0.09934,-0.21619 0.03012,-0.37219 0.244502,-0.29461 -0.01359,-0.29126 -0.591645,0.008 -0.365805,0.18916 -0.496767,0.1971 -0.777011,0.0471 -0.297887,-0.15942 -0.457132,-0.12013 -1.370373,0.3381 -1.230468,0.61741 -1.817297,0.84374 -1.817297,0.7009 0,-0.0576 0.128287,-0.18484 0.285083,-0.28276 0.529307,-0.33056 0.333883,-0.49417 -0.45986,-0.385 -0.677453,0.0932 -0.727526,0.0815 -0.552713,-0.12917 0.144895,-0.17458 0.1524,-0.27961 0.03048,-0.42652 -0.12298,-0.14818 -0.110455,-0.23747 0.05225,-0.37251 0.32737,-0.27169 0.144592,-0.40112 -0.718763,-0.50899 -0.433877,-0.0542 -0.865836,-0.17158 -0.959911,-0.26081 -0.394439,-0.37416 -3.410179,-1.086 -4.600874,-1.086 -1.287755,0 -2.496508,-0.23792 -2.731381,-0.53763 -0.125775,-0.16049 -0.610916,-0.2672 -1.684194,-0.37046 -1.795535,-0.17274 -3.329737,0.005 -4.493754,0.51917 -0.424866,0.18786 -0.843218,0.31794 -0.929671,0.28908 -0.201471,-0.0673 -1.702689,1.40243 -2.981556,2.91891 l -0.994969,1.17984 -0.07127,-0.60967 c -0.0446,-0.38149 -0.114431,-0.54299 -0.18659,-0.4315 -0.06343,0.098 -0.384145,0.17959 -0.71271,0.18131 -1.032815,0.005 -1.626106,0.41393 -3.519497,2.42341 -0.979976,1.04005 -2.166637,2.26334 -2.637025,2.71841 -0.83688,0.80964 -1.924315,1.5495 -1.924315,1.30925 0,-0.0665 0.131306,-0.49455 0.291789,-0.95116 0.338628,-0.96346 0.290502,-1.42406 -0.06197,-0.59311 -0.527914,1.24455 -1.953954,3.32477 -2.846223,4.1519 -1.314503,1.21853 -2.763142,2.19898 -3.249069,2.19898 -0.408214,0 -0.459907,-0.085 -0.411945,-0.67708 0.01429,-0.17639 -0.02672,-0.32899 -0.09113,-0.3391 -0.406586,-0.0638 -0.886921,-0.13084 -1.257442,-0.17547 -0.366404,-0.0441 -0.423562,-0.10699 -0.399243,-0.43903 0.02749,-0.3753 0.01066,-0.38452 -0.534218,-0.29247 -0.440202,0.0744 -0.581285,0.0464 -0.648479,-0.12874 -0.15025,-0.39155 1.72719,-2.78369 4.729534,-6.02614 0.738361,-0.79741 1.342474,-1.53115 1.342474,-1.63052 0,-0.0994 4.058694,-4.25773 9.019319,-9.2408 4.960626,-4.98307 9.477046,-9.60535 10.036487,-10.27173 0.559443,-0.66639 1.863563,-2.20584 2.898043,-3.42101 1.954722,-2.29614 5.002218,-6.28624 7.239756,-9.47903 1.181296,-1.68562 2.172666,-3.28667 4.854412,-7.83981 1.920934,-3.26141 6.478601,-9.63085 9.471474,-13.2366 0.789906,-0.95166 2.565876,-2.88488 3.946599,-4.29605 1.380725,-1.41116 3.571543,-3.72034 4.868486,-5.1315 3.78156,-4.11461 4.09511,-4.38751 10.88273,-9.47173 1.56796,-1.17447 3.65263,-2.75601 4.63261,-3.51453 5.75874,-4.45736 10.58619,-6.74947 16.79923,-7.9764 3.09843,-0.61187 3.81358,-0.8139 5.00116,-1.41279 2.76296,-1.39334 4.00728,-2.98242 6.69984,-8.556137 0.49234,-1.01917 0.9525,-2.00244 1.02258,-2.18504 0.36842,-0.95998 2.05853,-3.21097 3.22363,-4.29344 2.88818,-2.68333 5.2235,-3.88552 8.33979,-4.29323 1.58685,-0.20761 3.60171,-0.0319 4.86061,0.42383 0.40459,0.14647 1.21669,0.44163 1.80468,0.65592 0.58798,0.21429 1.34157,0.58516 1.67462,0.82416 0.33307,0.239 0.64706,0.39307 0.69775,0.34237 0.14523,-0.14522 1.97795,0.87542 2.52371,1.40545 1.08107,1.04992 1.71635,3.13448 1.38112,4.53188 -0.10198,0.42508 -0.14605,0.83654 -0.098,0.91437 0.0481,0.0778 0.55365,0.41838 1.12346,0.75679 1.79177,1.06416 2.96088,2.55368 3.66909,4.674637 0.31794,0.95216 0.352,2.30502 0.0604,2.40095 -0.0865,0.0285 -0.4959,-0.25269 -0.90977,-0.62479 -0.68649,-0.61721 -0.83521,-0.68576 -1.69575,-0.78158 -1.73612,-0.19331 -2.6055,-0.14751 -2.92967,0.15433 -0.16185,0.15069 -0.81995,0.53913 -1.46243,0.86318 -0.66496,0.33538 -1.36627,0.81479 -1.62802,1.11292 -1.54759,1.7626 -2.19068,5.34352 -1.83626,10.22476 0.21861,3.01069 0.11313,4.32328 -0.75003,9.33405 -0.55634,3.22964 -0.57812,3.47538 -0.60739,6.85453 -0.0539,6.22226 -0.32044,7.68045 -2.21896,12.13896 -0.47576,1.11729 -1.22165,2.73702 -1.65753,3.59939 -3.31474,6.55819 -11.35088,15.16356 -19.70048,21.09598 -3.83922,2.72777 -6.93827,4.55069 -11.96186,7.0362 -5.94937,2.94354 -7.41918,3.84662 -8.55039,5.25355 -0.96126,1.19556 -2.16251,3.00579 -2.16251,3.25881 0,0.7024 0.38791,1.74498 0.96025,2.58086 2.29105,3.34599 9.50638,12.34799 11.28792,14.08305 l 0.72953,0.71051 2.17057,-0.56056 c 1.19381,-0.3083 2.33092,-0.64367 2.52692,-0.74526 0.42353,-0.21952 0.99779,-0.2448 0.99779,-0.0439 0,0.0784 0.11964,0.14255 0.26586,0.14255 0.41526,0 0.97984,0.52449 1.16345,1.08084 0.20923,0.63399 0.0898,0.77401 -0.28067,0.32913 -0.3022,-0.36288 -0.3364,-0.31728 -0.2978,0.39705 0.0376,0.69604 -0.76543,0.98637 -1.63383,0.5907 -0.27646,-0.12596 -0.53683,-0.12851 -1.04013,-0.0102 -0.36925,0.0868 -0.84776,0.19571 -1.06335,0.24201 -0.50141,0.10769 -0.51023,0.36384 -0.0125,0.36384 0.20871,0 0.65549,0.16176 0.99285,0.35946 0.33735,0.19771 1.02143,0.4855 1.52017,0.63955 1.24558,0.38472 4.99537,0.70872 6.37273,0.55063 0.58799,-0.0675 1.23695,-0.0877 1.44215,-0.045 0.48144,0.10025 3.55993,-0.29628 5.0904,-0.65567 1.40836,-0.33071 2.10661,-0.34898 2.99863,-0.0784 2.78492,0.84465 3.53991,1.21875 4.1272,2.04501 0.23518,0.33089 0.64996,1.46073 0.53625,1.46073 -0.0201,0 -0.29246,-0.24342 -0.6052,-0.54092 -0.56848,-0.54079 -1.92891,-1.16959 -2.53043,-1.16959 -0.27292,0 -0.30997,0.0614 -0.25659,0.42514 0.0876,0.59715 -0.40697,0.76646 -1.89354,0.6482 -1.49736,-0.11912 -3.52608,-0.0818 -3.70718,0.0682 -0.28198,0.23352 -3.37209,0.4307 -4.32858,0.2762 -0.49976,-0.0807 -0.94192,-0.11353 -0.98256,-0.0729 -0.0406,0.0406 0.0155,0.1004 0.12469,0.1328 1.5824,0.46948 2.35636,1.03476 2.89401,2.11369 0.35189,0.70614 0.49286,1.5402 0.26033,1.5402 -0.0599,0 -0.26836,-0.26185 -0.46326,-0.58189 z m -21.96956,-8.9384 c 0.55936,-0.52732 0.87535,-0.93899 0.87535,-1.14039 0,-0.18782 -0.61597,-1.07829 -1.52444,-2.20379 -1.73138,-2.14499 -4.47039,-5.2778 -4.5472,-5.20098 -0.0281,0.0281 -0.11405,0.49516 -0.1909,1.03781 -0.0897,0.63325 -0.22547,1.04934 -0.37912,1.16169 -0.37755,0.27607 -0.18636,1.07775 0.70348,2.94976 1.16257,2.44581 1.91892,3.34985 3.37243,4.03098 0.60645,0.2842 0.78741,0.21621 1.6904,-0.63508 z" />
</svg>
