<svg xmlns="http://www.w3.org/2000/svg" viewBox="-6.8 25.5 214.6 235.5">
<path fill="currentColor" d="m 15.582883,249.02706 -2.298908,-1.28274 -2.329167,0.19899 -2.3291661,0.19898 -1.786695,0.91151 -1.786695,0.9115 -0.58645,-0.22504 c -0.322548,-0.12377 -0.586451,-0.44225 -0.586451,-0.70773 0,-0.43993 4.284008,-6.62432 10.5416671,-15.21792 1.339208,-1.83913 5.675219,-7.83607 9.635581,-13.32653 3.960362,-5.49047 7.693707,-10.66301 8.296323,-11.49454 0.602615,-0.83153 2.559253,-4.14517 4.348084,-7.36364 1.788831,-3.21847 4.234352,-7.26246 5.43449,-8.98664 2.150652,-3.08974 4.572872,-7.4683 4.288677,-7.7525 -0.08012,-0.0801 -4.089734,0.58367 -8.910247,1.47509 -4.820513,0.89143 -11.52834,2.03413 -14.906282,2.53934 l -6.141712,0.91858 -1.590979,-0.82516 -1.590978,-0.82516 -0.139011,-0.71106 -0.139011,-0.71106 0.556994,-0.67658 c 0.306347,-0.37212 1.290562,-1.2095 2.187145,-1.86084 l 1.630151,-1.18427 h -2.905 -2.904999 l -0.50158,-0.50158 -0.50158,-0.50158 v -0.95095 -0.95094 l 3.33833,-3.33385 3.33833,-3.33384 3.366907,-1.45907 c 1.851799,-0.80249 5.004839,-2.34625 7.006756,-3.43058 l 3.639849,-1.97151 3.76185,-3.63133 3.76185,-3.63134 2.401929,-1.34802 2.40193,-1.34802 1.886904,-2.45217 1.886906,-2.45217 4.070831,-3.28809 c 2.238957,-1.80845 6.05178,-4.88775 8.472935,-6.84289 2.42116,-1.95514 6.34423,-4.83538 8.717936,-6.40053 l 4.315828,-2.84572 5.493496,-5.24552 c 11.242083,-10.73462 16.578603,-14.95688 24.929719,-19.72441 3.33342,-1.903 7.65954,-4.40532 9.61362,-5.56072 l 3.55285,-2.10072 4.17984,-4.05211 c 2.2989,-2.22866 5.51549,-5.01621 7.14795,-6.19456 l 2.96813,-2.14245 3.62537,-3.94948 c 1.99395,-2.17222 4.37693,-4.85782 5.2955,-5.96801 l 1.67014,-2.01852 1.21038,-3.134875 c 0.66571,-1.724181 1.99515,-5.956261 2.95431,-9.404623 l 1.74394,-6.269749 1.77882,-3.761849 1.77883,-3.761849 2.81403,-3.467311 2.81403,-3.46731 2.37147,-1.867227 2.37148,-1.867227 1.41398,-0.394374 c 0.77769,-0.216906 4.12269,-0.712642 7.43333,-1.101636 l 6.01934,-0.707263 1.71055,0.512491 1.71054,0.512492 2.04017,1.908336 c 1.12209,1.049585 2.43067,2.540194 2.90796,3.312465 l 0.8678,1.404129 0.27867,1.943162 0.27867,1.943163 2.08992,1.378517 c 1.14945,0.758185 2.41268,1.663711 2.80716,2.01228 0.39449,0.34857 1.45581,1.099993 2.35849,1.669828 l 1.64123,1.036064 0.92329,1.296637 0.92328,1.296636 0.22163,1.65236 0.22163,1.652361 h -0.88652 c -0.48758,0 -1.87602,-0.37609 -3.08541,-0.835756 l -2.1989,-0.835756 -1.95809,-2.11e-4 c -1.07696,-1.16e-4 -3.3084,0.283833 -4.95876,0.630998 l -3.00066,0.631208 -2.95578,1.563204 -2.95579,1.563204 -0.76003,1.044958 -0.76004,1.044958 -0.60802,2.912987 -0.60803,2.912987 -0.49076,7.617061 -0.49077,7.61706 0.46293,6.39827 0.46293,6.39828 -0.39272,10.65857 -0.39272,10.65857 -0.86095,7.31471 c -2.31892,19.70173 -4.12304,24.81862 -11.47551,32.54717 l -2.53186,2.66137 -2.29891,1.56746 c -2.55625,1.74292 -10.3534,5.73257 -16.72089,8.55576 -4.84415,2.14778 -6.52805,3.33941 -8.99031,6.36209 l -1.794,2.20233 -0.29122,2.11742 -0.29122,2.11743 1.08196,2.21143 c 0.59507,1.21629 1.99966,3.51337 3.12132,5.10462 l 2.03936,2.89318 2.45834,0.69502 c 1.35209,0.38226 3.53792,1.00256 4.85741,1.37844 2.6688,0.76025 11.58198,1.95994 12.11483,1.63062 0.55221,-0.34129 3.3812,0.71644 4.39984,1.64506 l 0.94046,0.85734 v 0.7631 c 0,0.97035 -0.2463,0.95883 -1.55787,-0.0729 -1.26624,-0.99602 -2.02721,-1.06355 -2.35513,-0.20899 l -0.24059,0.62698 -2.83451,-0.028 c -1.55898,-0.0154 -5.3471,-0.25634 -8.41805,-0.53545 l -5.58355,-0.50747 -0.6862,0.50441 -0.6862,0.5044 1.14945,1.20338 c 1.5993,1.67431 1.47413,1.76446 -1.19755,0.86251 l -2.34701,-0.79235 -0.71628,0.64823 -0.71629,0.64823 -7.28179,-2.1e-4 -7.2818,-2.1e-4 -2.08991,-0.78419 c -1.14946,-0.43131 -2.51313,-0.91412 -3.03038,-1.07292 l -0.94046,-0.28872 v 1.54042 1.54043 l -1.25395,1.42817 -1.25395,1.42817 v -1.31284 -1.31283 l -1.05549,-0.83024 -1.05548,-0.83025 -0.5889,-1.40945 -0.58891,-1.40944 -1.10333,-0.27692 -1.10332,-0.27692 -0.90964,0.48758 c -0.5003,0.26817 -1.37987,0.75951 -1.954596,1.09185 l -1.04496,0.60426 -1.88092,-2.3e-4 -1.88093,-2.5e-4 -0.62697,-0.39882 -0.62698,-0.39883 0.53664,-0.86572 0.53664,-0.86573 -0.27384,-0.44309 -0.27385,-0.44309 -1.18471,0.23694 -1.1847,0.23695 0.23655,-0.61643 0.23654,-0.61642 0.89436,-0.1787 c 0.4919,-0.0983 2.40766,-0.27589 4.25727,-0.3947 1.84959,-0.1188 3.683486,-0.33903 4.075326,-0.48939 l 0.71243,-0.27337 v -0.5359 c 0,-0.29475 -0.74973,-1.82639 -1.66606,-3.40365 l -1.666066,-2.86773 -1.36431,-0.884 -1.36432,-0.88399 v -1.39218 -1.39219 l -1.04496,-0.29455 c -0.57472,-0.16201 -2.07946,-0.30505 -3.34386,-0.31787 l -2.29891,-0.0233 -1.46294,0.53471 c -0.80462,0.29409 -3.626007,1.96701 -6.269751,3.71761 l -4.806808,3.1829 -3.956425,4.27138 -3.956425,4.27138 -3.733096,3.10705 c -3.907985,3.25262 -9.882839,7.34477 -11.387867,7.79949 l -0.8807,0.26609 -4.549091,5.52909 c -8.856109,10.76393 -14.346019,16.90097 -21.678463,24.23383 l -7.418776,7.41921 -0.687401,-0.008 c -0.37807,-0.004 -1.721908,-0.5848 -2.986308,-1.29031 z m 95.300187,-51.15901 1.04496,-0.59735 3.95435,-0.0148 3.95435,-0.0148 2.41989,-0.93833 2.4199,-0.93834 v -0.75435 c 0,-0.4149 -0.26455,-1.26593 -0.58788,-1.89119 l -0.58788,-1.13683 -3.90544,-3.49601 -3.90544,-3.49605 -1.34502,-0.57118 -1.34502,-0.57119 h -1.69879 -1.69878 l -1.41587,0.59159 -1.41588,0.59158 -0.49751,0.92962 c -0.27363,0.51129 -0.66708,1.5147 -0.87432,2.2298 l -0.3768,1.30018 2.17002,4.70231 c 1.19352,2.58627 2.27717,4.69565 2.40812,4.6875 0.13094,-0.008 0.70831,-0.28362 1.28304,-0.61216 z" />
</svg>
