<svg xmlns="http://www.w3.org/2000/svg" viewBox="-2.8 108.7 213.6 124.1">
<path fill="currentColor" d="m 145.41568,222.82224 c 0.36477,-0.0953 0.66321,-0.33134 0.66321,-0.52449 0,-0.4549 -2.92433,-3.38297 -3.37864,-3.38297 -0.19077,0 -1.12874,-1.04013 -2.08436,-2.3114 l -1.73751,-2.3114 v -0.71242 c 0,-0.39183 -0.4125,-1.95241 -0.91664,-3.46796 -0.50416,-1.51555 -1.52039,-5.59956 -2.25829,-9.07561 l -1.34162,-6.32004 0.10454,-2.41754 0.10454,-2.41752 0.85967,-1.77587 0.85969,-1.77587 3.85217,-3.91533 c 5.83178,-5.9274 8.34256,-7.50735 13.95696,-8.78266 l 2.52532,-0.57363 0.56224,0.21575 0.56225,0.21576 2.97602,-0.44019 c 4.29224,-0.63488 6.38789,-0.76378 13.39782,-0.82403 l 6.25308,-0.0537 2.58159,0.6334 c 1.41987,0.34837 3.18801,0.6334 3.92919,0.6334 h 1.34761 l 1.27134,-1.11625 1.27133,-1.11626 1.43152,-0.39752 c 0.78734,-0.21865 1.9005,-0.39849 2.4737,-0.39966 l 1.04217,-0.001 v -0.35647 c 0,-0.19606 1.20463,-1.65567 2.67697,-3.24359 l 2.67697,-2.88711 -0.14714,-0.44141 -0.14714,-0.44141 -1.86662,-0.52261 c -3.39232,-0.94976 -4.82981,-1.83788 -9.9684,-6.15874 -0.4957,-0.41681 -0.98807,-0.67104 -1.09414,-0.56497 -0.39903,0.39903 -8.32944,-5.87908 -9.95861,-7.8837 -2.94854,-3.62809 -6.08128,-9.14327 -6.61812,-11.65118 -0.15103,-0.70559 -0.40322,-1.45344 -0.56042,-1.66187 -0.15718,-0.20845 -0.40856,-1.06114 -0.5586,-1.89488 -0.15006,-0.83374 -0.40458,-1.68644 -0.56562,-1.89487 -0.16105,-0.20844 -0.40358,-0.84289 -0.53895,-1.4099 l -0.24613,-1.03091 -1.03391,-0.9587 c -0.56866,-0.52729 -1.24883,-0.95869 -1.51151,-0.95869 -0.26268,0 -0.47759,-0.17054 -0.47759,-0.37898 v -0.37897 h -0.53699 c -0.29534,0 -1.61701,-0.55641 -2.93704,-1.23648 l -2.40006,-1.23647 -1.13693,0.0497 -1.13693,0.0497 -1.00593,-0.70815 c -0.55327,-0.38948 -1.11758,-0.70815 -1.25404,-0.70815 h -0.24809 l 0.27403,0.44338 0.27402,0.44337 -0.72538,-0.28862 c -0.72763,-0.28949 -1.08348,-0.36351 -3.59856,-0.7484 -0.74652,-0.11424 -2.45191,-0.47495 -3.78975,-0.80157 -1.33784,-0.32662 -3.01035,-0.67698 -3.71668,-0.77857 -0.70633,-0.10157 -1.46004,-0.29336 -1.6749,-0.42615 -0.21485,-0.13279 -1.4276,-0.30049 -2.69499,-0.37266 -3.74691,-0.21337 -5.27421,-0.37578 -6.37829,-0.67822 l -1.04219,-0.2855 5e-5,0.32532 4e-5,0.32531 -5.69141,-0.0695 -5.69141,-0.0695 0.18477,0.29897 0.18477,0.29896 -0.90457,-0.17293 -0.90457,-0.1729 -4.67384,0.61607 c -2.57059,0.33885 -5.35597,0.85533 -6.18972,1.14774 -1.9144,0.67141 -7.15298,1.90354 -10.611269,2.49581 -4.25125,0.72806 -11.309555,2.50766 -13.115697,3.30684 l -1.664302,0.73642 -6.821534,1.61207 c -3.751844,0.88664 -7.162613,1.76133 -7.579483,1.94377 -0.416873,0.18243 -1.866449,0.50364 -3.221281,0.71379 -1.354834,0.21016 -6.385716,1.21589 -11.179739,2.23495 l -8.716406,1.85286 -4.549228,1.91781 c -2.502076,1.05478 -5.998112,2.3664 -7.768973,2.91469 -6.450478,1.99721 -8.97186,2.92669 -12.366545,4.55881 l -3.46219,1.66459 -1.492654,1.69574 -1.492651,1.69574 -1.01172,3.3383 c -0.556449,1.83606 -1.250104,4.50075 -1.541464,5.92153 l -0.529741,2.58325 -1.19248,1.91831 c -1.5240486,2.45167 -1.2738197,2.66682 0.837833,0.72035 l 1.679829,-1.54841 0.868139,-3.23045 c 1.02699,-3.82154 1.309643,-3.94365 0.76491,-0.33044 l -0.393454,2.60977 0.09776,9.47436 0.09777,9.47436 -0.657486,1.20178 -0.657486,1.2018 -1.185519,0.84417 -1.185518,0.84415 -0.6027322,1.36483 -0.6027322,1.3648 -0.2363656,9.47436 -0.2363621,9.47435 -0.8653504,3.79175 -0.8653456,3.79175 0.872134,1.47815 0.8721329,1.47816 0.542437,-0.81695 c 0.7784239,-1.17238 1.1041332,-1.02953 2.0004562,0.87731 l 0.796404,1.69427 1.480478,1.33753 1.480473,1.33752 h 2.62929 2.629365 l 0.235782,-0.3815 0.235782,-0.38151 -2.470846,-2.83307 -2.470847,-2.83306 -0.379774,-1.42787 c -0.208876,-0.78532 -0.530655,-2.40293 -0.715064,-3.59467 l -0.33529,-2.16731 0.84149,-3.3283 c 0.462822,-1.83058 1.209022,-4.11005 1.658223,-5.06549 l 0.816736,-1.73717 1.40901,-0.78334 1.409015,-0.78333 7.389996,-1.59156 7.389998,-1.59157 2.842307,-1.38307 c 1.563267,-0.76068 2.97021,-1.43991 3.126536,-1.50938 l 0.28423,-0.12632 v 1.38291 1.38289 l 0.433377,0.82778 c 0.780156,1.49017 7.784861,10.26193 9.588619,12.00753 l 1.762207,1.70538 1.323067,2.74843 1.323071,2.74843 0.99342,0.65091 0.99342,0.65092 0.397267,-0.6298 0.397272,-0.6298 1.799695,1.6834 1.799696,1.68341 2.763797,-0.006 2.763799,-0.006 0.510524,-0.32356 0.510527,-0.32353 -1.809647,-1.47078 c -2.551592,-2.0738 -4.400058,-3.9285 -8.257526,-8.28537 l -3.361504,-3.7967 -0.898253,-1.89486 -0.898248,-1.89487 -0.0038,-1.25659 -0.0038,-1.25658 0.430393,-0.82777 c 0.236715,-0.45529 1.323879,-1.77335 2.415915,-2.92903 l 1.985526,-2.10128 0.754078,-1.49899 c 0.414743,-0.82445 0.96828,-2.1608 1.230075,-2.96969 l 0.475999,-1.47069 1.324769,-1.46635 1.324769,-1.46636 h 0.557713 c 0.306742,0 1.878484,0.58071 3.492758,1.29047 l 2.935045,1.29045 4.137373,1.0281 c 2.275554,0.56544 4.307909,1.16104 4.516344,1.32353 0.208436,0.16249 1.743282,0.50777 3.410763,0.76728 1.667486,0.2595 3.202342,0.5977 3.410776,0.75155 0.208434,0.15384 2.425431,0.47695 4.926655,0.71799 2.501235,0.24105 5.291373,0.5394 6.200322,0.66299 l 1.652617,0.22475 -0.249397,2.31926 c -0.137165,1.2756 -0.298611,4.53626 -0.358764,7.24593 l -0.10939,4.92665 -1.009627,3.32176 c -1.150023,3.78363 -1.208732,4.40905 -0.504345,5.37236 l 0.505292,0.69102 1.076445,-0.70531 1.076433,-0.70533 0.138538,0.41559 c 0.07624,0.22858 0.515545,1.16292 0.976338,2.07633 l 0.83799,1.66075 1.32641,0.66262 1.32641,0.66262 2.1791,7.6e-4 2.1791,7.4e-4 v -0.39522 c 0,-0.21738 -0.67279,-1.28634 -1.49508,-2.37546 -0.82229,-1.08913 -1.84179,-2.74455 -2.26552,-3.67874 l -0.77044,-1.69852 -0.008,-1.7399 -0.008,-1.73989 0.50729,-1.67086 c 0.27902,-0.91898 1.77122,-4.39097 3.31603,-7.71554 l 2.80876,-6.045 1.79706,-1.91379 1.79707,-1.9138 0.85575,0.99609 c 4.17523,4.85991 7.67121,9.56492 10.18508,13.70745 1.03744,1.70954 2.46562,3.70512 3.17371,4.43464 l 1.28746,1.32643 1.16413,2.49495 1.16414,2.49496 0.57126,2.98563 0.57123,2.98563 0.56823,0.86723 c 0.67217,1.02586 0.85183,1.05521 1.70931,0.2792 l 0.64976,-0.58803 0.87412,1.81969 c 0.48078,1.00084 1.13976,2.02746 1.46444,2.28136 l 0.59031,0.46167 3.03179,-0.0318 c 1.66749,-0.0175 3.33024,-0.10986 3.695,-0.20522 z" />
</svg>
