<svg xmlns="http://www.w3.org/2000/svg" viewBox="0 0 900 446">
<g transform="translate(900,0) scale(-1,1)">
  <g transform="matrix(0.1,0,0,-0.1,0,446)" fill="currentColor" fill-rule="evenodd">
    <path d="m 2312,4248 c -2,-67 -99,-552 -136,-683 -32,-115 -98,-262 -166,-375 -22,-36 -41,-68 -42,-71 -2,-4 -13,-10 -26,-13 -22,-7 -21,-5 13,61 52,99 119,249 140,313 10,30 22,61 28,68 5,7 8,15 5,18 -6,5 -48,-80 -48,-97 0,-18 -166,-351 -190,-381 -12,-16 -28,-28 -36,-28 -18,0 -18,-6 9,76 29,83 42,148 29,140 -5,-3 -12,-22 -15,-43 -2,-21 -20,-76 -38,-122 -29,-72 -38,-86 -61,-92 -35,-9 -35,-2 -2,42 36,47 76,134 89,194 7,32 15,49 23,47 8,-1 11,2 8,7 -3,4 1,32 10,61 8,28 13,55 10,58 -3,3 -6,0 -6,-6 0,-6 -5,-23 -12,-39 -6,-15 -13,-37 -15,-47 -2,-11 -7,-24 -12,-30 -5,-6 -17,-38 -26,-71 -16,-55 -133,-261 -143,-251 -2,3 3,19 11,35 23,47 4,37 -23,-11 -37,-67 -70,-82 -45,-21 23,55 8,53 -16,-3 -20,-45 -38,-68 -47,-59 -2,2 2,13 8,25 6,12 10,24 7,26 -2,3 -12,-11 -21,-29 -8,-19 -23,-40 -31,-47 -14,-12 -16,-10 -11,16 l 6,29 -11,-27 c -6,-16 -18,-28 -26,-28 -14,0 -14,2 0,18 10,10 17,22 17,27 0,11 -35,-36 -44,-59 -3,-10 -9,-16 -13,-12 -3,3 -17,-1 -30,-9 -13,-9 -23,-13 -23,-10 0,3 -13,-1 -30,-10 -16,-9 -30,-12 -30,-8 0,5 -5,1 -10,-7 -8,-12 -10,-12 -10,-1 0,11 -3,11 -18,-2 -9,-9 -29,-17 -44,-19 -15,-2 -30,-7 -34,-11 -4,-4 -16,-7 -26,-7 -10,0 -18,-5 -18,-11 0,-6 -7,-9 -15,-6 -8,4 -17,2 -20,-4 -4,-5 -12,-9 -18,-8 -23,3 -36,-1 -51,-17 -12,-12 -16,-12 -16,-2 0,10 -3,9 -10,-2 -6,-10 -10,-11 -10,-3 0,9 -7,10 -26,3 -38,-15 -54,-35 -54,-67 0,-55 14,-65 202,-152 86,-40 174,-59 308,-66 25,-2 47,-4 50,-5 3,-1 13,-2 23,-1 9,1 17,-3 17,-8 0,-6 4,-11 10,-11 5,0 7,7 3,16 -5,14 -3,15 23,1 16,-8 34,-12 40,-10 6,2 16,-2 22,-10 18,-21 103,-255 123,-336 10,-40 21,-76 25,-80 3,-3 4,3 1,14 -3,11 -9,38 -13,60 -8,52 -40,151 -76,244 -41,103 -42,109 -10,107 15,-1 33,-5 41,-10 10,-6 12,-5 7,2 -10,17 0,15 32,-5 l 27,-17 -19,22 c -11,13 -14,22 -7,22 6,0 20,-15 31,-32 10,-18 23,-38 29,-44 5,-6 24,-37 41,-68 18,-31 34,-56 36,-56 9,0 -26,71 -60,120 -28,40 -34,55 -24,61 7,5 15,4 16,-1 2,-6 10,-10 18,-10 9,0 12,5 9,10 -10,16 11,12 25,-5 7,-8 16,-13 20,-10 4,2 21,-18 38,-45 17,-28 36,-50 41,-50 5,0 13,-9 16,-20 3,-11 11,-20 17,-20 5,0 0,12 -12,28 -40,51 -80,116 -75,121 3,2 10,0 17,-7 6,-6 25,-8 42,-5 30,5 30,5 11,-12 -18,-15 -18,-16 -2,-11 11,3 31,9 45,12 26,6 26,6 7,-9 -15,-11 -16,-15 -5,-15 8,1 26,0 40,-1 25,-2 25,-2 -5,-15 -29,-12 -27,-13 32,-12 35,0 55,3 46,7 -15,5 -15,6 1,12 10,4 25,7 34,7 15,0 15,-2 2,-10 -13,-8 -12,-10 5,-11 11,-1 28,-2 37,-1 10,1 23,-7 30,-17 11,-17 15,-18 54,-6 50,15 69,-2 25,-21 -24,-11 -22,-11 19,-9 25,2 56,7 70,10 20,5 22,4 10,-4 -12,-9 -4,-11 35,-12 97,0 140,-4 154,-13 12,-8 11,-11 -5,-18 -13,-6 -8,-7 16,-3 25,3 42,-1 60,-15 l 25,-20 -38,0 c -21,0 -36,-4 -33,-9 4,-5 22,-5 43,-1 47,11 64,1 27,-16 -29,-13 -29,-13 11,-8 38,5 44,2 120,-62 44,-38 137,-121 207,-186 70,-65 133,-118 139,-118 7,0 1,9 -12,21 -13,11 -76,69 -139,129 -63,59 -138,127 -167,151 -53,45 -65,72 -37,83 24,9 36,-2 24,-24 -9,-17 -8,-17 30,1 43,21 54,23 46,11 -3,-5 9,-7 27,-5 28,3 29,2 10,-7 -34,-14 -28,-20 9,-9 40,11 40,11 34,0 -3,-5 0,-9 7,-8 39,1 49,-3 38,-16 -13,-17 -4,-28 17,-20 9,4 13,2 9,-4 -8,-12 20,-26 34,-17 5,3 9,1 9,-5 0,-6 8,-8 18,-4 9,3 14,3 10,-2 -4,-4 0,-14 9,-20 15,-11 15,-13 -5,-19 -12,-4 -22,-11 -22,-16 0,-5 14,-4 30,1 17,6 30,16 30,22 0,6 8,3 18,-6 16,-17 16,-19 -2,-32 -10,-8 -24,-17 -30,-20 -8,-3 -7,-7 2,-11 10,-5 10,-9 1,-20 -9,-11 -8,-14 3,-14 8,0 18,4 23,9 6,5 20,12 32,16 18,5 22,3 17,-10 -4,-9 -12,-14 -20,-11 -7,3 -17,-1 -23,-8 -13,-16 17,-19 37,-3 9,7 16,7 24,-1 8,-8 9,-12 1,-12 -6,0 -14,-7 -17,-16 -5,-13 1,-12 30,5 l 35,21 -7,-22 c -6,-20 -5,-21 9,-10 9,8 18,9 21,3 3,-5 -6,-19 -20,-30 -26,-20 -26,-21 -5,-21 18,0 21,-4 16,-20 -7,-22 5,-26 23,-8 7,7 12,8 12,3 0,-5 6,-1 13,10 9,11 16,14 21,7 3,-6 -6,-20 -21,-33 -19,-14 -24,-23 -15,-26 10,-4 8,-8 -5,-18 -35,-26 -6,-25 32,0 37,26 59,29 30,5 -8,-7 -15,-17 -15,-22 0,-6 6,-5 15,2 28,24 36,4 9,-23 -16,-16 -21,-25 -11,-21 14,5 16,2 10,-12 -6,-17 -5,-17 10,-5 9,7 17,9 17,3 0,-5 -10,-17 -22,-26 -13,-9 -16,-14 -8,-10 8,4 25,16 38,27 28,26 29,11 0,-20 -18,-20 -19,-23 -5,-23 23,0 21,-16 -4,-52 -12,-16 -18,-32 -15,-35 3,-3 1,-12 -6,-20 -9,-11 -7,-12 7,-7 15,6 16,4 6,-14 -7,-12 -16,-22 -22,-22 -6,0 -9,-6 -7,-12 3,-7 -5,-20 -16,-30 -12,-10 -16,-17 -8,-18 8,0 5,-10 -9,-29 -12,-17 -19,-37 -16,-46 4,-9 1,-18 -8,-21 -8,-4 -15,-17 -15,-31 0,-14 -15,-46 -33,-72 -18,-25 -36,-54 -40,-64 -11,-30 -55,-39 -142,-32 -44,4 -181,9 -305,11 -219,3 -226,2 -277,-21 -29,-13 -53,-28 -53,-34 0,-6 -14,-26 -31,-46 l -31,-35 68,0 69,0 -32,-22 c -18,-13 -33,-26 -33,-30 0,-5 29,-8 65,-8 59,0 115,-14 115,-30 0,-10 90,-12 103,-2 7,5 30,5 56,0 l 43,-10 -22,-23 -21,-22 28,-6 c 15,-3 33,-1 40,5 14,12 185,13 360,3 102,-6 136,-5 148,5 10,8 30,11 56,7 l 40,-5 23,51 c 14,31 37,62 57,76 19,14 40,33 47,43 11,14 21,18 42,13 16,-4 55,1 89,11 75,21 96,15 87,-26 -6,-34 0,-37 31,-15 17,12 40,14 108,10 53,-4 93,-2 106,5 11,6 45,18 76,26 77,20 143,89 143,149 0,14 18,43 44,71 46,49 56,76 56,151 0,25 9,75 19,111 10,37 26,94 36,127 34,121 63,136 256,128 112,-4 152,-10 181,-24 26,-14 60,-19 115,-19 43,-1 101,-7 128,-14 47,-12 52,-16 83,-77 31,-60 59,-105 105,-173 11,-17 26,-54 33,-83 l 12,-52 -33,-11 c -18,-6 -128,-13 -245,-16 -172,-4 -223,-8 -269,-23 -31,-11 -74,-22 -96,-26 -66,-12 -141,-35 -161,-50 -18,-14 -18,-14 5,-15 20,0 21,-2 11,-15 -10,-12 -9,-15 6,-15 11,0 26,-5 34,-10 13,-9 13,-11 0,-21 -11,-7 5,-8 58,-4 58,6 77,4 97,-9 13,-9 33,-16 44,-16 28,0 52,-11 45,-21 -7,-12 19,-12 32,0 14,13 144,23 144,11 0,-16 341,-3 393,15 23,8 65,19 92,25 28,6 80,22 117,36 l 67,25 -1,42 c 0,23 -6,62 -13,87 -7,25 -16,84 -19,132 -6,99 5,123 60,134 27,5 34,1 77,-51 26,-32 73,-76 105,-98 31,-22 80,-60 109,-84 35,-30 60,-43 81,-43 21,0 38,-9 56,-31 14,-17 26,-34 26,-39 0,-5 15,-14 34,-21 19,-7 37,-21 39,-31 3,-10 14,-18 26,-18 12,0 20,-3 19,-7 0,-5 2,-16 7,-26 4,-11 3,-23 -3,-29 -19,-19 -113,-29 -170,-17 -38,8 -67,7 -105,-1 -29,-6 -108,-18 -177,-26 -247,-29 -271,-35 -314,-83 -20,-22 -14,-43 6,-23 7,7 20,12 30,12 17,0 17,-1 -2,-20 -11,-11 -25,-20 -32,-20 -9,0 -9,-3 0,-12 9,-9 15,-9 24,0 7,7 30,12 52,12 39,0 39,0 21,-20 -23,-25 -14,-36 16,-20 29,16 83,6 108,-19 12,-12 34,-21 51,-21 22,0 33,-6 38,-21 7,-19 9,-19 21,-5 17,20 94,22 110,2 18,-21 77,-29 103,-14 24,14 258,19 258,6 0,-8 21,-5 40,7 36,23 57,31 88,30 17,0 32,4 32,8 0,5 8,7 18,6 56,-5 92,3 136,34 26,17 60,39 74,48 41,23 57,65 55,136 -2,70 -21,122 -57,158 -14,14 -23,25 -20,25 3,0 -4,12 -15,26 -12,15 -21,35 -21,45 0,9 -6,24 -12,31 -17,17 -19,48 -4,48 6,0 3,5 -6,11 -10,5 -18,16 -18,24 0,10 6,12 18,8 14,-6 15,-4 5,9 -7,8 -10,17 -8,20 3,3 1,17 -4,31 -6,15 -6,29 -2,32 10,6 33,-19 26,-28 -3,-4 -2,-5 2,-2 4,3 24,-12 46,-32 22,-21 35,-29 29,-18 -6,11 -29,38 -51,60 -38,36 -59,87 -28,69 8,-5 8,-2 -2,9 -8,10 -9,17 -3,17 6,0 19,-13 28,-29 10,-17 21,-28 25,-25 4,2 10,-4 14,-15 3,-11 13,-25 22,-32 9,-8 4,8 -13,41 -16,30 -30,58 -32,61 -1,3 4,6 12,6 8,0 17,-6 20,-14 3,-7 10,-13 16,-13 6,0 3,11 -6,25 -30,46 4,26 59,-35 53,-59 55,-60 61,-35 5,19 -3,43 -34,95 -22,37 -40,77 -40,87 1,17 2,17 15,-2 25,-34 37,-46 42,-41 3,2 -5,18 -17,34 -16,21 -20,36 -15,49 8,17 8,17 12,1 3,-10 8,-18 12,-18 10,0 134,-211 134,-228 0,-6 3,-10 5,-7 9,9 54,-75 48,-90 -3,-8 0,-12 7,-9 12,4 57,-38 57,-52 0,-3 9,-18 20,-34 11,-15 16,-31 12,-35 -4,-5 -2,-5 5,-2 6,4 20,-8 32,-29 12,-20 25,-34 28,-30 4,3 -4,20 -16,37 -12,16 -37,51 -54,77 -17,26 -34,49 -37,52 -37,28 -222,352 -214,373 3,9 10,14 15,11 5,-3 9,0 9,7 0,7 10,3 23,-9 13,-12 26,-20 28,-17 5,4 57,-36 139,-108 55,-47 63,-48 15,-1 -27,27 -49,52 -47,56 1,5 -2,7 -7,5 -4,-1 -38,24 -75,57 -53,47 -64,61 -55,72 9,11 8,18 -1,29 -8,10 -9,15 -2,15 6,0 17,-10 23,-22 7,-13 14,-18 16,-11 3,7 -1,22 -7,33 -24,45 -2,28 33,-24 24,-37 32,-56 24,-60 -7,-3 -6,-5 4,-5 9,-1 22,-12 29,-26 7,-14 18,-25 23,-25 5,0 2,10 -6,23 -28,38 -74,121 -81,145 -10,32 8,27 22,-5 11,-27 11,-27 5,7 l -6,35 25,-30 c 13,-17 56,-75 95,-130 39,-55 104,-136 143,-180 40,-44 84,-96 98,-115 14,-19 38,-48 53,-65 14,-16 38,-50 53,-75 14,-25 26,-38 26,-29 0,9 -7,22 -15,29 -8,7 -15,18 -15,25 0,7 -17,32 -38,56 -21,24 -43,52 -48,61 -5,10 -43,53 -85,95 -41,43 -107,128 -148,188 -40,61 -91,131 -112,157 -40,48 -55,89 -19,50 12,-12 24,-22 27,-22 3,0 -1,8 -10,18 -27,30 -20,38 10,11 18,-17 24,-19 20,-7 -15,42 25,26 93,-38 25,-23 68,-60 95,-80 28,-21 56,-44 63,-51 8,-7 23,-18 35,-24 l 22,-10 -21,18 c -12,10 -64,54 -115,98 -52,43 -110,94 -129,111 -19,18 -46,42 -60,53 -19,15 -21,20 -9,21 9,0 22,-7 29,-15 7,-8 17,-15 22,-15 6,0 -4,13 -21,29 -36,34 -40,47 -10,30 19,-10 20,-9 14,12 -6,18 3,14 56,-25 35,-25 89,-60 119,-78 30,-17 63,-38 73,-46 9,-8 20,-12 23,-9 4,3 -8,14 -25,25 -17,10 -29,21 -26,24 3,2 -1,5 -8,5 -17,0 -197,123 -197,135 0,4 -6,8 -14,8 -8,0 -18,5 -21,10 -7,11 30,8 41,-3 4,-4 12,-7 17,-7 6,0 0,9 -12,19 -15,13 -18,20 -9,24 7,2 22,-3 33,-13 11,-10 34,-26 50,-36 20,-12 13,-2 -20,28 -28,27 -44,47 -35,47 18,1 41,-13 43,-25 1,-5 10,-10 20,-11 28,-5 67,-34 60,-46 -3,-6 -1,-7 6,-3 7,5 26,-3 45,-17 40,-31 91,-53 178,-78 67,-19 117,-44 174,-86 17,-13 34,-23 39,-23 13,0 -77,66 -120,87 -22,11 -62,25 -88,32 -64,16 -129,46 -202,96 -33,23 -80,53 -105,68 -67,40 -104,73 -86,80 8,3 22,-3 32,-14 9,-10 22,-19 28,-19 6,0 -6,14 -27,31 -21,17 -36,33 -33,36 4,4 91,-53 131,-87 11,-10 34,-25 50,-35 25,-14 24,-11 -10,19 -22,20 -61,50 -87,67 -27,17 -45,36 -41,42 3,6 1,7 -5,3 -7,-4 -12,-3 -12,3 0,5 -7,17 -17,26 -24,24 4,41 30,18 17,-16 17,-16 11,0 -8,21 0,21 31,1 14,-9 22,-20 19,-25 -3,-5 -1,-8 4,-7 5,2 47,-21 93,-50 133,-84 321,-193 326,-188 5,5 -81,61 -137,90 -70,37 -106,57 -150,86 -25,17 -57,38 -72,48 -16,9 -28,20 -28,24 0,8 140,-50 160,-67 8,-7 20,-14 25,-16 51,-20 174,-93 168,-102 -3,-6 -1,-7 5,-3 6,4 44,-19 84,-52 67,-54 147,-112 187,-137 9,-6 47,-40 86,-77 38,-37 72,-64 75,-62 8,9 -106,107 -255,221 -172,130 -167,126 -130,118 23,-4 18,1 -20,19 -27,14 -54,25 -59,26 -5,0 -70,31 -145,68 -75,37 -161,78 -193,89 -78,30 -145,73 -128,83 9,6 7,11 -9,19 -11,7 -21,16 -21,22 0,6 18,-2 39,-18 22,-15 37,-32 34,-37 -4,-5 0,-6 7,-1 10,6 1,18 -31,46 -65,57 -33,47 55,-17 43,-30 82,-54 88,-52 6,2 -15,21 -47,42 -31,20 -54,40 -52,43 10,10 171,-49 252,-92 236,-125 265,-142 395,-232 24,-17 24,-17 11,0 -27,34 -109,87 -287,184 -164,89 -258,128 -393,163 -29,8 -40,15 -31,20 9,5 1,15 -26,35 l -39,27 35,-7 c 30,-7 74,-28 90,-45 3,-3 16,-6 30,-7 16,-2 3,9 -37,29 -35,18 -63,38 -63,45 0,6 -13,20 -30,30 -17,9 -30,21 -30,25 0,12 28,10 35,-2 3,-5 11,-10 16,-10 6,0 7,5 4,10 -11,18 7,11 104,-41 53,-29 131,-81 173,-115 43,-35 81,-64 85,-64 3,0 17,-10 30,-22 13,-12 23,-16 23,-10 0,6 -8,16 -18,21 -10,5 -54,40 -98,76 -70,58 -178,124 -337,203 -33,17 -45,28 -38,35 7,7 16,6 27,-4 11,-9 9,-2 -6,18 -13,18 -39,38 -59,44 -51,16 -64,32 -22,27 38,-6 38,-5 -33,46 -14,10 -24,21 -22,24 5,4 84,-31 335,-150 46,-21 85,-37 87,-35 2,2 -29,20 -68,39 -244,119 -306,148 -331,154 -21,5 -25,9 -15,15 10,7 8,10 -9,15 -13,4 -23,10 -23,15 0,5 -8,9 -17,9 -10,0 -25,5 -33,11 -12,8 -9,9 13,5 15,-4 27,-2 27,3 0,4 -15,11 -32,15 -18,4 -50,18 -70,31 -21,14 -46,25 -55,26 -12,0 -13,2 -5,6 20,8 103,-18 95,-30 -3,-6 -1,-7 6,-3 6,4 33,3 59,-3 190,-43 251,-58 358,-91 153,-48 189,-56 180,-41 -4,6 -15,11 -25,11 -18,0 -116,28 -211,60 -30,10 -109,31 -175,46 -66,14 -149,35 -185,47 -36,11 -83,23 -105,27 l -40,7 50,2 c 37,1 46,4 35,11 -8,6 -33,8 -55,5 -28,-3 -34,-2 -20,4 20,9 7,14 -80,34 -54,13 185,5 271,-9 127,-19 357,-45 362,-39 5,5 -35,11 -158,25 -52,6 -135,18 -185,25 -49,8 -146,15 -215,16 -95,1 -120,3 -105,12 18,10 18,11 -10,20 -17,5 -46,12 -65,17 l -35,8 35,1 c 56,2 15,20 -50,22 -44,1 -49,3 -24,8 23,4 29,9 20,17 -13,12 -19,14 -48,15 -22,0 -22,1 -3,10 17,8 15,9 -10,6 -16,-3 -41,-1 -55,3 -21,7 -17,8 20,10 48,2 44,5 -35,16 l -50,8 45,7 c 108,17 429,-22 590,-71 36,-11 81,-19 100,-19 29,1 24,4 -25,14 -33,6 -85,20 -115,29 -82,26 -214,45 -410,61 -96,8 -186,15 -200,15 l -25,1 25,10 c 59,24 763,20 965,-6 l 40,-5 -35,11 c -59,17 -508,35 -815,33 -159,-2 -279,1 -265,5 32,9 19,16 -60,32 -58,12 -62,14 -35,20 23,5 16,7 -30,8 -60,2 -60,2 -30,16 l 30,15 -40,-2 c -58,-1 -74,3 -45,12 18,6 7,9 -45,10 -38,2 -60,5 -47,7 43,8 21,20 -50,28 l -73,7 35,13 c 19,8 27,14 18,14 -9,1 -29,-4 -44,-9 -30,-12 -47,-4 -24,10 19,12 4,13 -36,1 -17,-5 -37,-5 -43,-1 -8,4 5,11 31,17 95,23 278,54 373,64 55,5 129,17 165,25 82,19 98,22 146,30 21,3 41,8 44,11 8,9 -100,-7 -180,-27 -41,-10 -115,-21 -165,-25 -49,-3 -130,-15 -180,-26 -49,-10 -104,-19 -122,-19 -18,0 -54,-7 -80,-16 -26,-9 -68,-16 -93,-14 -25,1 -71,2 -102,2 -38,0 -57,4 -55,12 1,7 -17,10 -58,8 -45,-2 -56,0 -45,8 11,8 -11,10 -79,6 l -94,-4 79,39 c 43,22 121,55 172,75 51,20 91,38 89,41 -9,8 -133,-39 -244,-93 -62,-29 -119,-51 -127,-48 -8,3 -17,1 -21,-5 -3,-6 -18,-11 -33,-11 -21,0 -24,2 -12,10 8,5 10,10 4,10 -5,0 -19,-7 -30,-15 -10,-8 -26,-14 -34,-14 -10,0 -11,2 -2,6 6,2 12,9 12,14 0,5 -12,3 -27,-5 -37,-18 -93,-30 -93,-19 0,5 35,25 78,45 161,75 214,98 219,98 2,0 32,13 66,29 34,17 96,43 137,60 125,49 242,100 249,107 3,4 -1,5 -9,1 -8,-3 -71,-28 -140,-55 -69,-28 -145,-58 -170,-68 -25,-10 -52,-23 -60,-30 -8,-7 -41,-20 -72,-29 -32,-9 -60,-20 -63,-25 -3,-5 -22,-14 -43,-21 -20,-6 -88,-37 -150,-68 -80,-39 -115,-52 -120,-44 -5,7 -13,9 -21,4 -7,-5 -10,-14 -6,-21 4,-7 2,-10 -6,-9 -8,2 -24,-2 -36,-9 -13,-7 -23,-10 -23,-6 0,3 10,14 23,25 19,16 19,18 5,19 -10,0 -18,-4 -18,-9 0,-15 -71,-44 -82,-33 -11,11 64,63 177,122 73,38 155,89 155,97 0,3 -17,-5 -37,-18 -72,-43 -227,-117 -235,-112 -5,2 -7,-1 -6,-9 2,-7 -3,-12 -9,-10 -7,1 -13,-2 -13,-8 0,-12 -99,-70 -119,-70 -8,0 -23,-8 -34,-17 -20,-17 -20,-17 -13,1 6,19 6,19 -12,3 -10,-9 -21,-15 -24,-12 -3,3 -24,-3 -48,-14 -24,-11 -48,-17 -54,-15 -15,5 129,156 190,199 26,19 52,31 57,28 6,-3 7,-1 4,4 -4,6 9,21 28,34 19,13 35,28 35,32 0,5 -12,-1 -27,-13 -16,-12 -59,-44 -97,-71 -37,-27 -109,-89 -158,-139 -59,-60 -100,-93 -119,-97 -16,-3 -29,-10 -29,-15 0,-6 -12,-8 -27,-5 -18,3 -37,-2 -55,-15 -16,-10 -28,-15 -28,-10 0,10 149,159 195,194 34,26 85,78 85,86 0,3 -15,-8 -32,-24 -18,-17 -55,-48 -83,-70 -27,-21 -80,-70 -117,-109 -38,-38 -68,-63 -68,-55 0,11 -3,10 -12,-2 -13,-17 -86,-58 -102,-58 -5,0 31,38 80,85 49,47 92,85 97,85 4,0 7,5 7,11 0,18 -15,7 -121,-91 -120,-112 -139,-127 -139,-109 0,10 -3,10 -11,2 -6,-6 -18,-9 -25,-6 -8,3 -14,1 -14,-5 0,-5 -19,-20 -42,-32 -24,-11 -59,-30 -78,-40 -19,-11 -39,-19 -44,-20 -5,0 27,37 70,83 44,45 97,110 119,144 22,34 63,97 90,140 28,42 89,118 136,168 47,49 107,120 132,157 51,73 64,103 20,45 -69,-89 -91,-116 -144,-172 -88,-94 -123,-136 -161,-192 -20,-29 -39,-49 -43,-45 -5,4 -5,2 -1,-5 15,-26 -39,-98 -207,-275 -117,-125 -171,-169 -106,-87 l 32,41 -55,-31 c -58,-33 -86,-41 -53,-14 19,15 19,15 -10,9 -26,-5 -28,-4 -11,7 10,6 31,22 45,35 25,21 24,21 -19,-3 -25,-14 -48,-25 -51,-25 -12,0 -3,52 11,60 13,8 13,10 0,10 -8,-1 -33,-12 -55,-25 -38,-24 -100,-38 -65,-15 12,8 12,10 -5,10 -12,0 12,19 59,49 84,52 210,160 227,195 7,15 2,12 -18,-9 -71,-77 -240,-203 -281,-209 -8,-1 -17,-7 -20,-12 -4,-5 -13,-9 -19,-8 -7,1 -20,2 -29,3 -11,1 2,16 35,43 70,57 56,61 -18,4 -34,-26 -62,-42 -66,-36 -3,5 -1,10 6,10 7,0 9,3 6,6 -4,4 -13,2 -20,-5 -20,-16 -110,-12 -97,4 15,18 -14,27 -46,15 -14,-6 -35,-10 -47,-10 -22,1 -22,1 -3,15 11,8 14,15 8,15 -7,0 -20,-9 -29,-20 -10,-11 -24,-20 -32,-20 -11,0 -10,3 3,13 17,12 15,13 -15,11 -73,-7 -107,-11 -116,-17 -5,-3 -15,-2 -23,4 -13,7 -13,9 -1,9 8,0 11,3 8,7 -4,3 -15,-2 -26,-11 -12,-11 -21,-14 -26,-7 -10,16 -22,13 -45,-11 -11,-12 -23,-18 -27,-14 -4,4 -1,11 7,16 8,6 10,10 4,10 -6,0 -19,-10 -27,-22 -13,-19 -18,-20 -25,-9 -8,11 -14,11 -33,-3 -26,-18 -43,-21 -34,-6 11,18 -14,11 -35,-10 -24,-24 -31,-25 -24,-5 5,13 2,13 -27,1 -19,-8 -60,-28 -91,-45 -32,-16 -58,-28 -58,-26 0,3 21,31 48,64 66,83 227,410 209,427 -3,3 -11,-12 -18,-33 -51,-157 -280,-521 -318,-506 -3,2 -14,0 -24,-3 -28,-9 -31,2 -11,33 47,70 107,183 101,189 -5,5 -47,-62 -47,-74 0,-14 -130,-207 -130,-193 0,11 -5,10 -20,-4 -29,-26 -25,-14 16,47 39,58 119,219 128,258 4,14 -15,-18 -41,-70 -60,-117 -164,-290 -175,-290 -4,0 -8,7 -8,16 0,12 -6,9 -21,-10 -11,-14 -25,-24 -30,-21 -5,4 -20,-5 -33,-19 -35,-39 -49,-31 -20,11 33,49 99,189 131,276 41,115 66,218 122,512 12,61 26,135 32,165 6,30 9,80 7,110 l -4,55 -2,-57 z m 526,-2014 c 21,-6 32,-34 13,-34 -20,0 -61,20 -61,30 0,11 15,13 48,4 z m 4064,-501 c 10,-9 18,-22 18,-28 0,-7 7,-18 15,-25 8,-7 13,-16 10,-20 -3,-5 -1,-11 5,-15 5,-3 10,-11 10,-17 0,-6 -18,6 -39,27 -22,22 -38,42 -35,46 2,4 -3,9 -11,13 -18,6 -20,36 -3,36 6,0 20,-7 30,-17 z M 4204,1480 c 2,-30 6,-59 7,-65 4,-15 -34,-75 -48,-75 -6,0 -13,-5 -15,-12 -4,-11 -74,-24 -174,-33 -23,-1 -52,-6 -64,-10 -15,-5 -20,-4 -16,4 4,6 14,11 21,11 8,0 17,11 21,24 3,13 16,28 30,35 13,6 24,16 24,22 0,19 48,70 53,56 3,-6 6,-2 6,9 1,25 31,56 31,33 0,-12 2,-12 9,0 5,7 13,11 19,7 6,-4 8,3 5,16 -4,19 -3,20 6,8 9,-12 11,-11 11,8 0,12 4,22 10,22 5,0 7,7 4,15 -4,10 0,15 10,15 9,0 20,8 23,18 9,21 20,-24 27,-108 z" />
  </g>
</g>
</svg>
