<svg xmlns="http://www.w3.org/2000/svg" viewBox="6.7 47.1 204.4 174.3">
<path fill="currentColor" d="m 121.86232,211.4243 c 0,-1.34327 2.08034,-1.59183 7.99043,-0.95475 3.19876,0.34482 5.96786,0.49723 6.15357,0.33869 0.57598,-0.49171 -5.54087,-2.78759 -9.94104,-3.73126 -4.68167,-1.00405 -7.00184,-3.27043 -8.37529,-8.18108 -0.7853,-2.80782 -0.66584,-3.20137 1.55789,-5.13285 1.32462,-1.15054 3.25179,-3.64702 4.28262,-5.54775 1.79175,-3.30381 1.96749,-3.40747 3.99424,-2.35599 1.16601,0.60493 2.41296,1.57386 2.77099,2.15318 0.52266,0.84569 1.11191,0.84327 2.98956,-0.0122 1.52141,-0.69321 2.43864,-0.76543 2.62487,-0.20672 0.15745,0.47236 1.73324,3.09758 3.50178,5.83385 3.53205,5.46472 3.30235,6.82963 -1.14936,6.82963 -4.00566,0 -1.51374,1.33288 5.30144,2.83565 3.64313,0.80331 6.53103,1.06276 6.96782,0.62595 0.42741,-0.42739 2.05836,-0.441 3.81912,-0.0319 1.69025,0.39274 6.27372,0.71109 10.18553,0.70744 6.34052,-0.005 6.94119,-0.13625 5.53506,-1.20084 -0.86751,-0.65679 -3.315,-1.41018 -5.43887,-1.67418 -11.15924,-1.38712 -12.78071,-1.95496 -15.91194,-5.5723 -1.6561,-1.91321 -3.31129,-3.98368 -3.67819,-4.60105 -1.14831,-1.93218 5.90096,-12.69977 10.45717,-15.97307 2.20856,-1.58672 6.11005,-5.76787 8.66994,-9.29148 4.33677,-5.96939 9.97223,-11.00867 12.31109,-11.00867 0.55399,0 2.08053,-1.03547 3.39231,-2.30106 10.11397,-9.75779 10.99381,-11.17161 13.53263,-21.74573 2.27508,-9.47568 1.40308,-18.79074 -3.6451,-38.938611 -0.933,-3.723716 -0.35391,-6.732882 1.18225,-6.143401 1.54829,0.594131 2.69955,-1.124136 3.02065,-4.508413 0.25847,-2.724132 0.50769,-2.95434 3.62455,-3.348157 l 3.347,-0.422909 -2.09188,-1.36246 c -1.15053,-0.749365 -3.22148,-1.89199 -4.60211,-2.53918 -1.7569,-0.823577 -2.42648,-1.668905 -2.23113,-2.81675 0.45113,-2.650736 1.63943,-3.30267 6.03017,-3.308257 4.93406,-0.0068 4.96542,-1.005974 0.1093,-3.486072 -1.94629,-0.994011 -5.03498,-3.1591 -6.86378,-4.811311 -3.30109,-2.982345 -4.06516,-3.262947 -8.61439,-3.163626 -2.85782,0.0624 -6.42034,2.244765 -6.42034,3.933056 0,0.673536 -1.23075,1.738849 -2.73504,2.367388 -4.67551,1.953545 -9.1546,9.103328 -12.85705,20.523159 -1.13902,3.513166 -2.96832,7.756135 -4.06509,9.428779 -3.04363,4.64172 -11.02677,11.892105 -14.41298,13.090015 -2.81275,0.99504 -3.17486,0.92573 -5.18638,-0.99271 -3.47544,-3.31463 -6.4552,-4.05317 -13.87697,-3.43943 -6.02925,0.49858 -11.90742,1.46941 -15.54751,2.56783 -0.94474,0.28506 -1.30345,-0.14171 -1.25512,-1.49327 0.0423,-1.18517 -0.6167,-2.19347 -1.76352,-2.697961 -1.00715,-0.443042 -2.0162,-1.513059 -2.24234,-2.377814 -0.27312,-1.044432 -0.92248,-1.429657 -1.93419,-1.147423 -0.837658,0.233661 -3.782245,0.678511 -6.543514,0.988545 -2.761271,0.310021 -5.67943,1.152291 -6.484798,1.871721 -1.379896,1.232632 -1.464308,0.965762 -1.464308,-4.629512 0,-6.279033 -1.090707,-8.27294 -3.055555,-5.58584 -1.050515,1.436659 -1.12819,1.38988 -1.12819,-0.679476 0,-2.184692 -2.867209,-4.713431 -4.028079,-3.552563 -0.295768,0.295774 -0.65203,5.094361 -0.791683,10.663547 -0.210518,8.394866 -0.499686,10.312466 -1.691636,11.217896 -0.790741,0.60067 -1.639403,1.1041 -1.885913,1.11873 -0.246519,0.0147 -1.134668,-3.07982 -1.973655,-6.87656 -2.039063,-9.227461 -4.190743,-14.154787 -5.895468,-13.500623 -1.750625,0.671782 -1.736825,7.716724 0.03032,15.486293 0.734588,3.22971 1.119985,6.08782 0.856439,6.35137 -0.500647,0.50065 -0.585804,0.28572 -2.090201,-5.27536 -2.02336,-7.479448 -7.455533,-12.296482 -6.991146,-6.199479 0.317998,4.174929 2.809695,14.190309 3.661323,14.716639 1.001753,0.61912 0.900285,2.85508 -0.129568,2.85508 -0.466016,0 -1.741863,-2.02276 -2.835204,-4.495 -2.612145,-5.90661 -3.8482,-6.62879 -3.8482,-2.24838 0,1.90066 -0.403067,3.39638 -0.915271,3.39638 -0.61721,0 -0.727874,1.36243 -0.339851,4.18373 0.417163,3.03312 0.29686,4.18375 -0.437403,4.18375 -1.139233,0 -0.834797,1.83053 1.232726,7.41229 0.964774,2.60467 1.098008,3.95157 0.466159,4.7129 -0.486581,0.58629 -0.797811,2.20604 -0.691642,3.59944 0.106173,1.3934 -0.534904,3.88518 -1.424608,5.53727 -1.247706,2.31684 -2.139235,3.00381 -3.898254,3.00381 -2.598099,0 -6.543085,1.59446 -6.543085,2.64456 0,0.38633 -1.286658,0.70242 -2.859241,0.70242 -6.354422,0 -16.374704,6.78831 -19.706641,13.35037 -2.671294,5.26095 -3.678076,12.2303 -2.540897,17.58895 2.126398,10.02 7.09349,16.04278 12.693104,15.39079 1.492978,-0.17383 3.074361,-0.6759 3.514168,-1.11571 0.508369,-0.50838 0.29372,-3.84603 -0.589286,-9.16286 -0.763918,-4.59977 -1.364151,-9.60397 -1.333867,-11.12045 0.04747,-2.37707 0.223116,-2.13222 1.273792,1.77565 2.072103,7.70693 7.524959,16.04904 11.266807,17.23666 2.804153,0.89 7.467228,-0.29491 7.61374,-1.9347 0.242003,-2.70846 0.337745,-3.10403 1.012101,-4.1816 0.436534,-0.69755 -0.39424,-2.38891 -2.339376,-4.7627 -1.658969,-2.02455 -2.942502,-3.98527 -2.852288,-4.35716 0.09021,-0.37189 -0.244642,-2.1823 -0.744104,-4.02315 -1.536526,-5.66307 -2.091185,-11.29611 -1.112286,-11.29611 0.488412,0 0.88802,1.55659 0.88802,3.4591 0,5.2546 1.726564,9.92616 4.807178,13.00678 3.12424,3.12424 5.59999,3.46523 8.371608,1.15306 2.602275,-2.1709 2.411795,-5.74077 -0.627557,-11.7617 -2.61347,-5.17726 -3.184535,-7.17141 -1.4377,-5.02049 0.560628,0.69031 1.611709,1.71666 2.335733,2.28076 1.149278,0.89543 1.268518,0.68296 0.93913,-1.67348 l -0.377284,-2.69916 1.989494,1.75802 c 1.094217,0.96689 2.648428,1.99055 3.453795,2.27478 0.805373,0.28424 1.464315,0.89004 1.464315,1.34623 0,0.45618 1.503448,1.27986 3.34101,1.83042 2.216851,0.66418 3.098734,1.30895 2.62096,1.91627 -0.396026,0.5034 -1.389521,2.98622 -2.207769,5.51739 -0.81824,2.53116 -1.694008,5.15771 -1.946149,5.83676 -0.252147,0.67906 1.308852,-0.2135 3.468868,-1.98346 2.160025,-1.76998 3.927306,-2.87157 3.927306,-2.44795 0,0.4236 -0.316267,1.1279 -0.702829,1.5651 -0.386575,0.43721 -1.557778,2.22453 -2.602687,3.97187 l -1.899844,3.17694 2.393496,-0.55144 c 1.316419,-0.30329 3.797429,-1.45051 5.513356,-2.54937 3.595858,-2.30279 4.105081,-2.42823 3.504573,-0.86332 -0.331957,0.86506 0.618641,1.14163 4.000813,1.16406 6.178145,0.0409 12.915907,1.68257 18.440393,4.49291 0.79913,0.40651 2.18443,0.73911 3.07844,0.73911 1.24677,0 1.93173,1.05347 2.93997,4.52172 1.88959,6.49996 1.67347,8.65487 -1.19575,11.92273 -3.12886,3.56358 -3.20625,4.7381 -0.20918,3.17468 3.15163,-1.64405 3.16464,-1.64041 7.64365,2.13634 4.02383,3.39294 5.11676,3.94825 5.11676,2.59977 z M 43.101236,173.05356 c -1.040807,-1.32712 -1.011217,-1.35673 0.31592,-0.31592 1.393812,1.0931 1.837062,1.78023 1.148387,1.78023 -0.173749,0 -0.832691,-0.65893 -1.464307,-1.46431 z" />
</svg>
